<svg width="53" height="18" viewBox="0 0 53 18" fill="none" xmlns="http://www.w3.org/2000/svg">
<path d="M11 9C11 10.6569 9.65685 12 8 12C6.34315 12 5 10.6569 5 9C5 7.34315 6.34315 6 8 6C9.65685 6 11 7.34315 11 9Z" fill="#22C55E"/>
<path d="M21.868 11.14H18.22L17.548 13H16.396L19.42 4.684H20.68L23.692 13H22.54L21.868 11.14ZM21.556 10.252L20.044 6.028L18.532 10.252H21.556ZM24.6019 9.7C24.6019 9.02 24.7379 8.428 25.0099 7.924C25.2819 7.412 25.6579 7.016 26.1379 6.736C26.6259 6.456 27.1819 6.316 27.8059 6.316C28.6139 6.316 29.2779 6.512 29.7979 6.904C30.3259 7.296 30.6739 7.84 30.8419 8.536H29.6659C29.5539 8.136 29.3339 7.82 29.0059 7.588C28.6859 7.356 28.2859 7.24 27.8059 7.24C27.1819 7.24 26.6779 7.456 26.2939 7.888C25.9099 8.312 25.7179 8.916 25.7179 9.7C25.7179 10.492 25.9099 11.104 26.2939 11.536C26.6779 11.968 27.1819 12.184 27.8059 12.184C28.2859 12.184 28.6859 12.072 29.0059 11.848C29.3259 11.624 29.5459 11.304 29.6659 10.888H30.8419C30.6659 11.56 30.3139 12.1 29.7859 12.508C29.2579 12.908 28.5979 13.108 27.8059 13.108C27.1819 13.108 26.6259 12.968 26.1379 12.688C25.6579 12.408 25.2819 12.012 25.0099 11.5C24.7379 10.988 24.6019 10.388 24.6019 9.7ZM33.631 7.324V11.2C33.631 11.52 33.699 11.748 33.835 11.884C33.971 12.012 34.207 12.076 34.543 12.076H35.347V13H34.363C33.755 13 33.299 12.86 32.995 12.58C32.691 12.3 32.539 11.84 32.539 11.2V7.324H31.687V6.424H32.539V4.768H33.631V6.424H35.347V7.324H33.631ZM37.2341 5.356C37.0261 5.356 36.8501 5.284 36.7061 5.14C36.5621 4.996 36.4901 4.82 36.4901 4.612C36.4901 4.404 36.5621 4.228 36.7061 4.084C36.8501 3.94 37.0261 3.868 37.2341 3.868C37.4341 3.868 37.6021 3.94 37.7381 4.084C37.8821 4.228 37.9541 4.404 37.9541 4.612C37.9541 4.82 37.8821 4.996 37.7381 5.14C37.6021 5.284 37.4341 5.356 37.2341 5.356ZM37.7621 6.424V13H36.6701V6.424H37.7621ZM42.0712 11.992L44.1112 6.424H45.2752L42.6952 13H41.4232L38.8432 6.424H40.0192L42.0712 11.992ZM52.3498 9.46C52.3498 9.668 52.3378 9.888 52.3138 10.12H47.0578C47.0978 10.768 47.3178 11.276 47.7178 11.644C48.1258 12.004 48.6178 12.184 49.1938 12.184C49.6658 12.184 50.0578 12.076 50.3698 11.86C50.6898 11.636 50.9138 11.34 51.0418 10.972H52.2178C52.0418 11.604 51.6898 12.12 51.1618 12.52C50.6338 12.912 49.9778 13.108 49.1938 13.108C48.5698 13.108 48.0098 12.968 47.5138 12.688C47.0258 12.408 46.6418 12.012 46.3618 11.5C46.0818 10.98 45.9418 10.38 45.9418 9.7C45.9418 9.02 46.0778 8.424 46.3498 7.912C46.6218 7.4 47.0018 7.008 47.4898 6.736C47.9858 6.456 48.5538 6.316 49.1938 6.316C49.8178 6.316 50.3698 6.452 50.8498 6.724C51.3298 6.996 51.6978 7.372 51.9538 7.852C52.2178 8.324 52.3498 8.86 52.3498 9.46ZM51.2218 9.232C51.2218 8.816 51.1298 8.46 50.9458 8.164C50.7618 7.86 50.5098 7.632 50.1898 7.48C49.8778 7.32 49.5298 7.24 49.1458 7.24C48.5938 7.24 48.1218 7.416 47.7298 7.768C47.3458 8.12 47.1258 8.608 47.0698 9.232H51.2218Z" fill="#22C55E"/>
</svg>
