<svg width="28" height="28" viewBox="0 0 28 28" fill="none" xmlns="http://www.w3.org/2000/svg">
<path d="M8.19194 17.3081C8.07473 17.1908 7.91576 17.125 7.75 17.125C7.58424 17.125 7.42527 17.1908 7.30806 17.3081C7.19085 17.4253 7.125 17.5842 7.125 17.75C7.125 17.9158 7.19085 18.0747 7.30806 18.1919L9.80806 20.6919C9.92527 20.8092 10.0842 20.875 10.25 20.875C10.4158 20.875 10.5747 20.8092 10.6919 20.6919L13.1917 18.1922L13.1919 18.1919C13.3092 18.0747 13.375 17.9158 13.375 17.75C13.375 17.5842 13.3092 17.4253 13.1919 17.3081C13.0747 17.1908 12.9158 17.125 12.75 17.125C12.5842 17.125 12.4253 17.1908 12.3081 17.3081L12.3078 17.3083L10.25 19.3661L8.19194 17.3081Z" fill="#1C1C1C"/>
<path d="M9.625 7.75V20.25C9.625 20.5952 9.90482 20.875 10.25 20.875C10.5952 20.875 10.875 20.5952 10.875 20.25V7.75C10.875 7.40482 10.5952 7.125 10.25 7.125C9.90482 7.125 9.625 7.40482 9.625 7.75Z" fill="#1C1C1C"/>
<path d="M19.8077 10.6916L19.8081 10.6919C19.9253 10.8092 20.0842 10.875 20.25 10.875C20.4158 10.875 20.5747 10.8092 20.6919 10.6919C20.8092 10.5747 20.875 10.4158 20.875 10.25C20.875 10.0842 20.8092 9.92527 20.6919 9.80806L18.1919 7.30806C18.0747 7.19085 17.9158 7.125 17.75 7.125C17.5842 7.125 17.4253 7.19085 17.3081 7.30806L14.8081 9.80806C14.6908 9.92527 14.625 10.0842 14.625 10.25C14.625 10.26 14.6252 10.27 14.6257 10.28C14.6332 10.4352 14.6982 10.5821 14.8081 10.6919C14.9253 10.8092 15.0842 10.875 15.25 10.875C15.4158 10.875 15.5747 10.8092 15.6919 10.6919L15.6922 10.6917L17.75 8.63388L19.8077 10.6916Z" fill="#1C1C1C"/>
<path d="M18.375 20.25V7.75C18.375 7.40482 18.0952 7.125 17.75 7.125C17.4048 7.125 17.125 7.40482 17.125 7.75V20.25C17.125 20.5952 17.4048 20.875 17.75 20.875C18.0952 20.875 18.375 20.5952 18.375 20.25Z" fill="#1C1C1C"/>
</svg>
