<svg width="14" height="8" viewBox="0 0 14 8" fill="none" xmlns="http://www.w3.org/2000/svg">
<path fill-rule="evenodd" clip-rule="evenodd" d="M6.50509 6.39223L0.95996 8L2.34015 2.3939L4.06193 4.0468L6.83927 1.15373C6.93355 1.05552 7.06381 1 7.19996 1C7.33611 1 7.46637 1.05552 7.56065 1.15373L9.59996 3.27801L12.5993 0.153734C12.7905 -0.0454711 13.107 -0.0519314 13.3062 0.139307C13.5054 0.330544 13.5119 0.64706 13.3207 0.846266L9.96065 4.34627C9.86637 4.44448 9.73611 4.5 9.59996 4.5C9.46381 4.5 9.33355 4.44448 9.23927 4.34627L7.19996 2.22199L4.78331 4.73933L6.50509 6.39223Z" fill="#FF0000"/>
</svg>
