<svg width="457" height="168" viewBox="0 0 457 168" fill="none" xmlns="http://www.w3.org/2000/svg">
<path d="M1.73189 10.8182H2.80575C2.837 11.1136 2.93786 11.3636 3.10831 11.5682C3.28161 11.7699 3.50604 11.9233 3.78161 12.0284C4.05717 12.1307 4.36257 12.1818 4.6978 12.1818C5.06143 12.1818 5.38814 12.1207 5.67791 11.9986C5.96768 11.8764 6.1978 11.6946 6.36825 11.4531C6.53871 11.2088 6.62393 10.9062 6.62393 10.5455C6.62393 10.2301 6.55007 9.9375 6.40234 9.66761C6.25462 9.39489 6.0174 9.17472 5.6907 9.0071C5.36399 8.83949 4.93075 8.75568 4.39098 8.75568H3.69212V7.90341L5.87393 5.27841V5.21023H2.15803V4.27273H7.3228V5.03977L4.98757 7.86932V7.9375C5.36257 7.95455 5.712 8.03125 6.03587 8.16761C6.36257 8.30398 6.64666 8.48864 6.88814 8.72159C7.13246 8.95455 7.3228 9.22585 7.45916 9.53551C7.59553 9.84517 7.66371 10.1818 7.66371 10.5455C7.66371 11.0426 7.53587 11.4858 7.28018 11.875C7.02734 12.2614 6.67649 12.5653 6.22763 12.7869C5.78161 13.0085 5.26598 13.1193 4.68075 13.1193C4.16371 13.1193 3.68786 13.0284 3.2532 12.8466C2.81854 12.6648 2.46484 12.402 2.19212 12.0582C1.91939 11.7145 1.76598 11.3011 1.73189 10.8182ZM12.25 13.1193C11.608 13.1193 11.0611 12.9446 10.6094 12.5952C10.1577 12.2429 9.8125 11.733 9.57386 11.0653C9.33523 10.3949 9.21591 9.58523 9.21591 8.63636C9.21591 7.69318 9.33523 6.88778 9.57386 6.22017C9.81534 5.54972 10.1619 5.03835 10.6136 4.68608C11.0682 4.33097 11.6136 4.15341 12.25 4.15341C12.8864 4.15341 13.4304 4.33097 13.8821 4.68608C14.3366 5.03835 14.6832 5.54972 14.9219 6.22017C15.1634 6.88778 15.2841 7.69318 15.2841 8.63636C15.2841 9.58523 15.1648 10.3949 14.9261 11.0653C14.6875 11.733 14.3423 12.2429 13.8906 12.5952C13.4389 12.9446 12.892 13.1193 12.25 13.1193ZM12.25 12.1818C12.8864 12.1818 13.3807 11.875 13.733 11.2614C14.0852 10.6477 14.2614 9.77273 14.2614 8.63636C14.2614 7.88068 14.1804 7.23722 14.0185 6.70597C13.8594 6.17472 13.6293 5.76989 13.3281 5.49148C13.0298 5.21307 12.6705 5.07386 12.25 5.07386C11.6193 5.07386 11.1264 5.38494 10.7713 6.0071C10.4162 6.62642 10.2386 7.50284 10.2386 8.63636C10.2386 9.39205 10.3182 10.0341 10.4773 10.5625C10.6364 11.0909 10.8651 11.4929 11.1634 11.7685C11.4645 12.044 11.8267 12.1818 12.25 12.1818Z" fill="black" fill-opacity="0.4"/>
<path d="M2.13778 53V52.233L5.01847 49.0795C5.35653 48.7102 5.63494 48.3892 5.85369 48.1165C6.07244 47.8409 6.23438 47.5824 6.33949 47.3409C6.44744 47.0966 6.50142 46.8409 6.50142 46.5739C6.50142 46.267 6.42756 46.0014 6.27983 45.777C6.13494 45.5526 5.93608 45.3793 5.68324 45.2571C5.4304 45.1349 5.14631 45.0739 4.83097 45.0739C4.49574 45.0739 4.20312 45.1435 3.95312 45.2827C3.70597 45.419 3.5142 45.6108 3.37784 45.858C3.24432 46.1051 3.17756 46.3949 3.17756 46.7273H2.17188C2.17188 46.2159 2.28977 45.767 2.52557 45.3807C2.76136 44.9943 3.08239 44.6932 3.48864 44.4773C3.89773 44.2614 4.35653 44.1534 4.86506 44.1534C5.37642 44.1534 5.82955 44.2614 6.22443 44.4773C6.61932 44.6932 6.92898 44.9844 7.15341 45.3509C7.37784 45.7173 7.49006 46.125 7.49006 46.5739C7.49006 46.8949 7.43182 47.2088 7.31534 47.5156C7.2017 47.8196 7.00284 48.1591 6.71875 48.5341C6.4375 48.9062 6.04688 49.3608 5.54688 49.8977L3.58665 51.9943V52.0625H7.64347V53H2.13778ZM12.25 53.1193C11.608 53.1193 11.0611 52.9446 10.6094 52.5952C10.1577 52.2429 9.8125 51.733 9.57386 51.0653C9.33523 50.3949 9.21591 49.5852 9.21591 48.6364C9.21591 47.6932 9.33523 46.8878 9.57386 46.2202C9.81534 45.5497 10.1619 45.0384 10.6136 44.6861C11.0682 44.331 11.6136 44.1534 12.25 44.1534C12.8864 44.1534 13.4304 44.331 13.8821 44.6861C14.3366 45.0384 14.6832 45.5497 14.9219 46.2202C15.1634 46.8878 15.2841 47.6932 15.2841 48.6364C15.2841 49.5852 15.1648 50.3949 14.9261 51.0653C14.6875 51.733 14.3423 52.2429 13.8906 52.5952C13.4389 52.9446 12.892 53.1193 12.25 53.1193ZM12.25 52.1818C12.8864 52.1818 13.3807 51.875 13.733 51.2614C14.0852 50.6477 14.2614 49.7727 14.2614 48.6364C14.2614 47.8807 14.1804 47.2372 14.0185 46.706C13.8594 46.1747 13.6293 45.7699 13.3281 45.4915C13.0298 45.2131 12.6705 45.0739 12.25 45.0739C11.6193 45.0739 11.1264 45.3849 10.7713 46.0071C10.4162 46.6264 10.2386 47.5028 10.2386 48.6364C10.2386 49.392 10.3182 50.0341 10.4773 50.5625C10.6364 51.0909 10.8651 51.4929 11.1634 51.7685C11.4645 52.044 11.8267 52.1818 12.25 52.1818Z" fill="black" fill-opacity="0.4"/>
<path d="M6.90199 84.2727V93H5.84517V85.8068H5.77699C5.73722 85.8864 5.63494 85.9773 5.47017 86.0795C5.3054 86.179 5.09233 86.267 4.83097 86.3438C4.5696 86.4176 4.27131 86.4545 3.93608 86.4545V85.5682C4.27415 85.5682 4.56676 85.5071 4.81392 85.3849C5.06108 85.2628 5.26705 85.1193 5.43182 84.9545C5.59943 84.7898 5.72585 84.6406 5.81108 84.5071C5.89915 84.3736 5.95028 84.2955 5.96449 84.2727H6.90199ZM12.25 93.1193C11.608 93.1193 11.0611 92.9446 10.6094 92.5952C10.1577 92.2429 9.8125 91.733 9.57386 91.0653C9.33523 90.3949 9.21591 89.5852 9.21591 88.6364C9.21591 87.6932 9.33523 86.8878 9.57386 86.2202C9.81534 85.5497 10.1619 85.0384 10.6136 84.6861C11.0682 84.331 11.6136 84.1534 12.25 84.1534C12.8864 84.1534 13.4304 84.331 13.8821 84.6861C14.3366 85.0384 14.6832 85.5497 14.9219 86.2202C15.1634 86.8878 15.2841 87.6932 15.2841 88.6364C15.2841 89.5852 15.1648 90.3949 14.9261 91.0653C14.6875 91.733 14.3423 92.2429 13.8906 92.5952C13.4389 92.9446 12.892 93.1193 12.25 93.1193ZM12.25 92.1818C12.8864 92.1818 13.3807 91.875 13.733 91.2614C14.0852 90.6477 14.2614 89.7727 14.2614 88.6364C14.2614 87.8807 14.1804 87.2372 14.0185 86.706C13.8594 86.1747 13.6293 85.7699 13.3281 85.4915C13.0298 85.2131 12.6705 85.0739 12.25 85.0739C11.6193 85.0739 11.1264 85.3849 10.7713 86.0071C10.4162 86.6264 10.2386 87.5028 10.2386 88.6364C10.2386 89.392 10.3182 90.0341 10.4773 90.5625C10.6364 91.0909 10.8651 91.4929 11.1634 91.7685C11.4645 92.044 11.8267 92.1818 12.25 92.1818Z" fill="black" fill-opacity="0.4"/>
<path d="M12.25 133.119C11.608 133.119 11.0611 132.945 10.6094 132.595C10.1577 132.243 9.8125 131.733 9.57386 131.065C9.33523 130.395 9.21591 129.585 9.21591 128.636C9.21591 127.693 9.33523 126.888 9.57386 126.22C9.81534 125.55 10.1619 125.038 10.6136 124.686C11.0682 124.331 11.6136 124.153 12.25 124.153C12.8864 124.153 13.4304 124.331 13.8821 124.686C14.3366 125.038 14.6832 125.55 14.9219 126.22C15.1634 126.888 15.2841 127.693 15.2841 128.636C15.2841 129.585 15.1648 130.395 14.9261 131.065C14.6875 131.733 14.3423 132.243 13.8906 132.595C13.4389 132.945 12.892 133.119 12.25 133.119ZM12.25 132.182C12.8864 132.182 13.3807 131.875 13.733 131.261C14.0852 130.648 14.2614 129.773 14.2614 128.636C14.2614 127.881 14.1804 127.237 14.0185 126.706C13.8594 126.175 13.6293 125.77 13.3281 125.491C13.0298 125.213 12.6705 125.074 12.25 125.074C11.6193 125.074 11.1264 125.385 10.7713 126.007C10.4162 126.626 10.2386 127.503 10.2386 128.636C10.2386 129.392 10.3182 130.034 10.4773 130.562C10.6364 131.091 10.8651 131.493 11.1634 131.768C11.4645 132.044 11.8267 132.182 12.25 132.182Z" fill="black" fill-opacity="0.4"/>
<line x1="32.5" y1="15.5" x2="456.5" y2="15.5" stroke="black" stroke-opacity="0.05" stroke-linecap="round"/>
<line x1="32.5" y1="56.167" x2="456.5" y2="56.167" stroke="black" stroke-opacity="0.05" stroke-linecap="round"/>
<line x1="32.5" y1="96.833" x2="456.5" y2="96.833" stroke="black" stroke-opacity="0.05" stroke-linecap="round"/>
<line x1="32.5" y1="137.5" x2="456.5" y2="137.5" stroke="black" stroke-opacity="0.2" stroke-linecap="round"/>
<path d="M58.9214 154.696V163H57.8294V156.808L55.0694 163H54.3014L51.5294 156.796V163H50.4374V154.696H51.6134L54.6854 161.56L57.7574 154.696H58.9214ZM63.6413 163.108C63.0253 163.108 62.4653 162.968 61.9613 162.688C61.4653 162.408 61.0733 162.012 60.7853 161.5C60.5053 160.98 60.3653 160.38 60.3653 159.7C60.3653 159.028 60.5093 158.436 60.7973 157.924C61.0933 157.404 61.4933 157.008 61.9973 156.736C62.5013 156.456 63.0653 156.316 63.6893 156.316C64.3133 156.316 64.8773 156.456 65.3813 156.736C65.8853 157.008 66.2813 157.4 66.5693 157.912C66.8653 158.424 67.0133 159.02 67.0133 159.7C67.0133 160.38 66.8613 160.98 66.5573 161.5C66.2613 162.012 65.8573 162.408 65.3453 162.688C64.8333 162.968 64.2653 163.108 63.6413 163.108ZM63.6413 162.148C64.0333 162.148 64.4013 162.056 64.7453 161.872C65.0893 161.688 65.3653 161.412 65.5733 161.044C65.7893 160.676 65.8973 160.228 65.8973 159.7C65.8973 159.172 65.7933 158.724 65.5853 158.356C65.3773 157.988 65.1053 157.716 64.7693 157.54C64.4333 157.356 64.0693 157.264 63.6773 157.264C63.2773 157.264 62.9093 157.356 62.5733 157.54C62.2453 157.716 61.9813 157.988 61.7813 158.356C61.5813 158.724 61.4813 159.172 61.4813 159.7C61.4813 160.236 61.5773 160.688 61.7693 161.056C61.9693 161.424 62.2333 161.7 62.5613 161.884C62.8893 162.06 63.2493 162.148 63.6413 162.148ZM71.6531 156.304C72.4531 156.304 73.1011 156.548 73.5971 157.036C74.0931 157.516 74.3411 158.212 74.3411 159.124V163H73.2611V159.28C73.2611 158.624 73.0971 158.124 72.7691 157.78C72.4411 157.428 71.9931 157.252 71.4251 157.252C70.8491 157.252 70.3891 157.432 70.0451 157.792C69.7091 158.152 69.5411 158.676 69.5411 159.364V163H68.4491V156.424H69.5411V157.36C69.7571 157.024 70.0491 156.764 70.4171 156.58C70.7931 156.396 71.2051 156.304 71.6531 156.304Z" fill="black" fill-opacity="0.4"/>
<path d="M118.338 154.636V155.524H116.058V163H114.966V155.524H112.674V154.636H118.338ZM125.515 156.424V163H124.423V162.028C124.215 162.364 123.923 162.628 123.547 162.82C123.179 163.004 122.771 163.096 122.323 163.096C121.811 163.096 121.351 162.992 120.943 162.784C120.535 162.568 120.211 162.248 119.971 161.824C119.739 161.4 119.623 160.884 119.623 160.276V156.424H120.703V160.132C120.703 160.78 120.867 161.28 121.195 161.632C121.523 161.976 121.971 162.148 122.539 162.148C123.123 162.148 123.583 161.968 123.919 161.608C124.255 161.248 124.423 160.724 124.423 160.036V156.424H125.515ZM133.358 159.46C133.358 159.668 133.346 159.888 133.322 160.12H128.066C128.106 160.768 128.326 161.276 128.726 161.644C129.134 162.004 129.626 162.184 130.202 162.184C130.674 162.184 131.066 162.076 131.378 161.86C131.698 161.636 131.922 161.34 132.05 160.972H133.226C133.05 161.604 132.698 162.12 132.17 162.52C131.642 162.912 130.986 163.108 130.202 163.108C129.578 163.108 129.018 162.968 128.522 162.688C128.034 162.408 127.65 162.012 127.37 161.5C127.09 160.98 126.95 160.38 126.95 159.7C126.95 159.02 127.086 158.424 127.358 157.912C127.63 157.4 128.01 157.008 128.498 156.736C128.994 156.456 129.562 156.316 130.202 156.316C130.826 156.316 131.378 156.452 131.858 156.724C132.338 156.996 132.706 157.372 132.962 157.852C133.226 158.324 133.358 158.86 133.358 159.46ZM132.23 159.232C132.23 158.816 132.138 158.46 131.954 158.164C131.77 157.86 131.518 157.632 131.198 157.48C130.886 157.32 130.538 157.24 130.154 157.24C129.602 157.24 129.13 157.416 128.738 157.768C128.354 158.12 128.134 158.608 128.078 159.232H132.23Z" fill="black" fill-opacity="0.4"/>
<path d="M181.593 154.636L179.169 163H177.945L176.001 156.268L173.985 163L172.773 163.012L170.433 154.636H171.597L173.421 161.728L175.437 154.636H176.661L178.581 161.704L180.417 154.636H181.593ZM188.788 159.46C188.788 159.668 188.776 159.888 188.752 160.12H183.496C183.536 160.768 183.756 161.276 184.156 161.644C184.564 162.004 185.056 162.184 185.632 162.184C186.104 162.184 186.496 162.076 186.808 161.86C187.128 161.636 187.352 161.34 187.48 160.972H188.656C188.48 161.604 188.128 162.12 187.6 162.52C187.072 162.912 186.416 163.108 185.632 163.108C185.008 163.108 184.448 162.968 183.952 162.688C183.464 162.408 183.08 162.012 182.8 161.5C182.52 160.98 182.38 160.38 182.38 159.7C182.38 159.02 182.516 158.424 182.788 157.912C183.06 157.4 183.44 157.008 183.928 156.736C184.424 156.456 184.992 156.316 185.632 156.316C186.256 156.316 186.808 156.452 187.288 156.724C187.768 156.996 188.136 157.372 188.392 157.852C188.656 158.324 188.788 158.86 188.788 159.46ZM187.66 159.232C187.66 158.816 187.568 158.46 187.384 158.164C187.2 157.86 186.948 157.632 186.628 157.48C186.316 157.32 185.968 157.24 185.584 157.24C185.032 157.24 184.56 157.416 184.168 157.768C183.784 158.12 183.564 158.608 183.508 159.232H187.66ZM189.821 159.688C189.821 159.016 189.957 158.428 190.229 157.924C190.501 157.412 190.873 157.016 191.345 156.736C191.825 156.456 192.361 156.316 192.953 156.316C193.465 156.316 193.941 156.436 194.381 156.676C194.821 156.908 195.157 157.216 195.389 157.6V154.12H196.493V163H195.389V161.764C195.173 162.156 194.853 162.48 194.429 162.736C194.005 162.984 193.509 163.108 192.941 163.108C192.357 163.108 191.825 162.964 191.345 162.676C190.873 162.388 190.501 161.984 190.229 161.464C189.957 160.944 189.821 160.352 189.821 159.688ZM195.389 159.7C195.389 159.204 195.289 158.772 195.089 158.404C194.889 158.036 194.617 157.756 194.273 157.564C193.937 157.364 193.565 157.264 193.157 157.264C192.749 157.264 192.377 157.36 192.041 157.552C191.705 157.744 191.437 158.024 191.237 158.392C191.037 158.76 190.937 159.192 190.937 159.688C190.937 160.192 191.037 160.632 191.237 161.008C191.437 161.376 191.705 161.66 192.041 161.86C192.377 162.052 192.749 162.148 193.157 162.148C193.565 162.148 193.937 162.052 194.273 161.86C194.617 161.66 194.889 161.376 195.089 161.008C195.289 160.632 195.389 160.196 195.389 159.7Z" fill="black" fill-opacity="0.4"/>
<path d="M239.65 154.636V155.524H237.37V163H236.278V155.524H233.986V154.636H239.65ZM244.258 156.304C244.754 156.304 245.202 156.412 245.602 156.628C246.002 156.836 246.314 157.152 246.538 157.576C246.77 158 246.886 158.516 246.886 159.124V163H245.806V159.28C245.806 158.624 245.642 158.124 245.314 157.78C244.986 157.428 244.538 157.252 243.97 157.252C243.394 157.252 242.934 157.432 242.59 157.792C242.254 158.152 242.086 158.676 242.086 159.364V163H240.994V154.12H242.086V157.36C242.302 157.024 242.598 156.764 242.974 156.58C243.358 156.396 243.786 156.304 244.258 156.304ZM254.502 156.424V163H253.41V162.028C253.202 162.364 252.91 162.628 252.534 162.82C252.166 163.004 251.758 163.096 251.31 163.096C250.798 163.096 250.338 162.992 249.93 162.784C249.522 162.568 249.198 162.248 248.958 161.824C248.726 161.4 248.61 160.884 248.61 160.276V156.424H249.69V160.132C249.69 160.78 249.854 161.28 250.182 161.632C250.51 161.976 250.958 162.148 251.526 162.148C252.11 162.148 252.57 161.968 252.906 161.608C253.242 161.248 253.41 160.724 253.41 160.036V156.424H254.502Z" fill="black" fill-opacity="0.4"/>
<path d="M304.128 154.636V155.524H300.492V158.344H303.444V159.232H300.492V163H299.4V154.636H304.128ZM306.539 157.492C306.731 157.116 307.003 156.824 307.355 156.616C307.715 156.408 308.151 156.304 308.663 156.304V157.432H308.375C307.151 157.432 306.539 158.096 306.539 159.424V163H305.447V156.424H306.539V157.492ZM310.488 155.356C310.28 155.356 310.104 155.284 309.96 155.14C309.816 154.996 309.744 154.82 309.744 154.612C309.744 154.404 309.816 154.228 309.96 154.084C310.104 153.94 310.28 153.868 310.488 153.868C310.688 153.868 310.856 153.94 310.992 154.084C311.136 154.228 311.208 154.404 311.208 154.612C311.208 154.82 311.136 154.996 310.992 155.14C310.856 155.284 310.688 155.356 310.488 155.356ZM311.016 156.424V163H309.924V156.424H311.016Z" fill="black" fill-opacity="0.4"/>
<path d="M359.743 163.084C359.191 163.084 358.695 162.988 358.255 162.796C357.823 162.596 357.483 162.324 357.235 161.98C356.987 161.628 356.859 161.224 356.851 160.768H358.015C358.055 161.16 358.215 161.492 358.495 161.764C358.783 162.028 359.199 162.16 359.743 162.16C360.263 162.16 360.671 162.032 360.967 161.776C361.271 161.512 361.423 161.176 361.423 160.768C361.423 160.448 361.335 160.188 361.159 159.988C360.983 159.788 360.763 159.636 360.499 159.532C360.235 159.428 359.879 159.316 359.431 159.196C358.879 159.052 358.435 158.908 358.099 158.764C357.771 158.62 357.487 158.396 357.247 158.092C357.015 157.78 356.899 157.364 356.899 156.844C356.899 156.388 357.015 155.984 357.247 155.632C357.479 155.28 357.803 155.008 358.219 154.816C358.643 154.624 359.127 154.528 359.671 154.528C360.455 154.528 361.095 154.724 361.591 155.116C362.095 155.508 362.379 156.028 362.443 156.676H361.243C361.203 156.356 361.035 156.076 360.739 155.836C360.443 155.588 360.051 155.464 359.563 155.464C359.107 155.464 358.735 155.584 358.447 155.824C358.159 156.056 358.015 156.384 358.015 156.808C358.015 157.112 358.099 157.36 358.267 157.552C358.443 157.744 358.655 157.892 358.903 157.996C359.159 158.092 359.515 158.204 359.971 158.332C360.523 158.484 360.967 158.636 361.303 158.788C361.639 158.932 361.927 159.16 362.167 159.472C362.407 159.776 362.527 160.192 362.527 160.72C362.527 161.128 362.419 161.512 362.203 161.872C361.987 162.232 361.667 162.524 361.243 162.748C360.819 162.972 360.319 163.084 359.743 163.084ZM363.726 159.688C363.726 159.016 363.862 158.428 364.134 157.924C364.406 157.412 364.778 157.016 365.25 156.736C365.73 156.456 366.262 156.316 366.846 156.316C367.422 156.316 367.922 156.44 368.346 156.688C368.77 156.936 369.086 157.248 369.294 157.624V156.424H370.398V163H369.294V161.776C369.078 162.16 368.754 162.48 368.322 162.736C367.898 162.984 367.402 163.108 366.834 163.108C366.25 163.108 365.722 162.964 365.25 162.676C364.778 162.388 364.406 161.984 364.134 161.464C363.862 160.944 363.726 160.352 363.726 159.688ZM369.294 159.7C369.294 159.204 369.194 158.772 368.994 158.404C368.794 158.036 368.522 157.756 368.178 157.564C367.842 157.364 367.47 157.264 367.062 157.264C366.654 157.264 366.282 157.36 365.946 157.552C365.61 157.744 365.342 158.024 365.142 158.392C364.942 158.76 364.842 159.192 364.842 159.688C364.842 160.192 364.942 160.632 365.142 161.008C365.342 161.376 365.61 161.66 365.946 161.86C366.282 162.052 366.654 162.148 367.062 162.148C367.47 162.148 367.842 162.052 368.178 161.86C368.522 161.66 368.794 161.376 368.994 161.008C369.194 160.632 369.294 160.196 369.294 159.7ZM373.575 157.324V161.2C373.575 161.52 373.643 161.748 373.779 161.884C373.915 162.012 374.151 162.076 374.487 162.076H375.291V163H374.307C373.699 163 373.243 162.86 372.939 162.58C372.635 162.3 372.483 161.84 372.483 161.2V157.324H371.631V156.424H372.483V154.768H373.575V156.424H375.291V157.324H373.575Z" fill="black" fill-opacity="0.4"/>
<path d="M419.022 163.084C418.47 163.084 417.974 162.988 417.534 162.796C417.102 162.596 416.762 162.324 416.514 161.98C416.266 161.628 416.138 161.224 416.13 160.768H417.294C417.334 161.16 417.494 161.492 417.774 161.764C418.062 162.028 418.478 162.16 419.022 162.16C419.542 162.16 419.95 162.032 420.246 161.776C420.55 161.512 420.702 161.176 420.702 160.768C420.702 160.448 420.614 160.188 420.438 159.988C420.262 159.788 420.042 159.636 419.778 159.532C419.514 159.428 419.158 159.316 418.71 159.196C418.158 159.052 417.714 158.908 417.378 158.764C417.05 158.62 416.766 158.396 416.526 158.092C416.294 157.78 416.178 157.364 416.178 156.844C416.178 156.388 416.294 155.984 416.526 155.632C416.758 155.28 417.082 155.008 417.498 154.816C417.922 154.624 418.406 154.528 418.95 154.528C419.734 154.528 420.374 154.724 420.87 155.116C421.374 155.508 421.658 156.028 421.722 156.676H420.522C420.482 156.356 420.314 156.076 420.018 155.836C419.722 155.588 419.33 155.464 418.842 155.464C418.386 155.464 418.014 155.584 417.726 155.824C417.438 156.056 417.294 156.384 417.294 156.808C417.294 157.112 417.378 157.36 417.546 157.552C417.722 157.744 417.934 157.892 418.182 157.996C418.438 158.092 418.794 158.204 419.25 158.332C419.802 158.484 420.246 158.636 420.582 158.788C420.918 158.932 421.206 159.16 421.446 159.472C421.686 159.776 421.806 160.192 421.806 160.72C421.806 161.128 421.698 161.512 421.482 161.872C421.266 162.232 420.946 162.524 420.522 162.748C420.098 162.972 419.598 163.084 419.022 163.084ZM429.245 156.424V163H428.153V162.028C427.945 162.364 427.653 162.628 427.277 162.82C426.909 163.004 426.501 163.096 426.053 163.096C425.541 163.096 425.081 162.992 424.673 162.784C424.265 162.568 423.941 162.248 423.701 161.824C423.469 161.4 423.353 160.884 423.353 160.276V156.424H424.433V160.132C424.433 160.78 424.597 161.28 424.925 161.632C425.253 161.976 425.701 162.148 426.269 162.148C426.853 162.148 427.313 161.968 427.649 161.608C427.985 161.248 428.153 160.724 428.153 160.036V156.424H429.245ZM434.293 156.304C435.093 156.304 435.741 156.548 436.237 157.036C436.733 157.516 436.981 158.212 436.981 159.124V163H435.901V159.28C435.901 158.624 435.737 158.124 435.409 157.78C435.081 157.428 434.633 157.252 434.065 157.252C433.489 157.252 433.029 157.432 432.685 157.792C432.349 158.152 432.181 158.676 432.181 159.364V163H431.089V156.424H432.181V157.36C432.397 157.024 432.689 156.764 433.057 156.58C433.433 156.396 433.845 156.304 434.293 156.304Z" fill="black" fill-opacity="0.4"/>
<g opacity="0.5">
<path d="M53 73C53 70.7909 54.7909 69 57 69H67C69.2091 69 71 70.7909 71 73V137H53V73Z" fill="#A9E9FF"/>
<path d="M113.714 60C113.714 57.7909 115.505 56 117.714 56H127.714C129.923 56 131.714 57.7909 131.714 60V137H113.714V60Z" fill="#A9E9FF"/>
<path d="M174.429 70C174.429 67.7909 176.22 66 178.429 66H188.429C190.638 66 192.429 67.7909 192.429 70V137H174.429V70Z" fill="#A9E9FF"/>
<path d="M235.143 21C235.143 18.7909 236.933 17 239.143 17H249.143C251.352 17 253.143 18.7909 253.143 21V137H235.143V21Z" fill="#A9E9FF"/>
<path d="M295.857 106C295.857 103.791 297.648 102 299.857 102H309.857C312.067 102 313.857 103.791 313.857 106V137H295.857V106Z" fill="#A9E9FF"/>
<path d="M356.571 53C356.571 50.7909 358.362 49 360.571 49H370.571C372.78 49 374.571 50.7909 374.571 53V137H356.571V53Z" fill="#A9E9FF"/>
<path d="M417.286 53C417.286 50.7909 419.077 49 421.286 49H431.286C433.495 49 435.286 50.7909 435.286 53V137H417.286V53Z" fill="#A9E9FF"/>
</g>
<path d="M53 86H71V137H53V86Z" fill="#FFCBA2"/>
<path d="M113.714 72H131.714V137H113.714V72Z" fill="#FFCBA2"/>
<path d="M174.429 82H192.429V137H174.429V82Z" fill="#FFCBA2"/>
<path d="M235.143 34H253.143V137H235.143V34Z" fill="#FFCBA2"/>
<path d="M295.857 115H313.857V137H295.857V115Z" fill="#FFCBA2"/>
<path d="M356.571 66H374.571V137H356.571V66Z" fill="#FFCBA2"/>
<path d="M417.286 66H435.286V137H417.286V66Z" fill="#FFCBA2"/>
</svg>
