<svg width="24" height="24" viewBox="0 0 24 24" fill="none" xmlns="http://www.w3.org/2000/svg">
<rect width="24" height="24" rx="8" fill="#E5ECF6"/>
<path fill-rule="evenodd" clip-rule="evenodd" d="M12.0001 9.49976C12.0001 9.49976 13.0356 9.49976 13.7678 10.232C13.7678 10.232 14.5001 10.9642 14.5001 11.9998C14.5001 11.9998 14.5001 13.0353 13.7678 13.7675C13.7678 13.7675 13.0356 14.4998 12.0001 14.4998C12.0001 14.4998 10.9645 14.4998 10.2323 13.7675C10.2323 13.7675 9.50006 13.0353 9.50006 11.9998C9.50006 11.9998 9.50006 10.9642 10.2323 10.232C10.2323 10.232 10.9645 9.49976 12.0001 9.49976ZM12.0001 10.4998C12.0001 10.4998 11.3787 10.4998 10.9394 10.9391C10.9394 10.9391 10.5001 11.3784 10.5001 11.9998C10.5001 11.9998 10.5001 12.6211 10.9394 13.0604C10.9394 13.0604 11.3787 13.4998 12.0001 13.4998C12.0001 13.4998 12.6214 13.4998 13.0607 13.0604C13.0607 13.0604 13.5001 12.6211 13.5001 11.9998C13.5001 11.9998 13.5001 11.3784 13.0607 10.9391C13.0607 10.9391 12.6214 10.4998 12.0001 10.4998Z" fill="#1C1C1C"/>
<path d="M9.17217 9.17223C9.26593 9.07846 9.31881 8.95109 9.31881 8.81848C9.31881 8.68597 9.2662 8.55888 9.17256 8.46512C9.07879 8.37136 8.95142 8.31848 8.81881 8.31848C8.68629 8.31848 8.5592 8.37108 8.46545 8.46473C7.77418 9.15524 7.39541 10.0559 7.39541 10.0559C6.99994 10.9866 6.99994 11.9997 6.99994 11.9997C6.99994 13.0128 7.39613 13.9453 7.39613 13.9453C7.77418 14.8442 8.46545 15.5347 8.46545 15.5347C8.5592 15.6284 8.6863 15.681 8.81881 15.681C8.95142 15.6809 9.07884 15.6282 9.17256 15.5343C9.2662 15.4406 9.31881 15.3135 9.31881 15.181C9.31873 15.0484 9.26599 14.9209 9.17217 14.8272C8.61984 14.2755 8.31649 13.5542 8.31649 13.5542C7.99994 12.8092 7.99994 11.9997 7.99994 11.9997C7.99994 11.1903 8.31721 10.4436 8.31721 10.4436C8.61985 9.72394 9.17217 9.17223 9.17217 9.17223Z" fill="#1C1C1C"/>
<path d="M15.5349 8.46493C16.226 9.15537 16.604 10.0542 16.604 10.0542C17.0002 10.9866 17.0002 11.9997 17.0002 11.9997C17.0002 13.0128 16.6047 13.9436 16.6047 13.9436C16.2259 14.8442 15.5347 15.5347 15.5347 15.5347C15.4472 15.6221 15.3304 15.674 15.2069 15.6803C15.1984 15.6808 15.1898 15.681 15.1813 15.681C15.0486 15.681 14.9213 15.6282 14.8276 15.5343C14.7397 15.4464 14.6878 15.3289 14.6819 15.2047C14.6815 15.1968 14.6813 15.1889 14.6813 15.181C14.6814 15.0484 14.7341 14.9209 14.8279 14.8272C15.3803 14.2755 15.6829 13.5559 15.6829 13.5559C16.0002 12.8092 16.0002 11.9997 16.0002 11.9997C16.0002 11.1903 15.6836 10.4453 15.6836 10.4453C15.3803 9.72394 14.8279 9.17223 14.8279 9.17223C14.7341 9.07845 14.6813 8.95119 14.6813 8.81848C14.6813 8.68699 14.7331 8.5608 14.8255 8.46722L14.8276 8.46512C14.9104 8.38222 15.0197 8.33103 15.1364 8.3205C15.1512 8.31916 15.1661 8.31849 15.181 8.31848C15.3114 8.31848 15.4369 8.3694 15.5303 8.46038L15.5349 8.46493Z" fill="#1C1C1C"/>
<path d="M7.4036 7.40336L7.40588 7.40106C7.49825 7.30749 7.55005 7.18129 7.55005 7.0498C7.55005 6.91704 7.49724 6.78972 7.40328 6.69593L7.399 6.6917C7.30563 6.60072 7.18042 6.5498 7.05005 6.5498C7.0352 6.54982 7.01991 6.55049 7.00512 6.55183C6.88835 6.56236 6.779 6.6136 6.69617 6.69658C5.66247 7.73227 5.08988 9.07924 5.08988 9.07924C4.5 10.4809 4.5 11.9998 4.5 11.9998C4.5 13.5187 5.0892 14.9188 5.0892 14.9188C5.66229 16.2673 6.69617 17.303 6.69617 17.303C6.78985 17.3969 6.91698 17.4497 7.04959 17.4498C7.05744 17.4498 7.06576 17.4496 7.07361 17.4492C7.19777 17.4434 7.3153 17.3915 7.40328 17.3037C7.49724 17.2099 7.55005 17.0826 7.55005 16.9498C7.55005 16.9413 7.54983 16.9329 7.5494 16.9244C7.54312 16.8009 7.49129 16.6841 7.40393 16.5966C6.50687 15.6979 6.0109 14.5309 6.0109 14.5309C5.5 13.3169 5.5 11.9998 5.5 11.9998C5.5 10.6827 6.01022 9.47037 6.01022 9.47037C6.50678 8.30195 7.4036 7.40336 7.4036 7.40336Z" fill="#1C1C1C"/>
<path d="M17.3043 6.69688L17.3036 6.69625C17.21 6.6026 17.083 6.54993 16.9505 6.5498C16.8181 6.5498 16.6906 6.60236 16.5968 6.69593C16.5031 6.78969 16.4501 6.9172 16.4501 7.0498C16.4501 7.18225 16.5026 7.30929 16.5962 7.40303C17.4932 8.30174 17.9892 9.46875 17.9892 9.46875C18.5001 10.6827 18.5001 11.9998 18.5001 11.9998C18.5001 13.3169 17.9899 14.5292 17.9899 14.5292C17.4932 15.6979 16.5962 16.5966 16.5962 16.5966C16.5026 16.6903 16.4501 16.8174 16.4501 16.9498C16.4502 17.0824 16.503 17.21 16.5968 17.3037C16.6906 17.3973 16.8176 17.4498 16.9501 17.4498C17.0827 17.4497 17.2103 17.3969 17.304 17.303C18.3378 16.2673 18.9102 14.9204 18.9102 14.9204C19.5001 13.5187 19.5001 11.9998 19.5001 11.9998C19.5001 10.4809 18.9109 9.08085 18.9109 9.08085C18.3379 7.73255 17.3043 6.69688 17.3043 6.69688Z" fill="#1C1C1C"/>
</svg>
