<svg width="990" height="50" viewBox="0 0 990 50" fill="none" xmlns="http://www.w3.org/2000/svg">
<rect width="812" height="50" rx="8" fill="white"/>
<path opacity="0.3" d="M92.0395 30.778C91.3035 30.778 90.6422 30.65 90.0555 30.394C89.4795 30.1273 89.0262 29.7647 88.6955 29.306C88.3648 28.8367 88.1942 28.298 88.1835 27.69H89.7355C89.7888 28.2127 90.0022 28.6553 90.3755 29.018C90.7595 29.37 91.3142 29.546 92.0395 29.546C92.7328 29.546 93.2768 29.3753 93.6715 29.034C94.0768 28.682 94.2795 28.234 94.2795 27.69C94.2795 27.2633 94.1622 26.9167 93.9275 26.65C93.6928 26.3833 93.3995 26.1807 93.0475 26.042C92.6955 25.9033 92.2208 25.754 91.6235 25.594C90.8875 25.402 90.2955 25.21 89.8475 25.018C89.4102 24.826 89.0315 24.5273 88.7115 24.122C88.4022 23.706 88.2475 23.1513 88.2475 22.458C88.2475 21.85 88.4022 21.3113 88.7115 20.842C89.0208 20.3727 89.4528 20.01 90.0075 19.754C90.5728 19.498 91.2182 19.37 91.9435 19.37C92.9888 19.37 93.8422 19.6313 94.5035 20.154C95.1755 20.6767 95.5542 21.37 95.6395 22.234H94.0395C93.9862 21.8073 93.7622 21.434 93.3675 21.114C92.9728 20.7833 92.4502 20.618 91.7995 20.618C91.1915 20.618 90.6955 20.778 90.3115 21.098C89.9275 21.4073 89.7355 21.8447 89.7355 22.41C89.7355 22.8153 89.8475 23.146 90.0715 23.402C90.3062 23.658 90.5888 23.8553 90.9195 23.994C91.2608 24.122 91.7355 24.2713 92.3435 24.442C93.0795 24.6447 93.6715 24.8473 94.1195 25.05C94.5675 25.242 94.9515 25.546 95.2715 25.962C95.5915 26.3673 95.7515 26.922 95.7515 27.626C95.7515 28.17 95.6075 28.682 95.3195 29.162C95.0315 29.642 94.6048 30.0313 94.0395 30.33C93.4742 30.6287 92.8075 30.778 92.0395 30.778ZM106.134 25.946C106.134 26.2233 106.118 26.5167 106.086 26.826H99.0781C99.1314 27.69 99.4248 28.3673 99.9581 28.858C100.502 29.338 101.158 29.578 101.926 29.578C102.555 29.578 103.078 29.434 103.494 29.146C103.921 28.8473 104.219 28.4527 104.39 27.962H105.958C105.723 28.8047 105.254 29.4927 104.55 30.026C103.846 30.5487 102.971 30.81 101.926 30.81C101.094 30.81 100.347 30.6233 99.6861 30.25C99.0354 29.8767 98.5234 29.3487 98.1501 28.666C97.7768 27.9727 97.5901 27.1727 97.5901 26.266C97.5901 25.3593 97.7714 24.5647 98.1341 23.882C98.4968 23.1993 99.0034 22.6767 99.6541 22.314C100.315 21.9407 101.073 21.754 101.926 21.754C102.758 21.754 103.494 21.9353 104.134 22.298C104.774 22.6607 105.265 23.162 105.606 23.802C105.958 24.4313 106.134 25.146 106.134 25.946ZM104.63 25.642C104.63 25.0873 104.507 24.6127 104.262 24.218C104.017 23.8127 103.681 23.5087 103.254 23.306C102.838 23.0927 102.374 22.986 101.862 22.986C101.126 22.986 100.497 23.2207 99.9741 23.69C99.4621 24.1593 99.1688 24.81 99.0941 25.642H104.63ZM107.752 26.25C107.752 25.354 107.933 24.57 108.296 23.898C108.659 23.2153 109.155 22.6873 109.784 22.314C110.424 21.9407 111.133 21.754 111.912 21.754C112.68 21.754 113.347 21.9193 113.912 22.25C114.477 22.5807 114.899 22.9967 115.176 23.498V21.898H116.648V30.666H115.176V29.034C114.888 29.546 114.456 29.9727 113.88 30.314C113.315 30.6447 112.653 30.81 111.896 30.81C111.117 30.81 110.413 30.618 109.784 30.234C109.155 29.85 108.659 29.3113 108.296 28.618C107.933 27.9247 107.752 27.1353 107.752 26.25ZM115.176 26.266C115.176 25.6047 115.043 25.0287 114.776 24.538C114.509 24.0473 114.147 23.674 113.688 23.418C113.24 23.1513 112.744 23.018 112.2 23.018C111.656 23.018 111.16 23.146 110.712 23.402C110.264 23.658 109.907 24.0313 109.64 24.522C109.373 25.0127 109.24 25.5887 109.24 26.25C109.24 26.922 109.373 27.5087 109.64 28.01C109.907 28.5007 110.264 28.8793 110.712 29.146C111.16 29.402 111.656 29.53 112.2 29.53C112.744 29.53 113.24 29.402 113.688 29.146C114.147 28.8793 114.509 28.5007 114.776 28.01C115.043 27.5087 115.176 26.9273 115.176 26.266ZM120.804 23.322C121.06 22.8207 121.423 22.4313 121.892 22.154C122.372 21.8767 122.954 21.738 123.636 21.738V23.242H123.252C121.62 23.242 120.804 24.1273 120.804 25.898V30.666H119.348V21.898H120.804V23.322ZM125.013 26.266C125.013 25.3593 125.195 24.57 125.557 23.898C125.92 23.2153 126.421 22.6873 127.061 22.314C127.712 21.9407 128.453 21.754 129.285 21.754C130.363 21.754 131.248 22.0153 131.941 22.538C132.645 23.0607 133.109 23.786 133.333 24.714H131.765C131.616 24.1807 131.323 23.7593 130.885 23.45C130.459 23.1407 129.925 22.986 129.285 22.986C128.453 22.986 127.781 23.274 127.269 23.85C126.757 24.4153 126.501 25.2207 126.501 26.266C126.501 27.322 126.757 28.138 127.269 28.714C127.781 29.29 128.453 29.578 129.285 29.578C129.925 29.578 130.459 29.4287 130.885 29.13C131.312 28.8313 131.605 28.4047 131.765 27.85H133.333C133.099 28.746 132.629 29.466 131.925 30.01C131.221 30.5433 130.341 30.81 129.285 30.81C128.453 30.81 127.712 30.6233 127.061 30.25C126.421 29.8767 125.92 29.3487 125.557 28.666C125.195 27.9833 125.013 27.1833 125.013 26.266ZM139.868 21.738C140.529 21.738 141.127 21.882 141.66 22.17C142.193 22.4473 142.609 22.8687 142.908 23.434C143.217 23.9993 143.372 24.6873 143.372 25.498V30.666H141.932V25.706C141.932 24.8313 141.713 24.1647 141.276 23.706C140.839 23.2367 140.241 23.002 139.484 23.002C138.716 23.002 138.103 23.242 137.644 23.722C137.196 24.202 136.972 24.9007 136.972 25.818V30.666H135.516V18.826H136.972V23.146C137.26 22.698 137.655 22.3513 138.156 22.106C138.668 21.8607 139.239 21.738 139.868 21.738ZM154.064 23.098H152.224V30.666H150.768V23.098H149.632V21.898H150.768V21.274C150.768 20.2927 151.019 19.578 151.52 19.13C152.032 18.6713 152.848 18.442 153.968 18.442V19.658C153.328 19.658 152.875 19.786 152.608 20.042C152.352 20.2873 152.224 20.698 152.224 21.274V21.898H154.064V23.098ZM159.826 30.81C159.004 30.81 158.258 30.6233 157.586 30.25C156.924 29.8767 156.402 29.3487 156.018 28.666C155.644 27.9727 155.458 27.1727 155.458 26.266C155.458 25.37 155.65 24.5807 156.034 23.898C156.428 23.2047 156.962 22.6767 157.634 22.314C158.306 21.9407 159.058 21.754 159.89 21.754C160.722 21.754 161.474 21.9407 162.146 22.314C162.818 22.6767 163.346 23.1993 163.73 23.882C164.124 24.5647 164.322 25.3593 164.322 26.266C164.322 27.1727 164.119 27.9727 163.714 28.666C163.319 29.3487 162.78 29.8767 162.098 30.25C161.415 30.6233 160.658 30.81 159.826 30.81ZM159.826 29.53C160.348 29.53 160.839 29.4073 161.298 29.162C161.756 28.9167 162.124 28.5487 162.402 28.058C162.69 27.5673 162.834 26.97 162.834 26.266C162.834 25.562 162.695 24.9647 162.418 24.474C162.14 23.9833 161.778 23.6207 161.33 23.386C160.882 23.1407 160.396 23.018 159.874 23.018C159.34 23.018 158.85 23.1407 158.402 23.386C157.964 23.6207 157.612 23.9833 157.346 24.474C157.079 24.9647 156.946 25.562 156.946 26.266C156.946 26.9807 157.074 27.5833 157.33 28.074C157.596 28.5647 157.948 28.9327 158.386 29.178C158.823 29.4127 159.303 29.53 159.826 29.53ZM167.932 23.322C168.188 22.8207 168.551 22.4313 169.02 22.154C169.5 21.8767 170.081 21.738 170.764 21.738V23.242H170.38C168.748 23.242 167.932 24.1273 167.932 25.898V30.666H166.476V21.898H167.932V23.322ZM177.942 20.474C177.665 20.474 177.43 20.378 177.238 20.186C177.046 19.994 176.95 19.7593 176.95 19.482C176.95 19.2047 177.046 18.97 177.238 18.778C177.43 18.586 177.665 18.49 177.942 18.49C178.209 18.49 178.433 18.586 178.614 18.778C178.806 18.97 178.902 19.2047 178.902 19.482C178.902 19.7593 178.806 19.994 178.614 20.186C178.433 20.378 178.209 20.474 177.942 20.474ZM178.646 21.898V30.666H177.19V21.898H178.646ZM185.64 21.738C186.707 21.738 187.571 22.0633 188.232 22.714C188.893 23.354 189.224 24.282 189.224 25.498V30.666H187.784V25.706C187.784 24.8313 187.565 24.1647 187.128 23.706C186.691 23.2367 186.093 23.002 185.336 23.002C184.568 23.002 183.955 23.242 183.496 23.722C183.048 24.202 182.824 24.9007 182.824 25.818V30.666H181.368V21.898H182.824V23.146C183.112 22.698 183.501 22.3513 183.992 22.106C184.493 21.8607 185.043 21.738 185.64 21.738ZM194.946 30.81C194.274 30.81 193.672 30.698 193.138 30.474C192.605 30.2393 192.184 29.9193 191.874 29.514C191.565 29.098 191.394 28.6233 191.362 28.09H192.866C192.909 28.5273 193.112 28.8847 193.474 29.162C193.848 29.4393 194.333 29.578 194.93 29.578C195.485 29.578 195.922 29.4553 196.242 29.21C196.562 28.9647 196.722 28.6553 196.722 28.282C196.722 27.898 196.552 27.6153 196.21 27.434C195.869 27.242 195.341 27.0553 194.626 26.874C193.976 26.7033 193.442 26.5327 193.026 26.362C192.621 26.1807 192.269 25.9193 191.97 25.578C191.682 25.226 191.538 24.7673 191.538 24.202C191.538 23.754 191.672 23.3433 191.938 22.97C192.205 22.5967 192.584 22.3033 193.074 22.09C193.565 21.866 194.125 21.754 194.754 21.754C195.725 21.754 196.509 21.9993 197.106 22.49C197.704 22.9807 198.024 23.6527 198.066 24.506H196.61C196.578 24.0473 196.392 23.6793 196.05 23.402C195.72 23.1247 195.272 22.986 194.706 22.986C194.184 22.986 193.768 23.098 193.458 23.322C193.149 23.546 192.994 23.8393 192.994 24.202C192.994 24.49 193.085 24.73 193.266 24.922C193.458 25.1033 193.693 25.2527 193.97 25.37C194.258 25.4767 194.653 25.5993 195.154 25.738C195.784 25.9087 196.296 26.0793 196.69 26.25C197.085 26.41 197.421 26.6553 197.698 26.986C197.986 27.3167 198.136 27.7487 198.146 28.282C198.146 28.762 198.013 29.194 197.746 29.578C197.48 29.962 197.101 30.266 196.61 30.49C196.13 30.7033 195.576 30.81 194.946 30.81ZM202.218 23.098V28.266C202.218 28.6927 202.308 28.9967 202.49 29.178C202.671 29.3487 202.986 29.434 203.434 29.434H204.506V30.666H203.194C202.383 30.666 201.775 30.4793 201.37 30.106C200.964 29.7327 200.762 29.1193 200.762 28.266V23.098H199.626V21.898H200.762V19.69H202.218V21.898H204.506V23.098H202.218ZM207.262 20.474C206.984 20.474 206.75 20.378 206.558 20.186C206.366 19.994 206.27 19.7593 206.27 19.482C206.27 19.2047 206.366 18.97 206.558 18.778C206.75 18.586 206.984 18.49 207.262 18.49C207.528 18.49 207.752 18.586 207.934 18.778C208.126 18.97 208.222 19.2047 208.222 19.482C208.222 19.7593 208.126 19.994 207.934 20.186C207.752 20.378 207.528 20.474 207.262 20.474ZM207.966 21.898V30.666H206.51V21.898H207.966ZM212.463 23.098V28.266C212.463 28.6927 212.554 28.9967 212.735 29.178C212.917 29.3487 213.231 29.434 213.679 29.434H214.751V30.666H213.439C212.629 30.666 212.021 30.4793 211.615 30.106C211.21 29.7327 211.007 29.1193 211.007 28.266V23.098H209.871V21.898H211.007V19.69H212.463V21.898H214.751V23.098H212.463ZM224.531 21.898V30.666H223.075V29.37C222.798 29.818 222.409 30.17 221.907 30.426C221.417 30.6713 220.873 30.794 220.275 30.794C219.593 30.794 218.979 30.6553 218.435 30.378C217.891 30.09 217.459 29.6633 217.139 29.098C216.83 28.5327 216.675 27.8447 216.675 27.034V21.898H218.115V26.842C218.115 27.706 218.334 28.3727 218.771 28.842C219.209 29.3007 219.806 29.53 220.563 29.53C221.342 29.53 221.955 29.29 222.403 28.81C222.851 28.33 223.075 27.6313 223.075 26.714V21.898H224.531ZM229.006 23.098V28.266C229.006 28.6927 229.096 28.9967 229.278 29.178C229.459 29.3487 229.774 29.434 230.222 29.434H231.294V30.666H229.982C229.171 30.666 228.563 30.4793 228.158 30.106C227.752 29.7327 227.55 29.1193 227.55 28.266V23.098H226.414V21.898H227.55V19.69H229.006V21.898H231.294V23.098H229.006ZM234.05 20.474C233.773 20.474 233.538 20.378 233.346 20.186C233.154 19.994 233.058 19.7593 233.058 19.482C233.058 19.2047 233.154 18.97 233.346 18.778C233.538 18.586 233.773 18.49 234.05 18.49C234.317 18.49 234.541 18.586 234.722 18.778C234.914 18.97 235.01 19.2047 235.01 19.482C235.01 19.7593 234.914 19.994 234.722 20.186C234.541 20.378 234.317 20.474 234.05 20.474ZM234.754 21.898V30.666H233.298V21.898H234.754ZM241.299 30.81C240.478 30.81 239.731 30.6233 239.059 30.25C238.398 29.8767 237.875 29.3487 237.491 28.666C237.118 27.9727 236.931 27.1727 236.931 26.266C236.931 25.37 237.123 24.5807 237.507 23.898C237.902 23.2047 238.435 22.6767 239.107 22.314C239.779 21.9407 240.531 21.754 241.363 21.754C242.195 21.754 242.947 21.9407 243.619 22.314C244.291 22.6767 244.819 23.1993 245.203 23.882C245.598 24.5647 245.795 25.3593 245.795 26.266C245.795 27.1727 245.593 27.9727 245.187 28.666C244.793 29.3487 244.254 29.8767 243.571 30.25C242.889 30.6233 242.131 30.81 241.299 30.81ZM241.299 29.53C241.822 29.53 242.313 29.4073 242.771 29.162C243.23 28.9167 243.598 28.5487 243.875 28.058C244.163 27.5673 244.307 26.97 244.307 26.266C244.307 25.562 244.169 24.9647 243.891 24.474C243.614 23.9833 243.251 23.6207 242.803 23.386C242.355 23.1407 241.87 23.018 241.347 23.018C240.814 23.018 240.323 23.1407 239.875 23.386C239.438 23.6207 239.086 23.9833 238.819 24.474C238.553 24.9647 238.419 25.562 238.419 26.266C238.419 26.9807 238.547 27.5833 238.803 28.074C239.07 28.5647 239.422 28.9327 239.859 29.178C240.297 29.4127 240.777 29.53 241.299 29.53ZM252.222 21.738C253.288 21.738 254.152 22.0633 254.814 22.714C255.475 23.354 255.806 24.282 255.806 25.498V30.666H254.366V25.706C254.366 24.8313 254.147 24.1647 253.71 23.706C253.272 23.2367 252.675 23.002 251.918 23.002C251.15 23.002 250.536 23.242 250.078 23.722C249.63 24.202 249.406 24.9007 249.406 25.818V30.666H247.95V21.898H249.406V23.146C249.694 22.698 250.083 22.3513 250.574 22.106C251.075 21.8607 251.624 21.738 252.222 21.738ZM261.528 30.81C260.856 30.81 260.253 30.698 259.72 30.474C259.187 30.2393 258.765 29.9193 258.456 29.514C258.147 29.098 257.976 28.6233 257.944 28.09H259.448C259.491 28.5273 259.693 28.8847 260.056 29.162C260.429 29.4393 260.915 29.578 261.512 29.578C262.067 29.578 262.504 29.4553 262.824 29.21C263.144 28.9647 263.304 28.6553 263.304 28.282C263.304 27.898 263.133 27.6153 262.792 27.434C262.451 27.242 261.923 27.0553 261.208 26.874C260.557 26.7033 260.024 26.5327 259.608 26.362C259.203 26.1807 258.851 25.9193 258.552 25.578C258.264 25.226 258.12 24.7673 258.12 24.202C258.12 23.754 258.253 23.3433 258.52 22.97C258.787 22.5967 259.165 22.3033 259.656 22.09C260.147 21.866 260.707 21.754 261.336 21.754C262.307 21.754 263.091 21.9993 263.688 22.49C264.285 22.9807 264.605 23.6527 264.648 24.506H263.192C263.16 24.0473 262.973 23.6793 262.632 23.402C262.301 23.1247 261.853 22.986 261.288 22.986C260.765 22.986 260.349 23.098 260.04 23.322C259.731 23.546 259.576 23.8393 259.576 24.202C259.576 24.49 259.667 24.73 259.848 24.922C260.04 25.1033 260.275 25.2527 260.552 25.37C260.84 25.4767 261.235 25.5993 261.736 25.738C262.365 25.9087 262.877 26.0793 263.272 26.25C263.667 26.41 264.003 26.6553 264.28 26.986C264.568 27.3167 264.717 27.7487 264.728 28.282C264.728 28.762 264.595 29.194 264.328 29.578C264.061 29.962 263.683 30.266 263.192 30.49C262.712 30.7033 262.157 30.81 261.528 30.81ZM268.527 28.65L266.735 32.954H265.759L266.927 28.65H268.527ZM282.717 21.898V30.666H281.261V29.37C280.984 29.818 280.594 30.17 280.093 30.426C279.602 30.6713 279.058 30.794 278.461 30.794C277.778 30.794 277.165 30.6553 276.621 30.378C276.077 30.09 275.645 29.6633 275.325 29.098C275.016 28.5327 274.861 27.8447 274.861 27.034V21.898H276.301V26.842C276.301 27.706 276.52 28.3727 276.957 28.842C277.394 29.3007 277.992 29.53 278.749 29.53C279.528 29.53 280.141 29.29 280.589 28.81C281.037 28.33 281.261 27.6313 281.261 26.714V21.898H282.717ZM288.519 30.81C287.847 30.81 287.245 30.698 286.711 30.474C286.178 30.2393 285.757 29.9193 285.447 29.514C285.138 29.098 284.967 28.6233 284.935 28.09H286.439C286.482 28.5273 286.685 28.8847 287.047 29.162C287.421 29.4393 287.906 29.578 288.503 29.578C289.058 29.578 289.495 29.4553 289.815 29.21C290.135 28.9647 290.295 28.6553 290.295 28.282C290.295 27.898 290.125 27.6153 289.783 27.434C289.442 27.242 288.914 27.0553 288.199 26.874C287.549 26.7033 287.015 26.5327 286.599 26.362C286.194 26.1807 285.842 25.9193 285.543 25.578C285.255 25.226 285.111 24.7673 285.111 24.202C285.111 23.754 285.245 23.3433 285.511 22.97C285.778 22.5967 286.157 22.3033 286.647 22.09C287.138 21.866 287.698 21.754 288.327 21.754C289.298 21.754 290.082 21.9993 290.679 22.49C291.277 22.9807 291.597 23.6527 291.639 24.506H290.183C290.151 24.0473 289.965 23.6793 289.623 23.402C289.293 23.1247 288.845 22.986 288.279 22.986C287.757 22.986 287.341 23.098 287.031 23.322C286.722 23.546 286.567 23.8393 286.567 24.202C286.567 24.49 286.658 24.73 286.839 24.922C287.031 25.1033 287.266 25.2527 287.543 25.37C287.831 25.4767 288.226 25.5993 288.727 25.738C289.357 25.9087 289.869 26.0793 290.263 26.25C290.658 26.41 290.994 26.6553 291.271 26.986C291.559 27.3167 291.709 27.7487 291.719 28.282C291.719 28.762 291.586 29.194 291.319 29.578C291.053 29.962 290.674 30.266 290.183 30.49C289.703 30.7033 289.149 30.81 288.519 30.81ZM302.015 25.946C302.015 26.2233 301.999 26.5167 301.967 26.826H294.959C295.012 27.69 295.305 28.3673 295.839 28.858C296.383 29.338 297.039 29.578 297.807 29.578C298.436 29.578 298.959 29.434 299.375 29.146C299.801 28.8473 300.1 28.4527 300.271 27.962H301.839C301.604 28.8047 301.135 29.4927 300.431 30.026C299.727 30.5487 298.852 30.81 297.807 30.81C296.975 30.81 296.228 30.6233 295.567 30.25C294.916 29.8767 294.404 29.3487 294.031 28.666C293.657 27.9727 293.471 27.1727 293.471 26.266C293.471 25.3593 293.652 24.5647 294.015 23.882C294.377 23.1993 294.884 22.6767 295.535 22.314C296.196 21.9407 296.953 21.754 297.807 21.754C298.639 21.754 299.375 21.9353 300.015 22.298C300.655 22.6607 301.145 23.162 301.487 23.802C301.839 24.4313 302.015 25.146 302.015 25.946ZM300.511 25.642C300.511 25.0873 300.388 24.6127 300.143 24.218C299.897 23.8127 299.561 23.5087 299.135 23.306C298.719 23.0927 298.255 22.986 297.743 22.986C297.007 22.986 296.377 23.2207 295.855 23.69C295.343 24.1593 295.049 24.81 294.975 25.642H300.511ZM305.633 23.322C305.889 22.8207 306.251 22.4313 306.721 22.154C307.201 21.8767 307.782 21.738 308.465 21.738V23.242H308.081C306.449 23.242 305.633 24.1273 305.633 25.898V30.666H304.177V21.898H305.633V23.322ZM313.489 30.81C312.817 30.81 312.215 30.698 311.681 30.474C311.148 30.2393 310.727 29.9193 310.417 29.514C310.108 29.098 309.937 28.6233 309.905 28.09H311.409C311.452 28.5273 311.655 28.8847 312.017 29.162C312.391 29.4393 312.876 29.578 313.473 29.578C314.028 29.578 314.465 29.4553 314.785 29.21C315.105 28.9647 315.265 28.6553 315.265 28.282C315.265 27.898 315.095 27.6153 314.753 27.434C314.412 27.242 313.884 27.0553 313.169 26.874C312.519 26.7033 311.985 26.5327 311.569 26.362C311.164 26.1807 310.812 25.9193 310.513 25.578C310.225 25.226 310.081 24.7673 310.081 24.202C310.081 23.754 310.215 23.3433 310.481 22.97C310.748 22.5967 311.127 22.3033 311.617 22.09C312.108 21.866 312.668 21.754 313.297 21.754C314.268 21.754 315.052 21.9993 315.649 22.49C316.247 22.9807 316.567 23.6527 316.609 24.506H315.153C315.121 24.0473 314.935 23.6793 314.593 23.402C314.263 23.1247 313.815 22.986 313.249 22.986C312.727 22.986 312.311 23.098 312.001 23.322C311.692 23.546 311.537 23.8393 311.537 24.202C311.537 24.49 311.628 24.73 311.809 24.922C312.001 25.1033 312.236 25.2527 312.513 25.37C312.801 25.4767 313.196 25.5993 313.697 25.738C314.327 25.9087 314.839 26.0793 315.233 26.25C315.628 26.41 315.964 26.6553 316.241 26.986C316.529 27.3167 316.679 27.7487 316.689 28.282C316.689 28.762 316.556 29.194 316.289 29.578C316.023 29.962 315.644 30.266 315.153 30.49C314.673 30.7033 314.119 30.81 313.489 30.81ZM320.489 28.65L318.697 32.954H317.721L318.889 28.65H320.489ZM328.678 23.098V28.266C328.678 28.6927 328.769 28.9967 328.95 29.178C329.132 29.3487 329.446 29.434 329.894 29.434H330.966V30.666H329.654C328.844 30.666 328.236 30.4793 327.83 30.106C327.425 29.7327 327.222 29.1193 327.222 28.266V23.098H326.086V21.898H327.222V19.69H328.678V21.898H330.966V23.098H328.678ZM334.426 23.322C334.682 22.8207 335.045 22.4313 335.514 22.154C335.994 21.8767 336.576 21.738 337.258 21.738V23.242H336.874C335.242 23.242 334.426 24.1273 334.426 25.898V30.666H332.97V21.898H334.426V23.322ZM338.635 26.25C338.635 25.354 338.816 24.57 339.179 23.898C339.542 23.2153 340.038 22.6873 340.667 22.314C341.307 21.9407 342.016 21.754 342.795 21.754C343.563 21.754 344.23 21.9193 344.795 22.25C345.36 22.5807 345.782 22.9967 346.059 23.498V21.898H347.531V30.666H346.059V29.034C345.771 29.546 345.339 29.9727 344.763 30.314C344.198 30.6447 343.536 30.81 342.779 30.81C342 30.81 341.296 30.618 340.667 30.234C340.038 29.85 339.542 29.3113 339.179 28.618C338.816 27.9247 338.635 27.1353 338.635 26.25ZM346.059 26.266C346.059 25.6047 345.926 25.0287 345.659 24.538C345.392 24.0473 345.03 23.674 344.571 23.418C344.123 23.1513 343.627 23.018 343.083 23.018C342.539 23.018 342.043 23.146 341.595 23.402C341.147 23.658 340.79 24.0313 340.523 24.522C340.256 25.0127 340.123 25.5887 340.123 26.25C340.123 26.922 340.256 27.5087 340.523 28.01C340.79 28.5007 341.147 28.8793 341.595 29.146C342.043 29.402 342.539 29.53 343.083 29.53C343.627 29.53 344.123 29.402 344.571 29.146C345.03 28.8793 345.392 28.5007 345.659 28.01C345.926 27.5087 346.059 26.9273 346.059 26.266ZM354.504 21.738C355.57 21.738 356.434 22.0633 357.096 22.714C357.757 23.354 358.088 24.282 358.088 25.498V30.666H356.648V25.706C356.648 24.8313 356.429 24.1647 355.992 23.706C355.554 23.2367 354.957 23.002 354.2 23.002C353.432 23.002 352.818 23.242 352.36 23.722C351.912 24.202 351.688 24.9007 351.688 25.818V30.666H350.232V21.898H351.688V23.146C351.976 22.698 352.365 22.3513 352.856 22.106C353.357 21.8607 353.906 21.738 354.504 21.738ZM363.81 30.81C363.138 30.81 362.535 30.698 362.002 30.474C361.469 30.2393 361.047 29.9193 360.738 29.514C360.429 29.098 360.258 28.6233 360.226 28.09H361.73C361.773 28.5273 361.975 28.8847 362.338 29.162C362.711 29.4393 363.197 29.578 363.794 29.578C364.349 29.578 364.786 29.4553 365.106 29.21C365.426 28.9647 365.586 28.6553 365.586 28.282C365.586 27.898 365.415 27.6153 365.074 27.434C364.733 27.242 364.205 27.0553 363.49 26.874C362.839 26.7033 362.306 26.5327 361.89 26.362C361.485 26.1807 361.133 25.9193 360.834 25.578C360.546 25.226 360.402 24.7673 360.402 24.202C360.402 23.754 360.535 23.3433 360.802 22.97C361.069 22.5967 361.447 22.3033 361.938 22.09C362.429 21.866 362.989 21.754 363.618 21.754C364.589 21.754 365.373 21.9993 365.97 22.49C366.567 22.9807 366.887 23.6527 366.93 24.506H365.474C365.442 24.0473 365.255 23.6793 364.914 23.402C364.583 23.1247 364.135 22.986 363.57 22.986C363.047 22.986 362.631 23.098 362.322 23.322C362.013 23.546 361.858 23.8393 361.858 24.202C361.858 24.49 361.949 24.73 362.13 24.922C362.322 25.1033 362.557 25.2527 362.834 25.37C363.122 25.4767 363.517 25.5993 364.018 25.738C364.647 25.9087 365.159 26.0793 365.554 26.25C365.949 26.41 366.285 26.6553 366.562 26.986C366.85 27.3167 366.999 27.7487 367.01 28.282C367.01 28.762 366.877 29.194 366.61 29.578C366.343 29.962 365.965 30.266 365.474 30.49C364.994 30.7033 364.439 30.81 363.81 30.81ZM368.761 26.25C368.761 25.354 368.943 24.57 369.305 23.898C369.668 23.2153 370.164 22.6873 370.793 22.314C371.433 21.9407 372.143 21.754 372.921 21.754C373.689 21.754 374.356 21.9193 374.921 22.25C375.487 22.5807 375.908 22.9967 376.185 23.498V21.898H377.657V30.666H376.185V29.034C375.897 29.546 375.465 29.9727 374.889 30.314C374.324 30.6447 373.663 30.81 372.905 30.81C372.127 30.81 371.423 30.618 370.793 30.234C370.164 29.85 369.668 29.3113 369.305 28.618C368.943 27.9247 368.761 27.1353 368.761 26.25ZM376.185 26.266C376.185 25.6047 376.052 25.0287 375.785 24.538C375.519 24.0473 375.156 23.674 374.697 23.418C374.249 23.1513 373.753 23.018 373.209 23.018C372.665 23.018 372.169 23.146 371.721 23.402C371.273 23.658 370.916 24.0313 370.649 24.522C370.383 25.0127 370.249 25.5887 370.249 26.25C370.249 26.922 370.383 27.5087 370.649 28.01C370.916 28.5007 371.273 28.8793 371.721 29.146C372.169 29.402 372.665 29.53 373.209 29.53C373.753 29.53 374.249 29.402 374.697 29.146C375.156 28.8793 375.519 28.5007 375.785 28.01C376.052 27.5087 376.185 26.9273 376.185 26.266ZM379.814 26.266C379.814 25.3593 379.995 24.57 380.358 23.898C380.721 23.2153 381.222 22.6873 381.862 22.314C382.513 21.9407 383.254 21.754 384.086 21.754C385.163 21.754 386.049 22.0153 386.742 22.538C387.446 23.0607 387.91 23.786 388.134 24.714H386.566C386.417 24.1807 386.123 23.7593 385.686 23.45C385.259 23.1407 384.726 22.986 384.086 22.986C383.254 22.986 382.582 23.274 382.07 23.85C381.558 24.4153 381.302 25.2207 381.302 26.266C381.302 27.322 381.558 28.138 382.07 28.714C382.582 29.29 383.254 29.578 384.086 29.578C384.726 29.578 385.259 29.4287 385.686 29.13C386.113 28.8313 386.406 28.4047 386.566 27.85H388.134C387.899 28.746 387.43 29.466 386.726 30.01C386.022 30.5433 385.142 30.81 384.086 30.81C383.254 30.81 382.513 30.6233 381.862 30.25C381.222 29.8767 380.721 29.3487 380.358 28.666C379.995 27.9833 379.814 27.1833 379.814 26.266ZM392.093 23.098V28.266C392.093 28.6927 392.183 28.9967 392.365 29.178C392.546 29.3487 392.861 29.434 393.309 29.434H394.381V30.666H393.069C392.258 30.666 391.65 30.4793 391.245 30.106C390.839 29.7327 390.637 29.1193 390.637 28.266V23.098H389.501V21.898H390.637V19.69H392.093V21.898H394.381V23.098H392.093ZM397.137 20.474C396.859 20.474 396.625 20.378 396.433 20.186C396.241 19.994 396.145 19.7593 396.145 19.482C396.145 19.2047 396.241 18.97 396.433 18.778C396.625 18.586 396.859 18.49 397.137 18.49C397.403 18.49 397.627 18.586 397.809 18.778C398.001 18.97 398.097 19.2047 398.097 19.482C398.097 19.7593 398.001 19.994 397.809 20.186C397.627 20.378 397.403 20.474 397.137 20.474ZM397.841 21.898V30.666H396.385V21.898H397.841ZM404.386 30.81C403.565 30.81 402.818 30.6233 402.146 30.25C401.485 29.8767 400.962 29.3487 400.578 28.666C400.205 27.9727 400.018 27.1727 400.018 26.266C400.018 25.37 400.21 24.5807 400.594 23.898C400.989 23.2047 401.522 22.6767 402.194 22.314C402.866 21.9407 403.618 21.754 404.45 21.754C405.282 21.754 406.034 21.9407 406.706 22.314C407.378 22.6767 407.906 23.1993 408.29 23.882C408.685 24.5647 408.882 25.3593 408.882 26.266C408.882 27.1727 408.68 27.9727 408.274 28.666C407.88 29.3487 407.341 29.8767 406.658 30.25C405.976 30.6233 405.218 30.81 404.386 30.81ZM404.386 29.53C404.909 29.53 405.4 29.4073 405.858 29.162C406.317 28.9167 406.685 28.5487 406.962 28.058C407.25 27.5673 407.394 26.97 407.394 26.266C407.394 25.562 407.256 24.9647 406.978 24.474C406.701 23.9833 406.338 23.6207 405.89 23.386C405.442 23.1407 404.957 23.018 404.434 23.018C403.901 23.018 403.41 23.1407 402.962 23.386C402.525 23.6207 402.173 23.9833 401.906 24.474C401.64 24.9647 401.506 25.562 401.506 26.266C401.506 26.9807 401.634 27.5833 401.89 28.074C402.157 28.5647 402.509 28.9327 402.946 29.178C403.384 29.4127 403.864 29.53 404.386 29.53ZM415.309 21.738C416.375 21.738 417.239 22.0633 417.901 22.714C418.562 23.354 418.893 24.282 418.893 25.498V30.666H417.453V25.706C417.453 24.8313 417.234 24.1647 416.797 23.706C416.359 23.2367 415.762 23.002 415.005 23.002C414.237 23.002 413.623 23.242 413.165 23.722C412.717 24.202 412.493 24.9007 412.493 25.818V30.666H411.037V21.898H412.493V23.146C412.781 22.698 413.17 22.3513 413.661 22.106C414.162 21.8607 414.711 21.738 415.309 21.738ZM424.615 30.81C423.943 30.81 423.34 30.698 422.807 30.474C422.274 30.2393 421.852 29.9193 421.543 29.514C421.234 29.098 421.063 28.6233 421.031 28.09H422.535C422.578 28.5273 422.78 28.8847 423.143 29.162C423.516 29.4393 424.002 29.578 424.599 29.578C425.154 29.578 425.591 29.4553 425.911 29.21C426.231 28.9647 426.391 28.6553 426.391 28.282C426.391 27.898 426.22 27.6153 425.879 27.434C425.538 27.242 425.01 27.0553 424.295 26.874C423.644 26.7033 423.111 26.5327 422.695 26.362C422.29 26.1807 421.938 25.9193 421.639 25.578C421.351 25.226 421.207 24.7673 421.207 24.202C421.207 23.754 421.34 23.3433 421.607 22.97C421.874 22.5967 422.252 22.3033 422.743 22.09C423.234 21.866 423.794 21.754 424.423 21.754C425.394 21.754 426.178 21.9993 426.775 22.49C427.372 22.9807 427.692 23.6527 427.735 24.506H426.279C426.247 24.0473 426.06 23.6793 425.719 23.402C425.388 23.1247 424.94 22.986 424.375 22.986C423.852 22.986 423.436 23.098 423.127 23.322C422.818 23.546 422.663 23.8393 422.663 24.202C422.663 24.49 422.754 24.73 422.935 24.922C423.127 25.1033 423.362 25.2527 423.639 25.37C423.927 25.4767 424.322 25.5993 424.823 25.738C425.452 25.9087 425.964 26.0793 426.359 26.25C426.754 26.41 427.09 26.6553 427.367 26.986C427.655 27.3167 427.804 27.7487 427.815 28.282C427.815 28.762 427.682 29.194 427.415 29.578C427.148 29.962 426.77 30.266 426.279 30.49C425.799 30.7033 425.244 30.81 424.615 30.81ZM430.574 30.762C430.297 30.762 430.062 30.666 429.87 30.474C429.678 30.282 429.582 30.0473 429.582 29.77C429.582 29.4927 429.678 29.258 429.87 29.066C430.062 28.874 430.297 28.778 430.574 28.778C430.841 28.778 431.065 28.874 431.246 29.066C431.438 29.258 431.534 29.4927 431.534 29.77C431.534 30.0473 431.438 30.282 431.246 30.474C431.065 30.666 430.841 30.762 430.574 30.762ZM434.174 30.762C433.896 30.762 433.662 30.666 433.47 30.474C433.278 30.282 433.182 30.0473 433.182 29.77C433.182 29.4927 433.278 29.258 433.47 29.066C433.662 28.874 433.896 28.778 434.174 28.778C434.44 28.778 434.664 28.874 434.846 29.066C435.038 29.258 435.134 29.4927 435.134 29.77C435.134 30.0473 435.038 30.282 434.846 30.474C434.664 30.666 434.44 30.762 434.174 30.762ZM437.773 30.762C437.496 30.762 437.261 30.666 437.069 30.474C436.877 30.282 436.781 30.0473 436.781 29.77C436.781 29.4927 436.877 29.258 437.069 29.066C437.261 28.874 437.496 28.778 437.773 28.778C438.04 28.778 438.264 28.874 438.445 29.066C438.637 29.258 438.733 29.4927 438.733 29.77C438.733 30.0473 438.637 30.282 438.445 30.474C438.264 30.666 438.04 30.762 437.773 30.762Z" fill="#0A0A1F"/>
<rect x="834.5" y="0.5" width="155" height="49" rx="7.5" stroke="#464255"/>
<g clip-path="url(#clip0_2_1789)">
<path d="M865.25 18.25H864.5V16.75H863V18.25H857V16.75H855.5V18.25H854.75C853.925 18.25 853.25 18.925 853.25 19.75V30.25C853.25 31.075 853.925 31.75 854.75 31.75H865.25C866.075 31.75 866.75 31.075 866.75 30.25V19.75C866.75 18.925 866.075 18.25 865.25 18.25ZM865.25 30.25H854.75V22.75H865.25V30.25ZM854.75 21.25V19.75H865.25V21.25H854.75ZM856.25 24.25H863.75V25.75H856.25V24.25ZM856.25 27.25H861.5V28.75H856.25V27.25Z" fill="#464255"/>
</g>
<path d="M897.336 20.27V21.572H894.746V30H893.15V21.572H890.546V20.27H897.336ZM902.298 30.126C901.57 30.126 900.912 29.9627 900.324 29.636C899.736 29.3 899.274 28.8333 898.938 28.236C898.602 27.6293 898.434 26.9293 898.434 26.136C898.434 25.352 898.607 24.6567 898.952 24.05C899.298 23.4433 899.769 22.9767 900.366 22.65C900.964 22.3233 901.631 22.16 902.368 22.16C903.106 22.16 903.773 22.3233 904.37 22.65C904.968 22.9767 905.439 23.4433 905.784 24.05C906.13 24.6567 906.302 25.352 906.302 26.136C906.302 26.92 906.125 27.6153 905.77 28.222C905.416 28.8287 904.93 29.3 904.314 29.636C903.708 29.9627 903.036 30.126 902.298 30.126ZM902.298 28.74C902.709 28.74 903.092 28.642 903.446 28.446C903.81 28.25 904.104 27.956 904.328 27.564C904.552 27.172 904.664 26.696 904.664 26.136C904.664 25.576 904.557 25.1047 904.342 24.722C904.128 24.33 903.843 24.036 903.488 23.84C903.134 23.644 902.751 23.546 902.34 23.546C901.93 23.546 901.547 23.644 901.192 23.84C900.847 24.036 900.572 24.33 900.366 24.722C900.161 25.1047 900.058 25.576 900.058 26.136C900.058 26.9667 900.268 27.6107 900.688 28.068C901.118 28.516 901.654 28.74 902.298 28.74ZM907.348 26.108C907.348 25.3333 907.507 24.6473 907.824 24.05C908.151 23.4527 908.589 22.9907 909.14 22.664C909.7 22.328 910.321 22.16 911.002 22.16C911.506 22.16 912.001 22.272 912.486 22.496C912.981 22.7107 913.373 23 913.662 23.364V19.64H915.272V30H913.662V28.838C913.401 29.2113 913.037 29.5193 912.57 29.762C912.113 30.0047 911.585 30.126 910.988 30.126C910.316 30.126 909.7 29.958 909.14 29.622C908.589 29.2767 908.151 28.8007 907.824 28.194C907.507 27.578 907.348 26.8827 907.348 26.108ZM913.662 26.136C913.662 25.604 913.55 25.142 913.326 24.75C913.111 24.358 912.827 24.0593 912.472 23.854C912.117 23.6487 911.735 23.546 911.324 23.546C910.913 23.546 910.531 23.6487 910.176 23.854C909.821 24.05 909.532 24.344 909.308 24.736C909.093 25.1187 908.986 25.576 908.986 26.108C908.986 26.64 909.093 27.1067 909.308 27.508C909.532 27.9093 909.821 28.2173 910.176 28.432C910.54 28.6373 910.923 28.74 911.324 28.74C911.735 28.74 912.117 28.6373 912.472 28.432C912.827 28.2267 913.111 27.928 913.326 27.536C913.55 27.1347 913.662 26.668 913.662 26.136ZM916.836 26.108C916.836 25.3333 916.995 24.6473 917.312 24.05C917.639 23.4527 918.078 22.9907 918.628 22.664C919.188 22.328 919.804 22.16 920.476 22.16C921.083 22.16 921.61 22.2813 922.058 22.524C922.516 22.7573 922.88 23.0513 923.15 23.406V22.286H924.76V30H923.15V28.852C922.88 29.216 922.511 29.5193 922.044 29.762C921.578 30.0047 921.046 30.126 920.448 30.126C919.786 30.126 919.179 29.958 918.628 29.622C918.078 29.2767 917.639 28.8007 917.312 28.194C916.995 27.578 916.836 26.8827 916.836 26.108ZM923.15 26.136C923.15 25.604 923.038 25.142 922.814 24.75C922.6 24.358 922.315 24.0593 921.96 23.854C921.606 23.6487 921.223 23.546 920.812 23.546C920.402 23.546 920.019 23.6487 919.664 23.854C919.31 24.05 919.02 24.344 918.796 24.736C918.582 25.1187 918.474 25.576 918.474 26.108C918.474 26.64 918.582 27.1067 918.796 27.508C919.02 27.9093 919.31 28.2173 919.664 28.432C920.028 28.6373 920.411 28.74 920.812 28.74C921.223 28.74 921.606 28.6373 921.96 28.432C922.315 28.2267 922.6 27.928 922.814 27.536C923.038 27.1347 923.15 26.668 923.15 26.136ZM933.801 22.286L929.069 33.626H927.417L928.985 29.874L925.947 22.286H927.725L929.895 28.166L932.149 22.286H933.801Z" fill="#464255"/>
<path d="M959.5 22.75L964 27.25L968.5 22.75" stroke="#464255" stroke-width="1.5" stroke-linecap="round" stroke-linejoin="round"/>
<defs>
<clipPath id="clip0_2_1789">
<rect width="18" height="18" fill="white" transform="translate(851 16)"/>
</clipPath>
</defs>
</svg>
