<svg width="699" height="236" viewBox="0 0 699 236" fill="none" xmlns="http://www.w3.org/2000/svg">
<path d="M1.51314 10.8182H2.587C2.61825 11.1136 2.71911 11.3636 2.88956 11.5682C3.06286 11.7699 3.28729 11.9233 3.56286 12.0284C3.83842 12.1307 4.14382 12.1818 4.47905 12.1818C4.84268 12.1818 5.16939 12.1207 5.45916 11.9986C5.74893 11.8764 5.97905 11.6946 6.1495 11.4531C6.31996 11.2088 6.40518 10.9062 6.40518 10.5455C6.40518 10.2301 6.33132 9.9375 6.18359 9.66761C6.03587 9.39489 5.79865 9.17472 5.47195 9.0071C5.14524 8.83949 4.712 8.75568 4.17223 8.75568H3.47337V7.90341L5.65518 5.27841V5.21023H1.93928V4.27273H7.10405V5.03977L4.76882 7.86932V7.9375C5.14382 7.95455 5.49325 8.03125 5.81712 8.16761C6.14382 8.30398 6.42791 8.48864 6.66939 8.72159C6.91371 8.95455 7.10405 9.22585 7.24041 9.53551C7.37678 9.84517 7.44496 10.1818 7.44496 10.5455C7.44496 11.0426 7.31712 11.4858 7.06143 11.875C6.80859 12.2614 6.45774 12.5653 6.00888 12.7869C5.56286 13.0085 5.04723 13.1193 4.462 13.1193C3.94496 13.1193 3.46911 13.0284 3.03445 12.8466C2.59979 12.6648 2.24609 12.402 1.97337 12.0582C1.70064 11.7145 1.54723 11.3011 1.51314 10.8182ZM8.98011 10.2386C8.9858 9.96591 9.02699 9.68324 9.10369 9.39062C9.1804 9.09801 9.30966 8.77273 9.49148 8.41477C9.6733 8.05682 9.9233 7.64205 10.2415 7.17045L12.2017 4.27273H13.3608L11.0597 7.63068C11.1619 7.59659 11.267 7.56818 11.375 7.54545C11.4858 7.52273 11.5966 7.51136 11.7074 7.51136C12.2358 7.51136 12.7074 7.63352 13.1222 7.87784C13.5398 8.12216 13.8679 8.45597 14.1065 8.87926C14.348 9.30256 14.4688 9.78409 14.4688 10.3239C14.4688 10.8636 14.3494 11.3437 14.1108 11.7642C13.875 12.1847 13.5497 12.5156 13.1349 12.7571C12.723 12.9986 12.2528 13.1193 11.7244 13.1193C11.1903 13.1193 10.7159 12.9957 10.3011 12.7486C9.88636 12.4986 9.56108 12.1577 9.32528 11.7259C9.08949 11.2912 8.97443 10.7955 8.98011 10.2386ZM9.9858 10.3068C9.9858 10.6761 10.0597 11.0028 10.2074 11.2869C10.3551 11.571 10.5597 11.794 10.821 11.956C11.0824 12.1179 11.3835 12.1989 11.7244 12.1989C12.0653 12.1989 12.3665 12.1193 12.6278 11.9602C12.8892 11.7983 13.0938 11.5767 13.2415 11.2955C13.3892 11.0114 13.4631 10.6875 13.4631 10.3239C13.4631 9.95455 13.3892 9.62926 13.2415 9.34801C13.0938 9.06676 12.8892 8.84659 12.6278 8.6875C12.3665 8.52841 12.0653 8.44886 11.7244 8.44886C11.3835 8.44886 11.0824 8.52841 10.821 8.6875C10.5597 8.84375 10.3551 9.0625 10.2074 9.34375C10.0597 9.62216 9.9858 9.94318 9.9858 10.3068ZM16.2287 13V4.27273H17.2855V8.60227H17.3878L21.3082 4.27273H22.6889L19.0241 8.21023L22.6889 13H21.4105L18.3764 8.94318L17.2855 10.1705V13H16.2287Z" fill="black" fill-opacity="0.4"/>
<path d="M1.95419 60V59.233L4.83487 56.0795C5.17294 55.7102 5.45135 55.3892 5.6701 55.1165C5.88885 54.8409 6.05078 54.5824 6.1559 54.3409C6.26385 54.0966 6.31783 53.8409 6.31783 53.5739C6.31783 53.267 6.24396 53.0014 6.09624 52.777C5.95135 52.5526 5.75249 52.3793 5.49965 52.2571C5.2468 52.1349 4.96271 52.0739 4.64737 52.0739C4.31214 52.0739 4.01953 52.1435 3.76953 52.2827C3.52237 52.419 3.33061 52.6108 3.19425 52.858C3.06072 53.1051 2.99396 53.3949 2.99396 53.7273H1.98828C1.98828 53.2159 2.10618 52.767 2.34197 52.3807C2.57777 51.9943 2.89879 51.6932 3.30504 51.4773C3.71413 51.2614 4.17294 51.1534 4.68146 51.1534C5.19283 51.1534 5.64595 51.2614 6.04084 51.4773C6.43572 51.6932 6.74538 51.9844 6.96982 52.3509C7.19425 52.7173 7.30646 53.125 7.30646 53.5739C7.30646 53.8949 7.24822 54.2088 7.13175 54.5156C7.01811 54.8196 6.81925 55.1591 6.53516 55.5341C6.25391 55.9062 5.86328 56.3608 5.36328 56.8977L3.40305 58.9943V59.0625H7.45987V60H1.95419ZM9.49254 60L13.396 52.2784V52.2102H8.89595V51.2727H14.4869V52.2614L10.6005 60H9.49254ZM16.2287 60V51.2727H17.2855V55.6023H17.3878L21.3082 51.2727H22.6889L19.0241 55.2102L22.6889 60H21.4105L18.3764 55.9432L17.2855 57.1705V60H16.2287Z" fill="black" fill-opacity="0.4"/>
<path d="M6.17933 98.2727V107H5.12251V99.8068H5.05433C5.01456 99.8864 4.91229 99.9773 4.74751 100.08C4.58274 100.179 4.36967 100.267 4.10831 100.344C3.84695 100.418 3.54865 100.455 3.21342 100.455V99.5682C3.55149 99.5682 3.84411 99.5071 4.09126 99.3849C4.33842 99.2628 4.54439 99.1193 4.70916 98.9545C4.87678 98.7898 5.0032 98.6406 5.08842 98.5071C5.17649 98.3736 5.22763 98.2955 5.24183 98.2727H6.17933ZM11.4762 107.119C10.891 107.119 10.3739 107.016 9.92507 106.808C9.47905 106.598 9.13104 106.31 8.88104 105.943C8.63104 105.574 8.50746 105.153 8.5103 104.682C8.50746 104.312 8.5799 103.972 8.72763 103.659C8.87536 103.344 9.07706 103.081 9.33274 102.871C9.59126 102.658 9.87962 102.523 10.1978 102.466V102.415C9.78018 102.307 9.4478 102.072 9.20064 101.712C8.95348 101.348 8.83132 100.935 8.83416 100.472C8.83132 100.028 8.94354 99.6321 9.17081 99.2827C9.39808 98.9332 9.71058 98.6577 10.1083 98.456C10.5089 98.2543 10.9648 98.1534 11.4762 98.1534C11.9819 98.1534 12.4336 98.2543 12.8313 98.456C13.229 98.6577 13.5415 98.9332 13.7688 99.2827C13.9989 99.6321 14.1154 100.028 14.1183 100.472C14.1154 100.935 13.989 101.348 13.739 101.712C13.4918 102.072 13.1637 102.307 12.7546 102.415V102.466C13.07 102.523 13.354 102.658 13.6069 102.871C13.8597 103.081 14.0614 103.344 14.212 103.659C14.3626 103.972 14.4393 104.312 14.4421 104.682C14.4393 105.153 14.3114 105.574 14.0586 105.943C13.8086 106.31 13.4606 106.598 13.0146 106.808C12.5714 107.016 12.0586 107.119 11.4762 107.119ZM11.4762 106.182C11.8711 106.182 12.212 106.118 12.4989 105.99C12.7859 105.862 13.0075 105.682 13.1637 105.449C13.32 105.216 13.3995 104.943 13.4023 104.631C13.3995 104.301 13.3143 104.01 13.1467 103.757C12.979 103.504 12.7504 103.305 12.4606 103.161C12.1737 103.016 11.8455 102.943 11.4762 102.943C11.104 102.943 10.7717 103.016 10.479 103.161C10.1893 103.305 9.96058 103.504 9.79297 103.757C9.6282 104.01 9.54723 104.301 9.55007 104.631C9.54723 104.943 9.62251 105.216 9.77592 105.449C9.93217 105.682 10.1552 105.862 10.445 105.99C10.7347 106.118 11.0785 106.182 11.4762 106.182ZM11.4762 102.04C11.7887 102.04 12.0657 101.977 12.3072 101.852C12.5515 101.727 12.7433 101.553 12.8825 101.328C13.0217 101.104 13.0927 100.841 13.0955 100.54C13.0927 100.244 13.0231 99.9872 12.8867 99.7685C12.7504 99.5469 12.5614 99.3764 12.32 99.2571C12.0785 99.1349 11.7972 99.0739 11.4762 99.0739C11.1495 99.0739 10.864 99.1349 10.6197 99.2571C10.3754 99.3764 10.1864 99.5469 10.0529 99.7685C9.91939 99.9872 9.85405 100.244 9.85689 100.54C9.85405 100.841 9.92081 101.104 10.0572 101.328C10.1964 101.553 10.3881 101.727 10.6325 101.852C10.8768 101.977 11.158 102.04 11.4762 102.04ZM16.2287 107V98.2727H17.2855V102.602H17.3878L21.3082 98.2727H22.6889L19.0241 102.21L22.6889 107H21.4105L18.3764 102.943L17.2855 104.17V107H16.2287Z" fill="black" fill-opacity="0.4"/>
<path d="M8.98011 147.949C8.98011 147.409 9.09801 146.929 9.33381 146.509C9.57244 146.088 9.89773 145.757 10.3097 145.516C10.7244 145.274 11.196 145.153 11.7244 145.153C12.2585 145.153 12.733 145.278 13.1477 145.528C13.5625 145.776 13.8878 146.116 14.1236 146.551C14.3594 146.983 14.4744 147.477 14.4688 148.034C14.4631 148.307 14.4219 148.589 14.3452 148.882C14.2685 149.175 14.1392 149.5 13.9574 149.858C13.7756 150.216 13.5256 150.631 13.2074 151.102L11.2472 154H10.0881L12.3892 150.642C12.2869 150.676 12.1804 150.705 12.0696 150.727C11.9616 150.75 11.8523 150.761 11.7415 150.761C11.2131 150.761 10.7401 150.639 10.3224 150.395C9.90767 150.151 9.57955 149.817 9.33807 149.393C9.09943 148.97 8.98011 148.489 8.98011 147.949ZM9.9858 147.949C9.9858 148.318 10.0597 148.643 10.2074 148.925C10.3551 149.206 10.5597 149.426 10.821 149.585C11.0824 149.744 11.3835 149.824 11.7244 149.824C12.0653 149.824 12.3665 149.746 12.6278 149.589C12.8892 149.43 13.0938 149.212 13.2415 148.933C13.3892 148.652 13.4631 148.33 13.4631 147.966C13.4631 147.597 13.3892 147.27 13.2415 146.986C13.0938 146.702 12.8892 146.479 12.6278 146.317C12.3665 146.155 12.0653 146.074 11.7244 146.074C11.3835 146.074 11.0824 146.155 10.821 146.317C10.5597 146.476 10.3551 146.697 10.2074 146.982C10.0597 147.263 9.9858 147.585 9.9858 147.949ZM16.2287 154V145.273H17.2855V149.602H17.3878L21.3082 145.273H22.6889L19.0241 149.21L22.6889 154H21.4105L18.3764 149.943L17.2855 151.17V154H16.2287Z" fill="black" fill-opacity="0.4"/>
<path d="M19.25 201.119C18.608 201.119 18.0611 200.945 17.6094 200.595C17.1577 200.243 16.8125 199.733 16.5739 199.065C16.3352 198.395 16.2159 197.585 16.2159 196.636C16.2159 195.693 16.3352 194.888 16.5739 194.22C16.8153 193.55 17.1619 193.038 17.6136 192.686C18.0682 192.331 18.6136 192.153 19.25 192.153C19.8864 192.153 20.4304 192.331 20.8821 192.686C21.3366 193.038 21.6832 193.55 21.9219 194.22C22.1634 194.888 22.2841 195.693 22.2841 196.636C22.2841 197.585 22.1648 198.395 21.9261 199.065C21.6875 199.733 21.3423 200.243 20.8906 200.595C20.4389 200.945 19.892 201.119 19.25 201.119ZM19.25 200.182C19.8864 200.182 20.3807 199.875 20.733 199.261C21.0852 198.648 21.2614 197.773 21.2614 196.636C21.2614 195.881 21.1804 195.237 21.0185 194.706C20.8594 194.175 20.6293 193.77 20.3281 193.491C20.0298 193.213 19.6705 193.074 19.25 193.074C18.6193 193.074 18.1264 193.385 17.7713 194.007C17.4162 194.626 17.2386 195.503 17.2386 196.636C17.2386 197.392 17.3182 198.034 17.4773 198.562C17.6364 199.091 17.8651 199.493 18.1634 199.768C18.4645 200.044 18.8267 200.182 19.25 200.182Z" fill="black" fill-opacity="0.4"/>
<line x1="39.5" y1="15.5" x2="698.5" y2="15.5" stroke="black" stroke-opacity="0.05" stroke-linecap="round"/>
<line x1="39.5" y1="63" x2="698.5" y2="63" stroke="black" stroke-opacity="0.05" stroke-linecap="round"/>
<line x1="39.5" y1="110.5" x2="698.5" y2="110.5" stroke="black" stroke-opacity="0.05" stroke-linecap="round"/>
<line x1="39.5" y1="158" x2="698.5" y2="158" stroke="black" stroke-opacity="0.05" stroke-linecap="round"/>
<line x1="39.5" y1="205.5" x2="698.5" y2="205.5" stroke="black" stroke-opacity="0.2" stroke-linecap="round"/>
<path d="M82.7071 222.696V231H81.6151V224.808L78.8551 231H78.0871L75.3151 224.796V231H74.2231V222.696H75.3991L78.4711 229.56L81.5431 222.696H82.7071ZM87.427 231.108C86.811 231.108 86.251 230.968 85.747 230.688C85.251 230.408 84.859 230.012 84.571 229.5C84.291 228.98 84.151 228.38 84.151 227.7C84.151 227.028 84.295 226.436 84.583 225.924C84.879 225.404 85.279 225.008 85.783 224.736C86.287 224.456 86.851 224.316 87.475 224.316C88.099 224.316 88.663 224.456 89.167 224.736C89.671 225.008 90.067 225.4 90.355 225.912C90.651 226.424 90.799 227.02 90.799 227.7C90.799 228.38 90.647 228.98 90.343 229.5C90.047 230.012 89.643 230.408 89.131 230.688C88.619 230.968 88.051 231.108 87.427 231.108ZM87.427 230.148C87.819 230.148 88.187 230.056 88.531 229.872C88.875 229.688 89.151 229.412 89.359 229.044C89.575 228.676 89.683 228.228 89.683 227.7C89.683 227.172 89.579 226.724 89.371 226.356C89.163 225.988 88.891 225.716 88.555 225.54C88.219 225.356 87.855 225.264 87.463 225.264C87.063 225.264 86.695 225.356 86.359 225.54C86.031 225.716 85.767 225.988 85.567 226.356C85.367 226.724 85.267 227.172 85.267 227.7C85.267 228.236 85.363 228.688 85.555 229.056C85.755 229.424 86.019 229.7 86.347 229.884C86.675 230.06 87.035 230.148 87.427 230.148ZM95.4388 224.304C96.2388 224.304 96.8868 224.548 97.3828 225.036C97.8788 225.516 98.1268 226.212 98.1268 227.124V231H97.0468V227.28C97.0468 226.624 96.8828 226.124 96.5548 225.78C96.2268 225.428 95.7788 225.252 95.2108 225.252C94.6348 225.252 94.1748 225.432 93.8308 225.792C93.4948 226.152 93.3268 226.676 93.3268 227.364V231H92.2348V224.424H93.3268V225.36C93.5428 225.024 93.8348 224.764 94.2028 224.58C94.5788 224.396 94.9908 224.304 95.4388 224.304Z" fill="black" fill-opacity="0.4"/>
<path d="M175.696 222.636V223.524H173.416V231H172.324V223.524H170.032V222.636H175.696ZM182.872 224.424V231H181.78V230.028C181.572 230.364 181.28 230.628 180.904 230.82C180.536 231.004 180.128 231.096 179.68 231.096C179.168 231.096 178.708 230.992 178.3 230.784C177.892 230.568 177.568 230.248 177.328 229.824C177.096 229.4 176.98 228.884 176.98 228.276V224.424H178.06V228.132C178.06 228.78 178.224 229.28 178.552 229.632C178.88 229.976 179.328 230.148 179.896 230.148C180.48 230.148 180.94 229.968 181.276 229.608C181.612 229.248 181.78 228.724 181.78 228.036V224.424H182.872ZM190.716 227.46C190.716 227.668 190.704 227.888 190.68 228.12H185.424C185.464 228.768 185.684 229.276 186.084 229.644C186.492 230.004 186.984 230.184 187.56 230.184C188.032 230.184 188.424 230.076 188.736 229.86C189.056 229.636 189.28 229.34 189.408 228.972H190.584C190.408 229.604 190.056 230.12 189.528 230.52C189 230.912 188.344 231.108 187.56 231.108C186.936 231.108 186.376 230.968 185.88 230.688C185.392 230.408 185.008 230.012 184.728 229.5C184.448 228.98 184.308 228.38 184.308 227.7C184.308 227.02 184.444 226.424 184.716 225.912C184.988 225.4 185.368 225.008 185.856 224.736C186.352 224.456 186.92 224.316 187.56 224.316C188.184 224.316 188.736 224.452 189.216 224.724C189.696 224.996 190.064 225.372 190.32 225.852C190.584 226.324 190.716 226.86 190.716 227.46ZM189.588 227.232C189.588 226.816 189.496 226.46 189.312 226.164C189.128 225.86 188.876 225.632 188.556 225.48C188.244 225.32 187.896 225.24 187.512 225.24C186.96 225.24 186.488 225.416 186.096 225.768C185.712 226.12 185.492 226.608 185.436 227.232H189.588Z" fill="black" fill-opacity="0.4"/>
<path d="M272.521 222.636L270.097 231H268.873L266.929 224.268L264.913 231L263.701 231.012L261.361 222.636H262.525L264.349 229.728L266.365 222.636H267.589L269.509 229.704L271.345 222.636H272.521ZM279.716 227.46C279.716 227.668 279.704 227.888 279.68 228.12H274.424C274.464 228.768 274.684 229.276 275.084 229.644C275.492 230.004 275.984 230.184 276.56 230.184C277.032 230.184 277.424 230.076 277.736 229.86C278.056 229.636 278.28 229.34 278.408 228.972H279.584C279.408 229.604 279.056 230.12 278.528 230.52C278 230.912 277.344 231.108 276.56 231.108C275.936 231.108 275.376 230.968 274.88 230.688C274.392 230.408 274.008 230.012 273.728 229.5C273.448 228.98 273.308 228.38 273.308 227.7C273.308 227.02 273.444 226.424 273.716 225.912C273.988 225.4 274.368 225.008 274.856 224.736C275.352 224.456 275.92 224.316 276.56 224.316C277.184 224.316 277.736 224.452 278.216 224.724C278.696 224.996 279.064 225.372 279.32 225.852C279.584 226.324 279.716 226.86 279.716 227.46ZM278.588 227.232C278.588 226.816 278.496 226.46 278.312 226.164C278.128 225.86 277.876 225.632 277.556 225.48C277.244 225.32 276.896 225.24 276.512 225.24C275.96 225.24 275.488 225.416 275.096 225.768C274.712 226.12 274.492 226.608 274.436 227.232H278.588ZM280.75 227.688C280.75 227.016 280.886 226.428 281.158 225.924C281.43 225.412 281.802 225.016 282.274 224.736C282.754 224.456 283.29 224.316 283.882 224.316C284.394 224.316 284.87 224.436 285.31 224.676C285.75 224.908 286.086 225.216 286.318 225.6V222.12H287.422V231H286.318V229.764C286.102 230.156 285.782 230.48 285.358 230.736C284.934 230.984 284.438 231.108 283.87 231.108C283.286 231.108 282.754 230.964 282.274 230.676C281.802 230.388 281.43 229.984 281.158 229.464C280.886 228.944 280.75 228.352 280.75 227.688ZM286.318 227.7C286.318 227.204 286.218 226.772 286.018 226.404C285.818 226.036 285.546 225.756 285.202 225.564C284.866 225.364 284.494 225.264 284.086 225.264C283.678 225.264 283.306 225.36 282.97 225.552C282.634 225.744 282.366 226.024 282.166 226.392C281.966 226.76 281.866 227.192 281.866 227.688C281.866 228.192 281.966 228.632 282.166 229.008C282.366 229.376 282.634 229.66 282.97 229.86C283.306 230.052 283.678 230.148 284.086 230.148C284.494 230.148 284.866 230.052 285.202 229.86C285.546 229.66 285.818 229.376 286.018 229.008C286.218 228.632 286.318 228.196 286.318 227.7Z" fill="black" fill-opacity="0.4"/>
<path d="M364.15 222.636V223.524H361.87V231H360.778V223.524H358.486V222.636H364.15ZM368.759 224.304C369.255 224.304 369.703 224.412 370.103 224.628C370.503 224.836 370.815 225.152 371.039 225.576C371.271 226 371.387 226.516 371.387 227.124V231H370.307V227.28C370.307 226.624 370.143 226.124 369.815 225.78C369.487 225.428 369.039 225.252 368.471 225.252C367.895 225.252 367.435 225.432 367.091 225.792C366.755 226.152 366.587 226.676 366.587 227.364V231H365.495V222.12H366.587V225.36C366.803 225.024 367.099 224.764 367.475 224.58C367.859 224.396 368.287 224.304 368.759 224.304ZM379.002 224.424V231H377.91V230.028C377.702 230.364 377.41 230.628 377.034 230.82C376.666 231.004 376.258 231.096 375.81 231.096C375.298 231.096 374.838 230.992 374.43 230.784C374.022 230.568 373.698 230.248 373.458 229.824C373.226 229.4 373.11 228.884 373.11 228.276V224.424H374.19V228.132C374.19 228.78 374.354 229.28 374.682 229.632C375.01 229.976 375.458 230.148 376.026 230.148C376.61 230.148 377.07 229.968 377.406 229.608C377.742 229.248 377.91 228.724 377.91 228.036V224.424H379.002Z" fill="black" fill-opacity="0.4"/>
<path d="M462.199 222.636V223.524H458.563V226.344H461.515V227.232H458.563V231H457.471V222.636H462.199ZM464.61 225.492C464.802 225.116 465.074 224.824 465.426 224.616C465.786 224.408 466.222 224.304 466.734 224.304V225.432H466.446C465.222 225.432 464.61 226.096 464.61 227.424V231H463.518V224.424H464.61V225.492ZM468.559 223.356C468.351 223.356 468.175 223.284 468.031 223.14C467.887 222.996 467.815 222.82 467.815 222.612C467.815 222.404 467.887 222.228 468.031 222.084C468.175 221.94 468.351 221.868 468.559 221.868C468.759 221.868 468.927 221.94 469.063 222.084C469.207 222.228 469.279 222.404 469.279 222.612C469.279 222.82 469.207 222.996 469.063 223.14C468.927 223.284 468.759 223.356 468.559 223.356ZM469.087 224.424V231H467.995V224.424H469.087Z" fill="black" fill-opacity="0.4"/>
<path d="M551.386 231.084C550.834 231.084 550.338 230.988 549.898 230.796C549.466 230.596 549.126 230.324 548.878 229.98C548.63 229.628 548.502 229.224 548.494 228.768H549.658C549.698 229.16 549.858 229.492 550.138 229.764C550.426 230.028 550.842 230.16 551.386 230.16C551.906 230.16 552.314 230.032 552.61 229.776C552.914 229.512 553.066 229.176 553.066 228.768C553.066 228.448 552.978 228.188 552.802 227.988C552.626 227.788 552.406 227.636 552.142 227.532C551.878 227.428 551.522 227.316 551.074 227.196C550.522 227.052 550.078 226.908 549.742 226.764C549.414 226.62 549.13 226.396 548.89 226.092C548.658 225.78 548.542 225.364 548.542 224.844C548.542 224.388 548.658 223.984 548.89 223.632C549.122 223.28 549.446 223.008 549.862 222.816C550.286 222.624 550.77 222.528 551.314 222.528C552.098 222.528 552.738 222.724 553.234 223.116C553.738 223.508 554.022 224.028 554.086 224.676H552.886C552.846 224.356 552.678 224.076 552.382 223.836C552.086 223.588 551.694 223.464 551.206 223.464C550.75 223.464 550.378 223.584 550.09 223.824C549.802 224.056 549.658 224.384 549.658 224.808C549.658 225.112 549.742 225.36 549.91 225.552C550.086 225.744 550.298 225.892 550.546 225.996C550.802 226.092 551.158 226.204 551.614 226.332C552.166 226.484 552.61 226.636 552.946 226.788C553.282 226.932 553.57 227.16 553.81 227.472C554.05 227.776 554.17 228.192 554.17 228.72C554.17 229.128 554.062 229.512 553.846 229.872C553.63 230.232 553.31 230.524 552.886 230.748C552.462 230.972 551.962 231.084 551.386 231.084ZM555.369 227.688C555.369 227.016 555.505 226.428 555.777 225.924C556.049 225.412 556.421 225.016 556.893 224.736C557.373 224.456 557.905 224.316 558.489 224.316C559.065 224.316 559.565 224.44 559.989 224.688C560.413 224.936 560.729 225.248 560.937 225.624V224.424H562.041V231H560.937V229.776C560.721 230.16 560.397 230.48 559.965 230.736C559.541 230.984 559.045 231.108 558.477 231.108C557.893 231.108 557.365 230.964 556.893 230.676C556.421 230.388 556.049 229.984 555.777 229.464C555.505 228.944 555.369 228.352 555.369 227.688ZM560.937 227.7C560.937 227.204 560.837 226.772 560.637 226.404C560.437 226.036 560.165 225.756 559.821 225.564C559.485 225.364 559.113 225.264 558.705 225.264C558.297 225.264 557.925 225.36 557.589 225.552C557.253 225.744 556.985 226.024 556.785 226.392C556.585 226.76 556.485 227.192 556.485 227.688C556.485 228.192 556.585 228.632 556.785 229.008C556.985 229.376 557.253 229.66 557.589 229.86C557.925 230.052 558.297 230.148 558.705 230.148C559.113 230.148 559.485 230.052 559.821 229.86C560.165 229.66 560.437 229.376 560.637 229.008C560.837 228.632 560.937 228.196 560.937 227.7ZM565.218 225.324V229.2C565.218 229.52 565.286 229.748 565.422 229.884C565.558 230.012 565.794 230.076 566.13 230.076H566.934V231H565.95C565.342 231 564.886 230.86 564.582 230.58C564.278 230.3 564.126 229.84 564.126 229.2V225.324H563.274V224.424H564.126V222.768H565.218V224.424H566.934V225.324H565.218Z" fill="black" fill-opacity="0.4"/>
<path d="M644.235 231.084C643.683 231.084 643.187 230.988 642.747 230.796C642.315 230.596 641.975 230.324 641.727 229.98C641.479 229.628 641.351 229.224 641.343 228.768H642.507C642.547 229.16 642.707 229.492 642.987 229.764C643.275 230.028 643.691 230.16 644.235 230.16C644.755 230.16 645.163 230.032 645.459 229.776C645.763 229.512 645.915 229.176 645.915 228.768C645.915 228.448 645.827 228.188 645.651 227.988C645.475 227.788 645.255 227.636 644.991 227.532C644.727 227.428 644.371 227.316 643.923 227.196C643.371 227.052 642.927 226.908 642.591 226.764C642.263 226.62 641.979 226.396 641.739 226.092C641.507 225.78 641.391 225.364 641.391 224.844C641.391 224.388 641.507 223.984 641.739 223.632C641.971 223.28 642.295 223.008 642.711 222.816C643.135 222.624 643.619 222.528 644.163 222.528C644.947 222.528 645.587 222.724 646.083 223.116C646.587 223.508 646.871 224.028 646.935 224.676H645.735C645.695 224.356 645.527 224.076 645.231 223.836C644.935 223.588 644.543 223.464 644.055 223.464C643.599 223.464 643.227 223.584 642.939 223.824C642.651 224.056 642.507 224.384 642.507 224.808C642.507 225.112 642.591 225.36 642.759 225.552C642.935 225.744 643.147 225.892 643.395 225.996C643.651 226.092 644.007 226.204 644.463 226.332C645.015 226.484 645.459 226.636 645.795 226.788C646.131 226.932 646.419 227.16 646.659 227.472C646.899 227.776 647.019 228.192 647.019 228.72C647.019 229.128 646.911 229.512 646.695 229.872C646.479 230.232 646.159 230.524 645.735 230.748C645.311 230.972 644.811 231.084 644.235 231.084ZM654.458 224.424V231H653.366V230.028C653.158 230.364 652.866 230.628 652.49 230.82C652.122 231.004 651.714 231.096 651.266 231.096C650.754 231.096 650.294 230.992 649.886 230.784C649.478 230.568 649.154 230.248 648.914 229.824C648.682 229.4 648.566 228.884 648.566 228.276V224.424H649.646V228.132C649.646 228.78 649.81 229.28 650.138 229.632C650.466 229.976 650.914 230.148 651.482 230.148C652.066 230.148 652.526 229.968 652.862 229.608C653.198 229.248 653.366 228.724 653.366 228.036V224.424H654.458ZM659.506 224.304C660.306 224.304 660.954 224.548 661.45 225.036C661.946 225.516 662.194 226.212 662.194 227.124V231H661.114V227.28C661.114 226.624 660.95 226.124 660.622 225.78C660.294 225.428 659.846 225.252 659.278 225.252C658.702 225.252 658.242 225.432 657.898 225.792C657.562 226.152 657.394 226.676 657.394 227.364V231H656.302V224.424H657.394V225.36C657.61 225.024 657.902 224.764 658.27 224.58C658.646 224.396 659.058 224.304 659.506 224.304Z" fill="black" fill-opacity="0.4"/>
</svg>
