<svg width="24" height="24" viewBox="0 0 24 24" fill="none" xmlns="http://www.w3.org/2000/svg">
<path d="M6.09801 4.02616C2.97144 5.13241 0.355819 6.0746 0.285507 6.12616C-0.108243 6.41679 -0.0707434 7.02616 0.355819 7.2746C0.430819 7.31679 3.05582 8.26366 6.18707 9.3746C11.0058 11.0902 11.9105 11.3949 12.0699 11.3762C12.2761 11.3527 23.4277 7.40116 23.6433 7.2746C23.8777 7.13866 23.9761 6.96054 23.9761 6.67929C23.9761 6.39804 23.8777 6.21991 23.6433 6.08398C23.5683 6.04179 20.9855 5.11366 17.9058 4.02616C13.7339 2.55429 12.2386 2.04335 12.0464 2.02929C11.8074 2.01523 11.3808 2.16054 6.09801 4.02616Z" fill="#E66500"/>
<path d="M21.5761 9.52949L20.9058 9.76856V12.567V15.3654L20.6292 15.6467C20.4136 15.8576 20.3339 15.9795 20.2777 16.1717C20.1089 16.7389 20.2402 17.2545 20.6527 17.6529L20.9011 17.892L20.9152 19.7248C20.9292 21.5014 20.9339 21.5576 21.0277 21.6889C21.3324 22.092 21.8855 22.092 22.1902 21.6889C22.2839 21.5576 22.2886 21.5014 22.3027 19.692L22.3167 17.8264L22.4386 17.7607C22.6214 17.6623 22.8699 17.3107 22.9495 17.0201C23.1042 16.4998 22.9402 15.9373 22.523 15.5764L22.312 15.3842V12.3326C22.312 10.6545 22.298 9.28106 22.2792 9.28574C22.2558 9.28574 21.9417 9.39356 21.5761 9.52949Z" fill="#E66500"/>
<path d="M4.93113 12.1033C4.94519 13.7346 4.94519 13.7627 5.05769 13.983C5.34832 14.5783 6.16863 15.0799 7.50457 15.483C10.1858 16.2986 13.8093 16.2986 16.4999 15.483C17.8264 15.0846 18.6514 14.5736 18.9468 13.9783C19.0546 13.7627 19.0546 13.7205 19.0686 12.1033C19.078 10.9549 19.0686 10.4533 19.0358 10.4533C19.0077 10.4533 17.5218 10.9736 15.7358 11.6111L12.4921 12.7736L11.9999 12.7689H11.5077L8.26863 11.6111C6.48269 10.9736 5.00144 10.4533 4.96863 10.4533C4.93113 10.4533 4.91707 10.8518 4.93113 12.1033Z" fill="#E66500"/>
</svg>
