<svg width="24" height="24" viewBox="0 0 24 24" fill="none" xmlns="http://www.w3.org/2000/svg">
<path d="M4.4998 1.56636C3.81074 1.75855 3.24824 2.32573 3.06543 3.01948C2.97168 3.37573 2.97168 20.6257 3.06543 20.982C3.25293 21.6851 3.81543 22.2476 4.52324 22.4351C4.83262 22.5195 19.0217 22.5335 19.4154 22.4492C20.1514 22.2945 20.7889 21.6523 20.9482 20.9164C20.9857 20.7382 20.9998 18.6523 20.9998 13.5945V6.52105L18.8295 6.50698L16.6639 6.49292L16.3967 6.36636C16.0451 6.2023 15.7357 5.87886 15.6139 5.55073C15.5201 5.30698 15.5154 5.19917 15.5154 3.39917V1.50073L10.1154 1.50542C5.93887 1.51011 4.66387 1.52417 4.4998 1.56636ZM9.23887 4.57573C9.43574 4.67417 9.53887 4.9273 9.46855 5.13823C9.44043 5.22261 9.36074 5.3398 9.29512 5.39136C9.17793 5.48042 9.10762 5.48511 7.50449 5.48511C5.64824 5.48511 5.68105 5.4898 5.54512 5.17105C5.45605 4.95073 5.53105 4.71636 5.7373 4.5898C5.87324 4.50542 5.98574 4.50073 7.49043 4.50073C8.85918 4.50073 9.12168 4.51011 9.23887 4.57573ZM17.6154 7.63667C17.9342 7.78198 18.2904 8.16636 18.4076 8.49448C18.4873 8.72886 18.492 9.0148 18.492 13.782V18.821L18.3701 19.0789C18.1967 19.4539 17.9904 19.6648 17.6342 19.8382L17.3201 19.9929H13.992H10.6639L10.4014 19.871C10.0779 19.7164 9.77324 19.4257 9.64199 19.1304C9.55762 18.9523 9.53418 18.7976 9.51543 18.2117L9.49199 17.5085L8.03887 17.4851C6.61855 17.4617 6.58105 17.457 6.35605 17.3492C6.04668 17.1945 5.78418 16.9226 5.62949 16.5992L5.50762 16.3367L5.49355 12.6804C5.47949 8.94917 5.48887 8.64917 5.65762 8.32573C5.75605 8.13355 6.08887 7.78667 6.25293 7.7023C6.63262 7.50073 6.54355 7.50542 12.0701 7.5148L17.367 7.52417L17.6154 7.63667Z" fill="#E66500"/>
<path d="M6.81563 8.55C6.53438 8.67187 6.51562 8.74687 6.51562 9.66562V10.5H10.5H14.4844V9.49219V8.48438H10.725C7.65938 8.48906 6.93281 8.49844 6.81563 8.55Z" fill="#E66500"/>
<path d="M15.5156 9.49219V10.5H16.5H17.4844V9.66562C17.4844 8.48906 17.4797 8.48438 16.2656 8.48438H15.5156V9.49219Z" fill="#E66500"/>
<path d="M6.51562 12.4922V13.5H10.5H14.4844V12.4922V11.4844H10.5H6.51562V12.4922Z" fill="#E66500"/>
<path d="M15.5156 12.4922V13.5H16.5H17.4844V12.4922V11.4844H16.5H15.5156V12.4922Z" fill="#E66500"/>
<path d="M6.51562 15.3047C6.51562 16.1859 6.53906 16.2984 6.75 16.4203C6.87188 16.4953 7.21875 16.5 10.6828 16.5H14.4844V15.4922V14.4844H10.5H6.51562V15.3047Z" fill="#E66500"/>
<path d="M15.5156 15.4922V16.5H16.5H17.4844V15.4922V14.4844H16.5H15.5156V15.4922Z" fill="#E66500"/>
<path d="M10.5 18.0516C10.5 18.6703 10.5516 18.8344 10.7672 18.9328C10.8422 18.9703 11.8688 18.9844 14.0438 18.9844H17.2125L17.3484 18.8484L17.4844 18.7125V18.0984V17.4844H13.9922H10.5V18.0516Z" fill="#E66500"/>
<path d="M16.5 3.39844C16.5 5.26875 16.5047 5.31563 16.7672 5.43281C16.8422 5.46563 17.5078 5.48438 18.7641 5.48438H20.6437L20.4375 5.26875C19.8703 4.6875 16.8516 1.88438 16.6875 1.78594L16.5 1.67813V3.39844Z" fill="#E66500"/>
</svg>
