<svg width="55" height="45" viewBox="0 0 55 45" fill="none" xmlns="http://www.w3.org/2000/svg">
<g clip-path="url(#clip0_2_1868)">
<path d="M32 7H22C19.24 7 17 9.24 17 12C17 14.76 19.24 17 22 17H32C34.76 17 37 14.76 37 12C37 9.24 34.76 7 32 7ZM22 15C20.34 15 19 13.66 19 12C19 10.34 20.34 9 22 9C23.66 9 25 10.34 25 12C25 13.66 23.66 15 22 15Z" fill="#323232"/>
</g>
<path d="M2.95093 34.1244C3.70064 34.1244 4.34841 34.2658 4.89425 34.5486C5.44666 34.8248 5.86755 35.2227 6.15691 35.7422C6.45284 36.2617 6.60081 36.8733 6.60081 37.577C6.60081 38.2807 6.45284 38.8923 6.15691 39.4118C5.86755 39.9248 5.44666 40.3193 4.89425 40.5956C4.34841 40.8652 3.70064 41 2.95093 41H0.810326V34.1244H2.95093ZM2.95093 40.3095C3.83216 40.3095 4.50624 40.0694 4.97316 39.5894C5.44666 39.1027 5.68341 38.4319 5.68341 37.577C5.68341 36.7221 5.44666 36.0546 4.97316 35.5745C4.50624 35.0944 3.83216 34.8544 2.95093 34.8544H1.708V40.3095H2.95093ZM7.69608 38.2774C7.69608 37.725 7.80788 37.2416 8.03148 36.8273C8.25508 36.4064 8.56088 36.0809 8.94888 35.8507C9.34346 35.6205 9.78079 35.5054 10.2609 35.5054C10.7344 35.5054 11.1454 35.6074 11.4939 35.8113C11.8425 36.0151 12.1022 36.2716 12.2732 36.5807V35.5942H13.1808V41H12.2732V39.9938C12.0957 40.3095 11.8293 40.5725 11.4742 40.783C11.1257 40.9868 10.7179 41.0888 10.251 41.0888C9.77093 41.0888 9.33689 40.9704 8.94888 40.7337C8.56088 40.4969 8.25508 40.1648 8.03148 39.7373C7.80788 39.3099 7.69608 38.8232 7.69608 38.2774ZM12.2732 38.2873C12.2732 37.8795 12.191 37.5244 12.0266 37.2219C11.8622 36.9194 11.6386 36.6892 11.3558 36.5314C11.0796 36.367 10.7738 36.2847 10.4384 36.2847C10.103 36.2847 9.79723 36.3637 9.52102 36.5215C9.24482 36.6793 9.02451 36.9095 8.8601 37.212C8.69569 37.5145 8.61349 37.8697 8.61349 38.2774C8.61349 38.6917 8.69569 39.0534 8.8601 39.3625C9.02451 39.665 9.24482 39.8985 9.52102 40.0629C9.79723 40.2207 10.103 40.2996 10.4384 40.2996C10.7738 40.2996 11.0796 40.2207 11.3558 40.0629C11.6386 39.8985 11.8622 39.665 12.0266 39.3625C12.191 39.0534 12.2732 38.695 12.2732 38.2873ZM15.842 36.6201C15.9999 36.265 16.2235 35.9888 16.5128 35.7915C16.8088 35.5942 17.1672 35.4956 17.5881 35.4956V36.4229H17.3513C16.3451 36.4229 15.842 36.9687 15.842 38.0604V41H14.9444V35.5942H15.842V36.6201ZM21.8895 41L19.7686 38.6128V41H18.8709V33.7002H19.7686V37.9913L21.85 35.5942H23.1028L20.5578 38.2873L23.1127 41H21.8895ZM34.3533 34.1737V41H33.4556V35.9099L31.1868 41H30.5555L28.2768 35.9198V41H27.3791V34.1737H28.3458L30.8711 39.8163L33.3965 34.1737H34.3533ZM38.4799 41.0888C37.9735 41.0888 37.5132 40.9737 37.0989 40.7435C36.6912 40.5133 36.3689 40.1878 36.1322 39.7669C35.902 39.3395 35.7869 38.8462 35.7869 38.2873C35.7869 37.7348 35.9053 37.2482 36.142 36.8273C36.3854 36.3998 36.7142 36.0743 37.1285 35.8507C37.5428 35.6205 38.0064 35.5054 38.5194 35.5054C39.0323 35.5054 39.496 35.6205 39.9103 35.8507C40.3246 36.0743 40.6501 36.3965 40.8869 36.8174C41.1302 37.2383 41.2519 37.7283 41.2519 38.2873C41.2519 38.8462 41.1269 39.3395 40.877 39.7669C40.6337 40.1878 40.3016 40.5133 39.8807 40.7435C39.4598 40.9737 38.9929 41.0888 38.4799 41.0888ZM38.4799 40.3292C38.8022 40.3292 39.1047 40.2536 39.3875 40.1023C39.6702 39.9445 39.8971 39.711 40.0681 39.4019C40.2457 39.0929 40.3345 38.7213 40.3345 38.2873C40.3345 37.8532 40.249 37.4849 40.078 37.1824C39.907 36.8733 39.6834 36.6432 39.4072 36.4919C39.131 36.3406 38.8318 36.265 38.5095 36.265C38.1807 36.265 37.8782 36.3406 37.602 36.4919C37.3324 36.6432 37.1153 36.8733 36.9509 37.1824C36.7865 37.4849 36.7043 37.8532 36.7043 38.2873C36.7043 38.7279 36.7832 39.1027 36.9411 39.4118C37.1055 39.7143 37.3225 39.9445 37.5921 40.1023C37.8617 40.2536 38.1577 40.3292 38.4799 40.3292ZM42.3434 38.2774C42.3434 37.725 42.4552 37.2416 42.6788 36.8273C42.9024 36.4064 43.2082 36.0809 43.5962 35.8507C43.9907 35.6205 44.4314 35.5054 44.918 35.5054C45.3389 35.5054 45.7302 35.6041 46.0919 35.8014C46.4536 35.9921 46.7298 36.2453 46.9205 36.561V33.7002H47.8281V41H46.9205V39.984C46.743 40.3062 46.4799 40.5725 46.1313 40.783C45.7828 40.9868 45.3751 41.0888 44.9081 41.0888C44.4281 41.0888 43.9907 40.9704 43.5962 40.7337C43.2082 40.4969 42.9024 40.1648 42.6788 39.7373C42.4552 39.3099 42.3434 38.8232 42.3434 38.2774ZM46.9205 38.2873C46.9205 37.8795 46.8383 37.5244 46.6739 37.2219C46.5095 36.9194 46.2859 36.6892 46.0031 36.5314C45.7269 36.367 45.4211 36.2847 45.0857 36.2847C44.7503 36.2847 44.4445 36.3637 44.1683 36.5215C43.8921 36.6793 43.6718 36.9095 43.5074 37.212C43.343 37.5145 43.2608 37.8697 43.2608 38.2774C43.2608 38.6917 43.343 39.0534 43.5074 39.3625C43.6718 39.665 43.8921 39.8985 44.1683 40.0629C44.4445 40.2207 44.7503 40.2996 45.0857 40.2996C45.4211 40.2996 45.7269 40.2207 46.0031 40.0629C46.2859 39.8985 46.5095 39.665 46.6739 39.3625C46.8383 39.0534 46.9205 38.695 46.9205 38.2873ZM54.5239 38.0702C54.5239 38.2346 54.514 38.4122 54.4943 38.6029H50.1736C50.2 39.1356 50.3775 39.5565 50.7063 39.8656C51.0417 40.1747 51.4495 40.3292 51.9295 40.3292C52.3175 40.3292 52.6398 40.2404 52.8963 40.0629C53.1593 39.8787 53.3435 39.6354 53.4487 39.3329H54.4154C54.2707 39.8524 53.9814 40.2766 53.5473 40.6054C53.1133 40.9277 52.574 41.0888 51.9295 41.0888C51.4166 41.0888 50.9562 40.9737 50.5485 40.7435C50.1473 40.5133 49.8317 40.1878 49.6015 39.7669C49.3713 39.3395 49.2562 38.8462 49.2562 38.2873C49.2562 37.7283 49.368 37.2383 49.5916 36.8174C49.8152 36.3965 50.1276 36.0743 50.5288 35.8507C50.9365 35.6205 51.4034 35.5054 51.9295 35.5054C52.4425 35.5054 52.893 35.6172 53.281 35.8408C53.6756 36.0644 53.9814 36.3702 54.1984 36.7582C54.4154 37.1463 54.5239 37.5836 54.5239 38.0702ZM53.5966 37.9519C53.5966 37.5967 53.521 37.2942 53.3698 37.0443C53.2185 36.7878 53.0113 36.5938 52.7483 36.4623C52.4918 36.3308 52.2057 36.265 51.8901 36.265C51.4297 36.265 51.0384 36.4163 50.7162 36.7188C50.394 37.0147 50.2164 37.4257 50.1835 37.9519H53.5966Z" fill="#464255"/>
<defs>
<clipPath id="clip0_2_1868">
<rect width="24" height="24" fill="white" transform="translate(15)"/>
</clipPath>
</defs>
</svg>
