<svg width="60" height="42" viewBox="0 0 60 42" fill="none" xmlns="http://www.w3.org/2000/svg">
<path d="M25.9617 22.528V18.8587C25.9617 17.9221 26.7266 17.1628 27.6701 17.1628H31.1191C31.5722 17.1628 32.0068 17.3414 32.3271 17.6595C32.6475 17.9776 32.8275 18.4089 32.8275 18.8587V22.528C32.8247 22.9174 32.9785 23.2919 33.2548 23.5682C33.5312 23.8446 33.9073 24 34.2995 24H36.6526C37.7516 24.0028 38.8065 23.5714 39.5846 22.801C40.3627 22.0305 40.8 20.9844 40.8 19.8934V9.44023C40.8 8.55895 40.4065 7.72301 39.7255 7.1576L31.7208 0.811043C30.3284 -0.301726 28.3333 -0.265797 26.9825 0.896375L19.1604 7.1576C18.4473 7.70634 18.0211 8.54476 18 9.44023V19.8827C18 22.1566 19.8569 24 22.1474 24H24.4467C25.2615 24 25.9236 23.3475 25.9295 22.5387L25.9617 22.528Z" fill="#E66500"/>
<path d="M3.92158 34.0751C4.65156 34.0751 5.28946 34.2198 5.8353 34.5091C6.38114 34.7985 6.80203 35.2062 7.09796 35.7323C7.40048 36.2519 7.55173 36.8536 7.55173 37.5375C7.55173 38.2149 7.40048 38.8166 7.09796 39.3428C6.80203 39.8689 6.37785 40.2766 5.82544 40.566C5.2796 40.8553 4.64498 41 3.92158 41H1.32721V34.0751H3.92158ZM3.81307 39.5598C4.45098 39.5598 4.94749 39.3822 5.30262 39.0271C5.65774 38.672 5.8353 38.1755 5.8353 37.5375C5.8353 36.8996 5.65774 36.4031 5.30262 36.048C4.94749 35.6929 4.45098 35.5153 3.81307 35.5153H3.01404V39.5598H3.81307ZM8.40563 38.2379C8.40563 37.6724 8.51085 37.1758 8.7213 36.7484C8.93832 36.3209 9.23097 35.9921 9.59924 35.7619C9.96752 35.5318 10.3785 35.4167 10.8323 35.4167C11.2203 35.4167 11.559 35.4956 11.8484 35.6534C12.1443 35.8113 12.3712 36.0184 12.529 36.2749V35.4956H14.2158V41H12.529V40.2207C12.3646 40.4772 12.1344 40.6843 11.8385 40.8422C11.5491 41 11.2105 41.0789 10.8224 41.0789C10.3753 41.0789 9.96752 40.9638 9.59924 40.7337C9.23097 40.4969 8.93832 40.1648 8.7213 39.7373C8.51085 39.3033 8.40563 38.8035 8.40563 38.2379ZM12.529 38.2478C12.529 37.8269 12.4106 37.4948 12.1739 37.2515C11.9437 37.0081 11.6609 36.8865 11.3255 36.8865C10.9901 36.8865 10.7041 37.0081 10.4673 37.2515C10.2371 37.4882 10.1221 37.817 10.1221 38.2379C10.1221 38.6588 10.2371 38.9942 10.4673 39.2441C10.7041 39.4874 10.9901 39.6091 11.3255 39.6091C11.6609 39.6091 11.9437 39.4874 12.1739 39.2441C12.4106 39.0008 12.529 38.6687 12.529 38.2478ZM17.9122 41.0789C17.4387 41.0789 17.0145 40.9967 16.6397 40.8323C16.2648 40.6679 15.9689 40.4443 15.7519 40.1615C15.5348 39.8722 15.4132 39.5499 15.3869 39.1948H17.054C17.0737 39.3987 17.1592 39.5631 17.3105 39.688C17.4683 39.8064 17.6656 39.8656 17.9023 39.8656C18.1128 39.8656 18.2739 39.8228 18.3857 39.7373C18.5041 39.6518 18.5633 39.5368 18.5633 39.3921C18.5633 39.2342 18.4811 39.1159 18.3166 39.037C18.1522 38.958 17.8826 38.8758 17.5078 38.7903C17.1132 38.6983 16.7844 38.6029 16.5213 38.5043C16.2648 38.4056 16.0412 38.2478 15.8505 38.0308C15.6664 37.8072 15.5743 37.5112 15.5743 37.143C15.5743 36.8207 15.6598 36.5314 15.8308 36.2749C16.0083 36.0118 16.2648 35.8047 16.6002 35.6534C16.9356 35.4956 17.3368 35.4167 17.8037 35.4167C18.4942 35.4167 19.0368 35.5877 19.4313 35.9296C19.8325 36.2716 20.0627 36.7254 20.1219 37.2909H18.5633C18.537 37.0871 18.4515 36.9292 18.3068 36.8174C18.1687 36.6991 17.9845 36.6399 17.7544 36.6399C17.5571 36.6399 17.4058 36.6793 17.3006 36.7582C17.1954 36.8372 17.1428 36.949 17.1428 37.0936C17.1428 37.2515 17.225 37.3698 17.3894 37.4488C17.5604 37.5277 17.8234 37.6066 18.1785 37.6855C18.5797 37.7842 18.9118 37.8861 19.1749 37.9913C19.4379 38.09 19.6648 38.2544 19.8555 38.4845C20.0462 38.7081 20.1416 39.0107 20.1416 39.3921C20.1416 39.7143 20.0528 40.0037 19.8752 40.2602C19.6977 40.5166 19.4379 40.7172 19.0959 40.8619C18.7605 41.0066 18.366 41.0789 17.9122 41.0789ZM24.8136 35.4364C25.4449 35.4364 25.9513 35.6468 26.3327 36.0677C26.7142 36.482 26.9049 37.0542 26.9049 37.7842V41H25.2279V38.011C25.2279 37.6428 25.1326 37.3567 24.9418 37.1528C24.7511 36.949 24.4946 36.847 24.1724 36.847C23.8502 36.847 23.5937 36.949 23.403 37.1528C23.2123 37.3567 23.1169 37.6428 23.1169 38.011V41H21.4301V33.7002H23.1169V36.2354C23.2879 35.9921 23.5213 35.7981 23.8173 35.6534C24.1132 35.5087 24.4453 35.4364 24.8136 35.4364ZM30.0105 36.2749C30.1684 36.0184 30.3952 35.8113 30.6912 35.6534C30.9871 35.4956 31.3258 35.4167 31.7072 35.4167C32.161 35.4167 32.572 35.5318 32.9403 35.7619C33.3086 35.9921 33.5979 36.3209 33.8084 36.7484C34.0254 37.1758 34.1339 37.6724 34.1339 38.2379C34.1339 38.8035 34.0254 39.3033 33.8084 39.7373C33.5979 40.1648 33.3086 40.4969 32.9403 40.7337C32.572 40.9638 32.161 41.0789 31.7072 41.0789C31.3192 41.0789 30.9805 41.0033 30.6912 40.852C30.4018 40.6942 30.1749 40.487 30.0105 40.2306V41H28.3237V33.7002H30.0105V36.2749ZM32.4175 38.2379C32.4175 37.817 32.2991 37.4882 32.0623 37.2515C31.8322 37.0081 31.5461 36.8865 31.2041 36.8865C30.8687 36.8865 30.5827 37.0081 30.3459 37.2515C30.1157 37.4948 30.0007 37.8269 30.0007 38.2478C30.0007 38.6687 30.1157 39.0008 30.3459 39.2441C30.5827 39.4874 30.8687 39.6091 31.2041 39.6091C31.5395 39.6091 31.8256 39.4874 32.0623 39.2441C32.2991 38.9942 32.4175 38.6588 32.4175 38.2379ZM37.7711 41.0789C37.2318 41.0789 36.7452 40.9638 36.3111 40.7337C35.8836 40.5035 35.545 40.1747 35.2951 39.7472C35.0517 39.3197 34.9301 38.8199 34.9301 38.2478C34.9301 37.6822 35.055 37.1857 35.3049 36.7582C35.5548 36.3242 35.8968 35.9921 36.3308 35.7619C36.7649 35.5318 37.2515 35.4167 37.7908 35.4167C38.3301 35.4167 38.8167 35.5318 39.2507 35.7619C39.6848 35.9921 40.0268 36.3242 40.2767 36.7582C40.5266 37.1857 40.6515 37.6822 40.6515 38.2478C40.6515 38.8134 40.5233 39.3132 40.2668 39.7472C40.0169 40.1747 39.6716 40.5035 39.231 40.7337C38.797 40.9638 38.3103 41.0789 37.7711 41.0789ZM37.7711 39.6288C38.0933 39.6288 38.3662 39.5105 38.5898 39.2737C38.82 39.0304 38.9351 38.6884 38.9351 38.2478C38.9351 37.8072 38.8233 37.4685 38.5997 37.2317C38.3827 36.9884 38.113 36.8668 37.7908 36.8668C37.462 36.8668 37.1891 36.9851 36.972 37.2219C36.755 37.4586 36.6465 37.8006 36.6465 38.2478C36.6465 38.6884 36.7517 39.0304 36.9622 39.2737C37.1792 39.5105 37.4488 39.6288 37.7711 39.6288ZM41.4576 38.2379C41.4576 37.6724 41.5628 37.1758 41.7733 36.7484C41.9903 36.3209 42.283 35.9921 42.6512 35.7619C43.0195 35.5318 43.4305 35.4167 43.8843 35.4167C44.2723 35.4167 44.611 35.4956 44.9004 35.6534C45.1963 35.8113 45.4232 36.0184 45.581 36.2749V35.4956H47.2678V41H45.581V40.2207C45.4166 40.4772 45.1864 40.6843 44.8905 40.8422C44.6011 41 44.2624 41.0789 43.8744 41.0789C43.4272 41.0789 43.0195 40.9638 42.6512 40.7337C42.283 40.4969 41.9903 40.1648 41.7733 39.7373C41.5628 39.3033 41.4576 38.8035 41.4576 38.2379ZM45.581 38.2478C45.581 37.8269 45.4626 37.4948 45.2259 37.2515C44.9957 37.0081 44.7129 36.8865 44.3775 36.8865C44.0421 36.8865 43.7561 37.0081 43.5193 37.2515C43.2891 37.4882 43.1741 37.817 43.1741 38.2379C43.1741 38.6588 43.2891 38.9942 43.5193 39.2441C43.7561 39.4874 44.0421 39.6091 44.3775 39.6091C44.7129 39.6091 44.9957 39.4874 45.2259 39.2441C45.4626 39.0008 45.581 38.6687 45.581 38.2478ZM50.4216 36.482C50.6189 36.1598 50.8655 35.9066 51.1615 35.7225C51.464 35.5318 51.7928 35.4364 52.1479 35.4364V37.2219H51.6843C51.2634 37.2219 50.9478 37.3139 50.7373 37.4981C50.5269 37.6756 50.4216 37.9913 50.4216 38.4451V41H48.7348V35.4956H50.4216V36.482ZM52.8654 38.2379C52.8654 37.6724 52.9707 37.1758 53.1811 36.7484C53.3981 36.3209 53.6908 35.9921 54.059 35.7619C54.4273 35.5318 54.8383 35.4167 55.2921 35.4167C55.6538 35.4167 55.9826 35.4923 56.2786 35.6436C56.5811 35.7948 56.8178 35.9987 56.9888 36.2552V33.7002H58.6756V41H56.9888V40.2108C56.831 40.4739 56.6041 40.6843 56.3082 40.8422C56.0188 41 55.6801 41.0789 55.2921 41.0789C54.8383 41.0789 54.4273 40.9638 54.059 40.7337C53.6908 40.4969 53.3981 40.1648 53.1811 39.7373C52.9707 39.3033 52.8654 38.8035 52.8654 38.2379ZM56.9888 38.2478C56.9888 37.8269 56.8704 37.4948 56.6337 37.2515C56.4035 37.0081 56.1207 36.8865 55.7853 36.8865C55.4499 36.8865 55.1639 37.0081 54.9271 37.2515C54.6969 37.4882 54.5819 37.817 54.5819 38.2379C54.5819 38.6588 54.6969 38.9942 54.9271 39.2441C55.1639 39.4874 55.4499 39.6091 55.7853 39.6091C56.1207 39.6091 56.4035 39.4874 56.6337 39.2441C56.8704 39.0008 56.9888 38.6687 56.9888 38.2478Z" fill="#E66500"/>
</svg>
