<svg width="90" height="18" viewBox="0 0 90 18" fill="none" xmlns="http://www.w3.org/2000/svg">
<path d="M11 9C11 10.6569 9.65685 12 8 12C6.34315 12 5 10.6569 5 9C5 7.34315 6.34315 6 8 6C9.65685 6 11 7.34315 11 9Z" fill="#FF0000"/>
<path d="M19.528 4.636C20.44 4.636 21.228 4.808 21.892 5.152C22.564 5.488 23.076 5.972 23.428 6.604C23.788 7.236 23.968 7.98 23.968 8.836C23.968 9.692 23.788 10.436 23.428 11.068C23.076 11.692 22.564 12.172 21.892 12.508C21.228 12.836 20.44 13 19.528 13H16.924V4.636H19.528ZM19.528 12.1C20.608 12.1 21.432 11.816 22 11.248C22.568 10.672 22.852 9.868 22.852 8.836C22.852 7.796 22.564 6.984 21.988 6.4C21.42 5.816 20.6 5.524 19.528 5.524H18.016V12.1H19.528ZM31.4084 9.46C31.4084 9.668 31.3964 9.888 31.3724 10.12H26.1164C26.1564 10.768 26.3764 11.276 26.7764 11.644C27.1844 12.004 27.6764 12.184 28.2524 12.184C28.7244 12.184 29.1164 12.076 29.4284 11.86C29.7484 11.636 29.9724 11.34 30.1004 10.972H31.2764C31.1004 11.604 30.7484 12.12 30.2204 12.52C29.6924 12.912 29.0364 13.108 28.2524 13.108C27.6284 13.108 27.0684 12.968 26.5724 12.688C26.0844 12.408 25.7004 12.012 25.4204 11.5C25.1404 10.98 25.0004 10.38 25.0004 9.7C25.0004 9.02 25.1364 8.424 25.4084 7.912C25.6804 7.4 26.0604 7.008 26.5484 6.736C27.0444 6.456 27.6124 6.316 28.2524 6.316C28.8764 6.316 29.4284 6.452 29.9084 6.724C30.3884 6.996 30.7564 7.372 31.0124 7.852C31.2764 8.324 31.4084 8.86 31.4084 9.46ZM30.2804 9.232C30.2804 8.816 30.1884 8.46 30.0044 8.164C29.8204 7.86 29.5684 7.632 29.2484 7.48C28.9364 7.32 28.5884 7.24 28.2044 7.24C27.6524 7.24 27.1804 7.416 26.7884 7.768C26.4044 8.12 26.1844 8.608 26.1284 9.232H30.2804ZM32.4418 9.688C32.4418 9.016 32.5778 8.428 32.8498 7.924C33.1218 7.412 33.4938 7.016 33.9658 6.736C34.4458 6.456 34.9778 6.316 35.5618 6.316C36.1378 6.316 36.6378 6.44 37.0618 6.688C37.4858 6.936 37.8018 7.248 38.0098 7.624V6.424H39.1138V13H38.0098V11.776C37.7938 12.16 37.4698 12.48 37.0378 12.736C36.6138 12.984 36.1178 13.108 35.5498 13.108C34.9658 13.108 34.4378 12.964 33.9658 12.676C33.4938 12.388 33.1218 11.984 32.8498 11.464C32.5778 10.944 32.4418 10.352 32.4418 9.688ZM38.0098 9.7C38.0098 9.204 37.9098 8.772 37.7098 8.404C37.5098 8.036 37.2378 7.756 36.8938 7.564C36.5578 7.364 36.1858 7.264 35.7778 7.264C35.3698 7.264 34.9978 7.36 34.6618 7.552C34.3258 7.744 34.0578 8.024 33.8578 8.392C33.6578 8.76 33.5578 9.192 33.5578 9.688C33.5578 10.192 33.6578 10.632 33.8578 11.008C34.0578 11.376 34.3258 11.66 34.6618 11.86C34.9978 12.052 35.3698 12.148 35.7778 12.148C36.1858 12.148 36.5578 12.052 36.8938 11.86C37.2378 11.66 37.5098 11.376 37.7098 11.008C37.9098 10.632 38.0098 10.196 38.0098 9.7ZM40.5512 9.7C40.5512 9.02 40.6872 8.428 40.9592 7.924C41.2312 7.412 41.6072 7.016 42.0872 6.736C42.5752 6.456 43.1312 6.316 43.7552 6.316C44.5632 6.316 45.2272 6.512 45.7472 6.904C46.2752 7.296 46.6232 7.84 46.7912 8.536H45.6152C45.5032 8.136 45.2832 7.82 44.9552 7.588C44.6352 7.356 44.2352 7.24 43.7552 7.24C43.1312 7.24 42.6272 7.456 42.2432 7.888C41.8592 8.312 41.6672 8.916 41.6672 9.7C41.6672 10.492 41.8592 11.104 42.2432 11.536C42.6272 11.968 43.1312 12.184 43.7552 12.184C44.2352 12.184 44.6352 12.072 44.9552 11.848C45.2752 11.624 45.4952 11.304 45.6152 10.888H46.7912C46.6152 11.56 46.2632 12.1 45.7352 12.508C45.2072 12.908 44.5472 13.108 43.7552 13.108C43.1312 13.108 42.5752 12.968 42.0872 12.688C41.6072 12.408 41.2312 12.012 40.9592 11.5C40.6872 10.988 40.5512 10.388 40.5512 9.7ZM49.5802 7.324V11.2C49.5802 11.52 49.6482 11.748 49.7842 11.884C49.9202 12.012 50.1562 12.076 50.4922 12.076H51.2962V13H50.3122C49.7042 13 49.2482 12.86 48.9442 12.58C48.6402 12.3 48.4882 11.84 48.4882 11.2V7.324H47.6362V6.424H48.4882V4.768H49.5802V6.424H51.2962V7.324H49.5802ZM53.1833 5.356C52.9753 5.356 52.7993 5.284 52.6553 5.14C52.5113 4.996 52.4393 4.82 52.4393 4.612C52.4393 4.404 52.5113 4.228 52.6553 4.084C52.7993 3.94 52.9753 3.868 53.1833 3.868C53.3833 3.868 53.5513 3.94 53.6873 4.084C53.8313 4.228 53.9033 4.404 53.9033 4.612C53.9033 4.82 53.8313 4.996 53.6873 5.14C53.5513 5.284 53.3833 5.356 53.1833 5.356ZM53.7113 6.424V13H52.6193V6.424H53.7113ZM58.0204 11.992L60.0604 6.424H61.2244L58.6444 13H57.3724L54.7924 6.424H55.9684L58.0204 11.992ZM61.891 9.688C61.891 9.016 62.027 8.428 62.299 7.924C62.571 7.412 62.943 7.016 63.415 6.736C63.895 6.456 64.427 6.316 65.011 6.316C65.587 6.316 66.087 6.44 66.511 6.688C66.935 6.936 67.251 7.248 67.459 7.624V6.424H68.563V13H67.459V11.776C67.243 12.16 66.919 12.48 66.487 12.736C66.063 12.984 65.567 13.108 64.999 13.108C64.415 13.108 63.887 12.964 63.415 12.676C62.943 12.388 62.571 11.984 62.299 11.464C62.027 10.944 61.891 10.352 61.891 9.688ZM67.459 9.7C67.459 9.204 67.359 8.772 67.159 8.404C66.959 8.036 66.687 7.756 66.343 7.564C66.007 7.364 65.635 7.264 65.227 7.264C64.819 7.264 64.447 7.36 64.111 7.552C63.775 7.744 63.507 8.024 63.307 8.392C63.107 8.76 63.007 9.192 63.007 9.688C63.007 10.192 63.107 10.632 63.307 11.008C63.507 11.376 63.775 11.66 64.111 11.86C64.447 12.052 64.819 12.148 65.227 12.148C65.635 12.148 66.007 12.052 66.343 11.86C66.687 11.66 66.959 11.376 67.159 11.008C67.359 10.632 67.459 10.196 67.459 9.7ZM71.7404 7.324V11.2C71.7404 11.52 71.8084 11.748 71.9444 11.884C72.0804 12.012 72.3164 12.076 72.6524 12.076H73.4564V13H72.4724C71.8644 13 71.4084 12.86 71.1044 12.58C70.8004 12.3 70.6484 11.84 70.6484 11.2V7.324H69.7964V6.424H70.6484V4.768H71.7404V6.424H73.4564V7.324H71.7404ZM80.7795 9.46C80.7795 9.668 80.7675 9.888 80.7435 10.12H75.4875C75.5275 10.768 75.7475 11.276 76.1475 11.644C76.5555 12.004 77.0475 12.184 77.6235 12.184C78.0955 12.184 78.4875 12.076 78.7995 11.86C79.1195 11.636 79.3435 11.34 79.4715 10.972H80.6475C80.4715 11.604 80.1195 12.12 79.5915 12.52C79.0635 12.912 78.4075 13.108 77.6235 13.108C76.9995 13.108 76.4395 12.968 75.9435 12.688C75.4555 12.408 75.0715 12.012 74.7915 11.5C74.5115 10.98 74.3715 10.38 74.3715 9.7C74.3715 9.02 74.5075 8.424 74.7795 7.912C75.0515 7.4 75.4315 7.008 75.9195 6.736C76.4155 6.456 76.9835 6.316 77.6235 6.316C78.2475 6.316 78.7995 6.452 79.2795 6.724C79.7595 6.996 80.1275 7.372 80.3835 7.852C80.6475 8.324 80.7795 8.86 80.7795 9.46ZM79.6515 9.232C79.6515 8.816 79.5595 8.46 79.3755 8.164C79.1915 7.86 78.9395 7.632 78.6195 7.48C78.3075 7.32 77.9595 7.24 77.5755 7.24C77.0235 7.24 76.5515 7.416 76.1595 7.768C75.7755 8.12 75.5555 8.608 75.4995 9.232H79.6515ZM81.8129 9.688C81.8129 9.016 81.9489 8.428 82.2209 7.924C82.4929 7.412 82.8649 7.016 83.3369 6.736C83.8169 6.456 84.3529 6.316 84.9449 6.316C85.4569 6.316 85.9329 6.436 86.3729 6.676C86.8129 6.908 87.1489 7.216 87.3809 7.6V4.12H88.4849V13H87.3809V11.764C87.1649 12.156 86.8449 12.48 86.4209 12.736C85.9969 12.984 85.5009 13.108 84.9329 13.108C84.3489 13.108 83.8169 12.964 83.3369 12.676C82.8649 12.388 82.4929 11.984 82.2209 11.464C81.9489 10.944 81.8129 10.352 81.8129 9.688ZM87.3809 9.7C87.3809 9.204 87.2809 8.772 87.0809 8.404C86.8809 8.036 86.6089 7.756 86.2649 7.564C85.9289 7.364 85.5569 7.264 85.1489 7.264C84.7409 7.264 84.3689 7.36 84.0329 7.552C83.6969 7.744 83.4289 8.024 83.2289 8.392C83.0289 8.76 82.9289 9.192 82.9289 9.688C82.9289 10.192 83.0289 10.632 83.2289 11.008C83.4289 11.376 83.6969 11.66 84.0329 11.86C84.3689 12.052 84.7409 12.148 85.1489 12.148C85.5569 12.148 85.9289 12.052 86.2649 11.86C86.6089 11.66 86.8809 11.376 87.0809 11.008C87.2809 10.632 87.3809 10.196 87.3809 9.7Z" fill="#FF0000"/>
</svg>
