<svg width="18" height="18" viewBox="0 0 18 18" fill="none" xmlns="http://www.w3.org/2000/svg">
<g clip-path="url(#clip0_159_2655)">
<path d="M14.25 2.25H13.5V0.75H12V2.25H6V0.75H4.5V2.25H3.75C2.925 2.25 2.25 2.925 2.25 3.75V14.25C2.25 15.075 2.925 15.75 3.75 15.75H14.25C15.075 15.75 15.75 15.075 15.75 14.25V3.75C15.75 2.925 15.075 2.25 14.25 2.25ZM14.25 14.25H3.75V6.75H14.25V14.25ZM3.75 5.25V3.75H14.25V5.25H3.75ZM5.25 8.25H12.75V9.75H5.25V8.25ZM5.25 11.25H10.5V12.75H5.25V11.25Z" fill="#464255"/>
</g>
<defs>
<clipPath id="clip0_159_2655">
<rect width="18" height="18" fill="white"/>
</clipPath>
</defs>
</svg>
