<svg width="70" height="60" viewBox="0 0 70 60" fill="none" xmlns="http://www.w3.org/2000/svg">
<path d="M29.098 4.02616C25.9714 5.13241 23.3558 6.0746 23.2855 6.12616C22.8918 6.41679 22.9293 7.02616 23.3558 7.2746C23.4308 7.31679 26.0558 8.26366 29.1871 9.3746C34.0058 11.0902 34.9105 11.3949 35.0699 11.3762C35.2761 11.3527 46.4277 7.40116 46.6433 7.2746C46.8777 7.13866 46.9761 6.96054 46.9761 6.67929C46.9761 6.39804 46.8777 6.21991 46.6433 6.08398C46.5683 6.04179 43.9855 5.11366 40.9058 4.02616C36.7339 2.55429 35.2386 2.04335 35.0464 2.02929C34.8074 2.01523 34.3808 2.16054 29.098 4.02616Z" fill="#E0E0E0"/>
<path d="M44.5761 9.52949L43.9058 9.76856V12.567V15.3654L43.6292 15.6467C43.4136 15.8576 43.3339 15.9795 43.2777 16.1717C43.1089 16.7389 43.2402 17.2545 43.6527 17.6529L43.9011 17.892L43.9152 19.7248C43.9292 21.5014 43.9339 21.5576 44.0277 21.6889C44.3324 22.092 44.8855 22.092 45.1902 21.6889C45.2839 21.5576 45.2886 21.5014 45.3027 19.692L45.3167 17.8264L45.4386 17.7607C45.6214 17.6623 45.8699 17.3107 45.9495 17.0201C46.1042 16.4998 45.9402 15.9373 45.523 15.5764L45.312 15.3842V12.3326C45.312 10.6545 45.298 9.28106 45.2792 9.28574C45.2558 9.28574 44.9417 9.39356 44.5761 9.52949Z" fill="#E0E0E0"/>
<path d="M27.9311 12.1033C27.9452 13.7346 27.9452 13.7627 28.0577 13.983C28.3483 14.5783 29.1686 15.0799 30.5046 15.483C33.1858 16.2986 36.8093 16.2986 39.4999 15.483C40.8264 15.0846 41.6514 14.5736 41.9468 13.9783C42.0546 13.7627 42.0546 13.7205 42.0686 12.1033C42.078 10.9549 42.0686 10.4533 42.0358 10.4533C42.0077 10.4533 40.5218 10.9736 38.7358 11.6111L35.4921 12.7736L34.9999 12.7689H34.5077L31.2686 11.6111C29.4827 10.9736 28.0014 10.4533 27.9686 10.4533C27.9311 10.4533 27.9171 10.8518 27.9311 12.1033Z" fill="#E0E0E0"/>
<path d="M9.75806 34.1244V41H8.86039V34.1244H9.75806ZM14.1684 35.4956C14.8261 35.4956 15.3588 35.6962 15.7665 36.0973C16.1742 36.4919 16.3781 37.064 16.3781 37.8138V41H15.4903V37.942C15.4903 37.4027 15.3555 36.9917 15.0858 36.7089C14.8162 36.4196 14.4479 36.2749 13.981 36.2749C13.5075 36.2749 13.1294 36.4229 12.8466 36.7188C12.5704 37.0147 12.4323 37.4455 12.4323 38.011V41H11.5346V35.5942H12.4323V36.3637C12.6098 36.0875 12.8499 35.8737 13.1524 35.7225C13.4615 35.5712 13.8002 35.4956 14.1684 35.4956ZM20.0048 41.0888C19.5905 41.0888 19.2189 41.0197 18.8901 40.8816C18.5613 40.7369 18.3015 40.5397 18.1108 40.2898C17.9201 40.0333 17.8149 39.7406 17.7951 39.4118H18.7224C18.7487 39.6814 18.8736 39.9017 19.0972 40.0727C19.3274 40.2437 19.6266 40.3292 19.9949 40.3292C20.3369 40.3292 20.6065 40.2536 20.8038 40.1023C21.0011 39.9511 21.0997 39.7604 21.0997 39.5302C21.0997 39.2934 20.9945 39.1192 20.7841 39.0074C20.5736 38.889 20.2481 38.7739 19.8075 38.6621C19.4063 38.5569 19.0775 38.4517 18.821 38.3464C18.5711 38.2346 18.3541 38.0735 18.17 37.8631C17.9924 37.6461 17.9036 37.3633 17.9036 37.0147C17.9036 36.7385 17.9858 36.4853 18.1502 36.2552C18.3147 36.025 18.5481 35.8441 18.8506 35.7126C19.1531 35.5745 19.4984 35.5054 19.8864 35.5054C20.4849 35.5054 20.9682 35.6567 21.3365 35.9592C21.7048 36.2617 21.9021 36.676 21.9284 37.2022H21.0307C21.011 36.9194 20.8959 36.6925 20.6854 36.5215C20.4816 36.3505 20.2054 36.265 19.8568 36.265C19.5346 36.265 19.2781 36.3341 19.0874 36.4722C18.8967 36.6103 18.8013 36.7911 18.8013 37.0147C18.8013 37.1923 18.8572 37.3403 18.969 37.4586C19.0874 37.5704 19.2321 37.6625 19.403 37.7348C19.5806 37.8006 19.8239 37.8762 20.133 37.9617C20.521 38.0669 20.8367 38.1722 21.08 38.2774C21.3233 38.376 21.5305 38.5273 21.7015 38.7312C21.879 38.935 21.9711 39.2014 21.9777 39.5302C21.9777 39.8261 21.8955 40.0925 21.7311 40.3292C21.5667 40.566 21.3332 40.7534 21.0307 40.8915C20.7348 41.023 20.3928 41.0888 20.0048 41.0888ZM24.5865 36.3341V39.5203C24.5865 39.7834 24.6424 39.9708 24.7542 40.0826C24.866 40.1878 25.06 40.2404 25.3362 40.2404H25.9971V41H25.1882C24.6884 41 24.3136 40.8849 24.0637 40.6547C23.8138 40.4246 23.6888 40.0464 23.6888 39.5203V36.3341H22.9884V35.5942H23.6888V34.2329H24.5865V35.5942H25.9971V36.3341H24.5865ZM27.795 34.7163C27.624 34.7163 27.4793 34.6571 27.361 34.5387C27.2426 34.4204 27.1834 34.2757 27.1834 34.1047C27.1834 33.9337 27.2426 33.789 27.361 33.6706C27.4793 33.5523 27.624 33.4931 27.795 33.4931C27.9594 33.4931 28.0975 33.5523 28.2093 33.6706C28.3277 33.789 28.3869 33.9337 28.3869 34.1047C28.3869 34.2757 28.3277 34.4204 28.2093 34.5387C28.0975 34.6571 27.9594 34.7163 27.795 34.7163ZM28.229 35.5942V41H27.3314V35.5942H28.229ZM31.1005 36.3341V39.5203C31.1005 39.7834 31.1564 39.9708 31.2682 40.0826C31.38 40.1878 31.574 40.2404 31.8502 40.2404H32.5112V41H31.7023C31.2025 41 30.8276 40.8849 30.5777 40.6547C30.3278 40.4246 30.2029 40.0464 30.2029 39.5203V36.3341H29.5025V35.5942H30.2029V34.2329H31.1005V35.5942H32.5112V36.3341H31.1005ZM38.6396 35.5942V41H37.7419V40.201C37.5709 40.4772 37.3309 40.6942 37.0218 40.852C36.7193 41.0033 36.3839 41.0789 36.0156 41.0789C35.5947 41.0789 35.2166 40.9934 34.8812 40.8224C34.5458 40.6449 34.2795 40.3818 34.0822 40.0333C33.8915 39.6847 33.7961 39.2606 33.7961 38.7607V35.5942H34.6839V38.6424C34.6839 39.1751 34.8187 39.5861 35.0884 39.8754C35.358 40.1582 35.7263 40.2996 36.1932 40.2996C36.6733 40.2996 37.0514 40.1516 37.3276 39.8557C37.6038 39.5598 37.7419 39.129 37.7419 38.5635V35.5942H38.6396ZM41.4968 36.3341V39.5203C41.4968 39.7834 41.5527 39.9708 41.6645 40.0826C41.7763 40.1878 41.9703 40.2404 42.2465 40.2404H42.9075V41H42.0986C41.5988 41 41.2239 40.8849 40.974 40.6547C40.7241 40.4246 40.5992 40.0464 40.5992 39.5203V36.3341H39.8988V35.5942H40.5992V34.2329H41.4968V35.5942H42.9075V36.3341H41.4968ZM44.7054 34.7163C44.5344 34.7163 44.3897 34.6571 44.2713 34.5387C44.1529 34.4204 44.0938 34.2757 44.0938 34.1047C44.0938 33.9337 44.1529 33.789 44.2713 33.6706C44.3897 33.5523 44.5344 33.4931 44.7054 33.4931C44.8698 33.4931 45.0079 33.5523 45.1197 33.6706C45.238 33.789 45.2972 33.9337 45.2972 34.1047C45.2972 34.2757 45.238 34.4204 45.1197 34.5387C45.0079 34.6571 44.8698 34.7163 44.7054 34.7163ZM45.1394 35.5942V41H44.2417V35.5942H45.1394ZM49.2736 41.0888C48.7672 41.0888 48.3068 40.9737 47.8925 40.7435C47.4848 40.5133 47.1626 40.1878 46.9258 39.7669C46.6956 39.3395 46.5805 38.8462 46.5805 38.2873C46.5805 37.7348 46.6989 37.2482 46.9357 36.8273C47.179 36.3998 47.5078 36.0743 47.9221 35.8507C48.3364 35.6205 48.8001 35.5054 49.313 35.5054C49.826 35.5054 50.2896 35.6205 50.7039 35.8507C51.1182 36.0743 51.4438 36.3965 51.6805 36.8174C51.9238 37.2383 52.0455 37.7283 52.0455 38.2873C52.0455 38.8462 51.9206 39.3395 51.6707 39.7669C51.4273 40.1878 51.0952 40.5133 50.6743 40.7435C50.2534 40.9737 49.7865 41.0888 49.2736 41.0888ZM49.2736 40.2996C49.5958 40.2996 49.8983 40.224 50.1811 40.0727C50.4639 39.9215 50.6908 39.6946 50.8618 39.3921C51.0393 39.0896 51.1281 38.7213 51.1281 38.2873C51.1281 37.8532 51.0426 37.4849 50.8716 37.1824C50.7006 36.8799 50.477 36.6563 50.2008 36.5116C49.9246 36.3604 49.6254 36.2847 49.3032 36.2847C48.9743 36.2847 48.6718 36.3604 48.3956 36.5116C48.126 36.6563 47.909 36.8799 47.7446 37.1824C47.5802 37.4849 47.4979 37.8532 47.4979 38.2873C47.4979 38.7279 47.5769 39.0994 47.7347 39.4019C47.8991 39.7045 48.1161 39.9313 48.3858 40.0826C48.6554 40.2273 48.9513 40.2996 49.2736 40.2996ZM56.1062 35.4956C56.7639 35.4956 57.2965 35.6962 57.7043 36.0973C58.112 36.4919 58.3159 37.064 58.3159 37.8138V41H57.4281V37.942C57.4281 37.4027 57.2933 36.9917 57.0236 36.7089C56.754 36.4196 56.3857 36.2749 55.9188 36.2749C55.4453 36.2749 55.0672 36.4229 54.7844 36.7188C54.5082 37.0147 54.3701 37.4455 54.3701 38.011V41H53.4724V35.5942H54.3701V36.3637C54.5476 36.0875 54.7877 35.8737 55.0902 35.7225C55.3993 35.5712 55.7379 35.4956 56.1062 35.4956ZM8.07111 49.1737V56H7.17344V50.9099L4.90459 56H4.27326L1.99455 50.9V56H1.09688V49.1737H2.06361L4.58893 54.8163L7.11425 49.1737H8.07111ZM9.50471 53.2774C9.50471 52.725 9.61651 52.2416 9.8401 51.8273C10.0637 51.4064 10.3695 51.0809 10.7575 50.8507C11.1521 50.6205 11.5894 50.5054 12.0695 50.5054C12.543 50.5054 12.954 50.6074 13.3026 50.8113C13.6511 51.0151 13.9109 51.2716 14.0819 51.5807V50.5942H14.9894V56H14.0819V54.9938C13.9043 55.3095 13.638 55.5725 13.2828 55.783C12.9343 55.9868 12.5265 56.0888 12.0596 56.0888C11.5795 56.0888 11.1455 55.9704 10.7575 55.7337C10.3695 55.4969 10.0637 55.1648 9.8401 54.7373C9.61651 54.3099 9.50471 53.8232 9.50471 53.2774ZM14.0819 53.2873C14.0819 52.8795 13.9997 52.5244 13.8352 52.2219C13.6708 51.9194 13.4472 51.6892 13.1645 51.5314C12.8882 51.367 12.5824 51.2847 12.2471 51.2847C11.9117 51.2847 11.6059 51.3637 11.3296 51.5215C11.0534 51.6793 10.8331 51.9095 10.6687 52.212C10.5043 52.5145 10.4221 52.8697 10.4221 53.2774C10.4221 53.6917 10.5043 54.0534 10.6687 54.3625C10.8331 54.665 11.0534 54.8985 11.3296 55.0629C11.6059 55.2207 11.9117 55.2996 12.2471 55.2996C12.5824 55.2996 12.8882 55.2207 13.1645 55.0629C13.4472 54.8985 13.6708 54.665 13.8352 54.3625C13.9997 54.0534 14.0819 53.695 14.0819 53.2873ZM19.3868 50.4956C20.0445 50.4956 20.5771 50.6962 20.9849 51.0973C21.3926 51.4919 21.5965 52.064 21.5965 52.8138V56H20.7087V52.942C20.7087 52.4027 20.5739 51.9917 20.3042 51.7089C20.0346 51.4196 19.6663 51.2749 19.1994 51.2749C18.7259 51.2749 18.3478 51.4229 18.065 51.7188C17.7888 52.0147 17.6507 52.4455 17.6507 53.011V56H16.753V50.5942H17.6507V51.3637C17.8282 51.0875 18.0683 50.8737 18.3708 50.7225C18.6799 50.5712 19.0185 50.4956 19.3868 50.4956ZM22.974 53.2774C22.974 52.725 23.0858 52.2416 23.3094 51.8273C23.533 51.4064 23.8388 51.0809 24.2268 50.8507C24.6214 50.6205 25.0588 50.5054 25.5388 50.5054C26.0123 50.5054 26.4233 50.6074 26.7719 50.8113C27.1204 51.0151 27.3802 51.2716 27.5512 51.5807V50.5942H28.4587V56H27.5512V54.9938C27.3736 55.3095 27.1073 55.5725 26.7522 55.783C26.4036 55.9868 25.9959 56.0888 25.529 56.0888C25.0489 56.0888 24.6148 55.9704 24.2268 55.7337C23.8388 55.4969 23.533 55.1648 23.3094 54.7373C23.0858 54.3099 22.974 53.8232 22.974 53.2774ZM27.5512 53.2873C27.5512 52.8795 27.469 52.5244 27.3046 52.2219C27.1402 51.9194 26.9166 51.6892 26.6338 51.5314C26.3576 51.367 26.0518 51.2847 25.7164 51.2847C25.381 51.2847 25.0752 51.3637 24.799 51.5215C24.5228 51.6793 24.3025 51.9095 24.1381 52.212C23.9737 52.5145 23.8914 52.8697 23.8914 53.2774C23.8914 53.6917 23.9737 54.0534 24.1381 54.3625C24.3025 54.665 24.5228 54.8985 24.799 55.0629C25.0752 55.2207 25.381 55.2996 25.7164 55.2996C26.0518 55.2996 26.3576 55.2207 26.6338 55.0629C26.9166 54.8985 27.1402 54.665 27.3046 54.3625C27.469 54.0534 27.5512 53.695 27.5512 53.2873ZM32.4517 50.5054C32.9186 50.5054 33.3264 50.6074 33.6749 50.8113C34.03 51.0151 34.2931 51.2716 34.4641 51.5807V50.5942H35.3716V56.1184C35.3716 56.6116 35.2664 57.0489 35.056 57.4304C34.8455 57.8184 34.543 58.1209 34.1484 58.3379C33.7604 58.5549 33.3066 58.6634 32.7871 58.6634C32.0769 58.6634 31.485 58.4957 31.0115 58.1603C30.538 57.8249 30.2585 57.3679 30.173 56.7892H31.0608C31.1595 57.118 31.3633 57.381 31.6724 57.5783C31.9815 57.7822 32.3531 57.8841 32.7871 57.8841C33.2803 57.8841 33.6815 57.7296 33.9906 57.4205C34.3062 57.1114 34.4641 56.6774 34.4641 56.1184V54.984C34.2865 55.2996 34.0235 55.5627 33.6749 55.7731C33.3264 55.9836 32.9186 56.0888 32.4517 56.0888C31.9716 56.0888 31.5343 55.9704 31.1397 55.7337C30.7517 55.4969 30.4459 55.1648 30.2223 54.7373C29.9987 54.3099 29.8869 53.8232 29.8869 53.2774C29.8869 52.725 29.9987 52.2416 30.2223 51.8273C30.4459 51.4064 30.7517 51.0809 31.1397 50.8507C31.5343 50.6205 31.9716 50.5054 32.4517 50.5054ZM34.4641 53.2873C34.4641 52.8795 34.3819 52.5244 34.2175 52.2219C34.0531 51.9194 33.8295 51.6892 33.5467 51.5314C33.2705 51.367 32.9647 51.2847 32.6293 51.2847C32.2939 51.2847 31.9881 51.3637 31.7119 51.5215C31.4357 51.6793 31.2154 51.9095 31.0509 52.212C30.8865 52.5145 30.8043 52.8697 30.8043 53.2774C30.8043 53.6917 30.8865 54.0534 31.0509 54.3625C31.2154 54.665 31.4357 54.8985 31.7119 55.0629C31.9881 55.2207 32.2939 55.2996 32.6293 55.2996C32.9647 55.2996 33.2705 55.2207 33.5467 55.0629C33.8295 54.8985 34.0531 54.665 34.2175 54.3625C34.3819 54.0534 34.4641 53.695 34.4641 53.2873ZM42.0675 53.09C42.0675 53.2609 42.0576 53.4418 42.0379 53.6325H37.7172C37.7501 54.1652 37.931 54.5828 38.2598 54.8853C38.5952 55.1812 38.9996 55.3292 39.4731 55.3292C39.8611 55.3292 40.1834 55.2404 40.4398 55.0629C40.7029 54.8787 40.887 54.6354 40.9923 54.3329H41.959C41.8143 54.8524 41.5249 55.2766 41.0909 55.6054C40.6569 55.9277 40.1176 56.0888 39.4731 56.0888C38.9602 56.0888 38.4998 55.9737 38.0921 55.7435C37.6909 55.5133 37.3753 55.1878 37.1451 54.7669C36.9149 54.3395 36.7998 53.8462 36.7998 53.2873C36.7998 52.7283 36.9116 52.2383 37.1352 51.8174C37.3588 51.3965 37.6712 51.0743 38.0723 50.8507C38.4801 50.6205 38.947 50.5054 39.4731 50.5054C39.9861 50.5054 40.4398 50.6172 40.8344 50.8408C41.229 51.0644 41.5315 51.3735 41.742 51.7681C41.959 52.1561 42.0675 52.5967 42.0675 53.09ZM41.1402 52.9025C41.1402 52.5606 41.0646 52.2679 40.9133 52.0246C40.7621 51.7747 40.5549 51.5873 40.2919 51.4623C40.0354 51.3308 39.7493 51.265 39.4337 51.265C38.9799 51.265 38.5919 51.4097 38.2696 51.6991C37.954 51.9884 37.7731 52.3896 37.7271 52.9025H41.1402ZM49.9997 50.4956C50.4206 50.4956 50.7955 50.5844 51.1243 50.7619C51.4531 50.9329 51.7129 51.1927 51.9036 51.5412C52.0943 51.8898 52.1897 52.3139 52.1897 52.8138V56H51.3019V52.942C51.3019 52.4027 51.167 51.9917 50.8974 51.7089C50.6344 51.4196 50.2759 51.2749 49.8222 51.2749C49.3552 51.2749 48.9837 51.4261 48.7075 51.7287C48.4313 52.0246 48.2932 52.4553 48.2932 53.0209V56H47.4054V52.942C47.4054 52.4027 47.2705 51.9917 47.0009 51.7089C46.7379 51.4196 46.3794 51.2749 45.9257 51.2749C45.4588 51.2749 45.0872 51.4261 44.811 51.7287C44.5348 52.0246 44.3967 52.4553 44.3967 53.0209V56H43.499V50.5942H44.3967V51.3735C44.5742 51.0907 44.811 50.8737 45.1069 50.7225C45.4094 50.5712 45.7415 50.4956 46.1032 50.4956C46.557 50.4956 46.9582 50.5975 47.3067 50.8014C47.6553 51.0053 47.915 51.3045 48.086 51.6991C48.2373 51.3176 48.4872 51.0217 48.8357 50.8113C49.1843 50.6008 49.5723 50.4956 49.9997 50.4956ZM58.8411 53.09C58.8411 53.2609 58.8312 53.4418 58.8115 53.6325H54.4908C54.5237 54.1652 54.7045 54.5828 55.0333 54.8853C55.3687 55.1812 55.7732 55.3292 56.2467 55.3292C56.6347 55.3292 56.9569 55.2404 57.2134 55.0629C57.4765 54.8787 57.6606 54.6354 57.7658 54.3329H58.7326C58.5879 54.8524 58.2985 55.2766 57.8645 55.6054C57.4304 55.9277 56.8912 56.0888 56.2467 56.0888C55.7337 56.0888 55.2734 55.9737 54.8656 55.7435C54.4645 55.5133 54.1488 55.1878 53.9187 54.7669C53.6885 54.3395 53.5734 53.8462 53.5734 53.2873C53.5734 52.7283 53.6852 52.2383 53.9088 51.8174C54.1324 51.3965 54.4448 51.0743 54.8459 50.8507C55.2537 50.6205 55.7206 50.5054 56.2467 50.5054C56.7596 50.5054 57.2134 50.6172 57.608 50.8408C58.0026 51.0644 58.3051 51.3735 58.5155 51.7681C58.7326 52.1561 58.8411 52.5967 58.8411 53.09ZM57.9138 52.9025C57.9138 52.5606 57.8382 52.2679 57.6869 52.0246C57.5357 51.7747 57.3285 51.5873 57.0654 51.4623C56.809 51.3308 56.5229 51.265 56.2072 51.265C55.7535 51.265 55.3655 51.4097 55.0432 51.6991C54.7275 51.9884 54.5467 52.3896 54.5007 52.9025H57.9138ZM62.9064 50.4956C63.564 50.4956 64.0967 50.6962 64.5045 51.0973C64.9122 51.4919 65.1161 52.064 65.1161 52.8138V56H64.2283V52.942C64.2283 52.4027 64.0934 51.9917 63.8238 51.7089C63.5542 51.4196 63.1859 51.2749 62.719 51.2749C62.2455 51.2749 61.8673 51.4229 61.5846 51.7188C61.3084 52.0147 61.1702 52.4455 61.1702 53.011V56H60.2726V50.5942H61.1702V51.3637C61.3478 51.0875 61.5878 50.8737 61.8904 50.7225C62.1994 50.5712 62.5381 50.4956 62.9064 50.4956ZM67.924 51.3341V54.5203C67.924 54.7834 67.9799 54.9708 68.0917 55.0826C68.2035 55.1878 68.3975 55.2404 68.6737 55.2404H69.3346V56H68.5257C68.0259 56 67.6511 55.8849 67.4012 55.6547C67.1513 55.4246 67.0263 55.0464 67.0263 54.5203V51.3341H66.3259V50.5942H67.0263V49.2329H67.924V50.5942H69.3346V51.3341H67.924Z" fill="#464255"/>
</svg>
