<svg width="42" height="45" viewBox="0 0 42 45" fill="none" xmlns="http://www.w3.org/2000/svg">
<path d="M29.1 9.22043C27.29 9.22043 26.55 7.94042 27.45 6.37042C27.97 5.46042 27.66 4.30042 26.75 3.78042L25.02 2.79042C24.23 2.32042 23.21 2.60042 22.74 3.39042L22.63 3.58042C21.73 5.15042 20.25 5.15042 19.34 3.58042L19.23 3.39042C18.78 2.60042 17.76 2.32042 16.97 2.79042L15.24 3.78042C14.33 4.30042 14.02 5.47042 14.54 6.38042C15.45 7.94042 14.71 9.22043 12.9 9.22043C11.86 9.22043 11 10.0704 11 11.1204V12.8804C11 13.9204 11.85 14.7804 12.9 14.7804C14.71 14.7804 15.45 16.0604 14.54 17.6304C14.02 18.5404 14.33 19.7004 15.24 20.2204L16.97 21.2104C17.76 21.6804 18.78 21.4004 19.25 20.6104L19.36 20.4204C20.26 18.8504 21.74 18.8504 22.65 20.4204L22.76 20.6104C23.23 21.4004 24.25 21.6804 25.04 21.2104L26.77 20.2204C27.68 19.7004 27.99 18.5304 27.47 17.6304C26.56 16.0604 27.3 14.7804 29.11 14.7804C30.15 14.7804 31.01 13.9304 31.01 12.8804V11.1204C31 10.0804 30.15 9.22043 29.1 9.22043ZM21 15.2504C19.21 15.2504 17.75 13.7904 17.75 12.0004C17.75 10.2104 19.21 8.75042 21 8.75042C22.79 8.75042 24.25 10.2104 24.25 12.0004C24.25 13.7904 22.79 15.2504 21 15.2504Z" fill="#E0E0E0"/>
<path d="M3.25107 41.0691C2.7973 41.0691 2.38957 40.9901 2.02787 40.8323C1.67274 40.6679 1.39325 40.4443 1.18938 40.1615C0.985513 39.8722 0.880291 39.54 0.873715 39.1652H1.83058C1.86346 39.494 1.99827 39.7735 2.23502 40.0037C2.47177 40.2273 2.81045 40.3391 3.25107 40.3391C3.67196 40.3391 4.00735 40.2306 4.25725 40.0135C4.50715 39.7899 4.63211 39.5072 4.63211 39.1652C4.63211 38.9021 4.55977 38.6884 4.41509 38.524C4.27041 38.3596 4.08956 38.2346 3.87254 38.1491C3.65552 38.0637 3.36287 37.9716 2.99459 37.8729C2.54082 37.7546 2.17583 37.6362 1.89963 37.5178C1.63 37.3994 1.39654 37.2153 1.19924 36.9654C1.00853 36.7089 0.913173 36.367 0.913173 35.9395C0.913173 35.5646 1.00853 35.2325 1.19924 34.9432C1.38996 34.6538 1.6563 34.4302 1.99827 34.2724C2.34682 34.1145 2.74469 34.0356 3.19188 34.0356C3.83637 34.0356 4.36247 34.1968 4.77021 34.519C5.18452 34.8412 5.41798 35.2687 5.47059 35.8014H4.48414C4.45126 35.5186 4.31315 35.2786 4.06983 35.0813C3.83308 34.8774 3.51084 34.7755 3.1031 34.7755C2.72825 34.7755 2.42245 34.8741 2.1857 35.0714C1.94895 35.2687 1.83058 35.5482 1.83058 35.9099C1.83058 36.1598 1.89963 36.3637 2.03773 36.5215C2.18241 36.6793 2.35668 36.801 2.56055 36.8865C2.771 36.9654 3.06364 37.0575 3.4385 37.1627C3.89226 37.2876 4.25725 37.4126 4.53346 37.5375C4.80967 37.6559 5.04642 37.8433 5.24371 38.0998C5.441 38.3497 5.53964 38.6917 5.53964 39.1257C5.53964 39.4611 5.45086 39.7768 5.2733 40.0727C5.09574 40.3687 4.83268 40.6087 4.48414 40.7928C4.13559 40.977 3.72457 41.0691 3.25107 41.0691ZM12.0395 38.0702C12.0395 38.2346 12.0297 38.4122 12.0099 38.6029H7.68927C7.71557 39.1356 7.89313 39.5565 8.22195 39.8656C8.55735 40.1747 8.96508 40.3292 9.44515 40.3292C9.83316 40.3292 10.1554 40.2404 10.4119 40.0629C10.6749 39.8787 10.8591 39.6354 10.9643 39.3329H11.931C11.7863 39.8524 11.497 40.2766 11.0629 40.6054C10.6289 40.9277 10.0896 41.0888 9.44515 41.0888C8.9322 41.0888 8.47185 40.9737 8.06412 40.7435C7.66296 40.5133 7.34729 40.1878 7.11712 39.7669C6.88695 39.3395 6.77186 38.8462 6.77186 38.2873C6.77186 37.7283 6.88366 37.2383 7.10726 36.8174C7.33085 36.3965 7.64323 36.0743 8.04439 35.8507C8.45212 35.6205 8.91905 35.5054 9.44515 35.5054C9.95811 35.5054 10.4086 35.6172 10.7966 35.8408C11.1912 36.0644 11.497 36.3702 11.714 36.7582C11.931 37.1463 12.0395 37.5836 12.0395 38.0702ZM11.1123 37.9519C11.1123 37.5967 11.0366 37.2942 10.8854 37.0443C10.7341 36.7878 10.527 36.5938 10.2639 36.4623C10.0074 36.3308 9.72136 36.265 9.4057 36.265C8.94535 36.265 8.55406 36.4163 8.23182 36.7188C7.90957 37.0147 7.73201 37.4257 7.69913 37.9519H11.1123ZM14.566 36.3341V39.5203C14.566 39.7834 14.6219 39.9708 14.7337 40.0826C14.8455 40.1878 15.0395 40.2404 15.3157 40.2404H15.9766V41H15.1677C14.6679 41 14.2931 40.8849 14.0432 40.6547C13.7933 40.4246 13.6683 40.0464 13.6683 39.5203V36.3341H12.968V35.5942H13.6683V34.2329H14.566V35.5942H15.9766V36.3341H14.566ZM18.4059 36.3341V39.5203C18.4059 39.7834 18.4618 39.9708 18.5736 40.0826C18.6854 40.1878 18.8794 40.2404 19.1556 40.2404H19.8165V41H19.0076C18.5078 41 18.1329 40.8849 17.883 40.6547C17.6331 40.4246 17.5082 40.0464 17.5082 39.5203V36.3341H16.8078V35.5942H17.5082V34.2329H18.4059V35.5942H19.8165V36.3341H18.4059ZM21.6144 34.7163C21.4434 34.7163 21.2987 34.6571 21.1803 34.5387C21.062 34.4204 21.0028 34.2757 21.0028 34.1047C21.0028 33.9337 21.062 33.789 21.1803 33.6706C21.2987 33.5523 21.4434 33.4931 21.6144 33.4931C21.7788 33.4931 21.9169 33.5523 22.0287 33.6706C22.1471 33.789 22.2063 33.9337 22.2063 34.1047C22.2063 34.2757 22.1471 34.4204 22.0287 34.5387C21.9169 34.6571 21.7788 34.7163 21.6144 34.7163ZM22.0484 35.5942V41H21.1507V35.5942H22.0484ZM26.4588 35.4956C27.1164 35.4956 27.6491 35.6962 28.0568 36.0973C28.4646 36.4919 28.6684 37.064 28.6684 37.8138V41H27.7806V37.942C27.7806 37.4027 27.6458 36.9917 27.3762 36.7089C27.1066 36.4196 26.7383 36.2749 26.2714 36.2749C25.7979 36.2749 25.4197 36.4229 25.1369 36.7188C24.8607 37.0147 24.7226 37.4455 24.7226 38.011V41H23.825V35.5942H24.7226V36.3637C24.9002 36.0875 25.1402 35.8737 25.4427 35.7225C25.7518 35.5712 26.0905 35.4956 26.4588 35.4956ZM32.6108 35.5054C33.0777 35.5054 33.4855 35.6074 33.834 35.8113C34.1891 36.0151 34.4522 36.2716 34.6232 36.5807V35.5942H35.5307V41.1184C35.5307 41.6116 35.4255 42.0489 35.215 42.4304C35.0046 42.8184 34.7021 43.1209 34.3075 43.3379C33.9195 43.5549 33.4657 43.6634 32.9462 43.6634C32.2359 43.6634 31.6441 43.4957 31.1706 43.1603C30.6971 42.8249 30.4176 42.3679 30.3321 41.7892H31.2199C31.3185 42.118 31.5224 42.381 31.8315 42.5783C32.1406 42.7822 32.5122 42.8841 32.9462 42.8841C33.4394 42.8841 33.8406 42.7296 34.1497 42.4205C34.4653 42.1114 34.6232 41.6774 34.6232 41.1184V39.984C34.4456 40.2996 34.1825 40.5627 33.834 40.7731C33.4855 40.9836 33.0777 41.0888 32.6108 41.0888C32.1307 41.0888 31.6934 40.9704 31.2988 40.7337C30.9108 40.4969 30.605 40.1648 30.3814 39.7373C30.1578 39.3099 30.046 38.8232 30.046 38.2774C30.046 37.725 30.1578 37.2416 30.3814 36.8273C30.605 36.4064 30.9108 36.0809 31.2988 35.8507C31.6934 35.6205 32.1307 35.5054 32.6108 35.5054ZM34.6232 38.2873C34.6232 37.8795 34.541 37.5244 34.3766 37.2219C34.2121 36.9194 33.9885 36.6892 33.7058 36.5314C33.4296 36.367 33.1238 36.2847 32.7884 36.2847C32.453 36.2847 32.1472 36.3637 31.871 36.5215C31.5947 36.6793 31.3744 36.9095 31.21 37.212C31.0456 37.5145 30.9634 37.8697 30.9634 38.2774C30.9634 38.6917 31.0456 39.0534 31.21 39.3625C31.3744 39.665 31.5947 39.8985 31.871 40.0629C32.1472 40.2207 32.453 40.2996 32.7884 40.2996C33.1238 40.2996 33.4296 40.2207 33.7058 40.0629C33.9885 39.8985 34.2121 39.665 34.3766 39.3625C34.541 39.0534 34.6232 38.695 34.6232 38.2873ZM39.1982 41.0888C38.7838 41.0888 38.4123 41.0197 38.0835 40.8816C37.7612 40.7369 37.5047 40.5397 37.314 40.2898C37.1233 40.0333 37.0181 39.7406 36.9984 39.4118H37.9256C37.9519 39.6946 38.0769 39.9248 38.3005 40.1023C38.5307 40.2799 38.8299 40.3687 39.1982 40.3687C39.5467 40.3687 39.8163 40.293 40.007 40.1418C40.2043 39.984 40.303 39.7801 40.303 39.5302C40.303 39.2934 40.1978 39.1192 39.9873 39.0074C39.7769 38.889 39.4513 38.7739 39.0107 38.6621C38.6096 38.5569 38.284 38.4517 38.0341 38.3464C37.7842 38.2412 37.5705 38.0867 37.3929 37.8828C37.2154 37.6724 37.1266 37.3962 37.1266 37.0542C37.1266 36.7714 37.2055 36.5116 37.3634 36.2749C37.5212 36.0381 37.7481 35.8507 38.044 35.7126C38.3465 35.5745 38.6951 35.5054 39.0896 35.5054C39.6881 35.5054 40.1715 35.6567 40.5397 35.9592C40.908 36.2617 41.1053 36.676 41.1316 37.2022H40.2339C40.2142 36.9062 40.0991 36.6695 39.8887 36.4919C39.6848 36.3143 39.4086 36.2256 39.0601 36.2256C38.7312 36.2256 38.4715 36.2979 38.2808 36.4426C38.0966 36.5873 38.0045 36.778 38.0045 37.0147C38.0045 37.1989 38.0637 37.3501 38.1821 37.4685C38.3005 37.5803 38.4452 37.6691 38.6161 37.7348C38.7871 37.794 39.0305 37.8697 39.3461 37.9617C39.7407 38.0669 40.0564 38.1722 40.2931 38.2774C40.5299 38.376 40.7337 38.524 40.9047 38.7213C41.0757 38.9186 41.1612 39.1816 41.1612 39.5105C41.1612 39.813 41.079 40.0826 40.9146 40.3193C40.7568 40.5561 40.5299 40.7435 40.2339 40.8816C39.938 41.0197 39.5927 41.0888 39.1982 41.0888Z" fill="#464255"/>
</svg>
