<svg width="61" height="60" viewBox="0 0 61 60" fill="none" xmlns="http://www.w3.org/2000/svg">
<path d="M5.03565 34.1244V34.8544H3.16138V41H2.26371V34.8544H0.379584V34.1244H5.03565ZM7.28492 36.4722C7.44275 36.1631 7.66635 35.923 7.95571 35.7521C8.25164 35.5811 8.61005 35.4956 9.03094 35.4956V36.4229H8.79419C7.78801 36.4229 7.28492 36.9687 7.28492 38.0604V41H6.38724V35.5942H7.28492V36.4722ZM9.9784 38.2774C9.9784 37.725 10.0902 37.2416 10.3138 36.8273C10.5374 36.4064 10.8432 36.0809 11.2312 35.8507C11.6258 35.6205 12.0631 35.5054 12.5432 35.5054C13.0167 35.5054 13.4277 35.6074 13.7762 35.8113C14.1248 36.0151 14.3846 36.2716 14.5555 36.5807V35.5942H15.4631V41H14.5555V39.9938C14.378 40.3095 14.1116 40.5725 13.7565 40.783C13.408 40.9868 13.0002 41.0888 12.5333 41.0888C12.0532 41.0888 11.6192 40.9704 11.2312 40.7337C10.8432 40.4969 10.5374 40.1648 10.3138 39.7373C10.0902 39.3099 9.9784 38.8232 9.9784 38.2774ZM14.5555 38.2873C14.5555 37.8795 14.4733 37.5244 14.3089 37.2219C14.1445 36.9194 13.9209 36.6892 13.6381 36.5314C13.3619 36.367 13.0561 36.2847 12.7207 36.2847C12.3853 36.2847 12.0795 36.3637 11.8033 36.5215C11.5271 36.6793 11.3068 36.9095 11.1424 37.212C10.978 37.5145 10.8958 37.8697 10.8958 38.2774C10.8958 38.6917 10.978 39.0534 11.1424 39.3625C11.3068 39.665 11.5271 39.8985 11.8033 40.0629C12.0795 40.2207 12.3853 40.2996 12.7207 40.2996C13.0561 40.2996 13.3619 40.2207 13.6381 40.0629C13.9209 39.8985 14.1445 39.665 14.3089 39.3625C14.4733 39.0534 14.5555 38.695 14.5555 38.2873ZM19.8605 35.4956C20.5181 35.4956 21.0508 35.6962 21.4586 36.0973C21.8663 36.4919 22.0702 37.064 22.0702 37.8138V41H21.1824V37.942C21.1824 37.4027 21.0475 36.9917 20.7779 36.7089C20.5083 36.4196 20.14 36.2749 19.6731 36.2749C19.1996 36.2749 18.8214 36.4229 18.5387 36.7188C18.2625 37.0147 18.1244 37.4455 18.1244 38.011V41H17.2267V35.5942H18.1244V36.3637C18.3019 36.0875 18.542 35.8737 18.8445 35.7225C19.1536 35.5712 19.4922 35.4956 19.8605 35.4956ZM25.6969 41.0888C25.2825 41.0888 24.911 41.0197 24.5822 40.8816C24.2533 40.7369 23.9936 40.5397 23.8029 40.2898C23.6121 40.0333 23.5069 39.7406 23.4872 39.4118H24.4145C24.4408 39.6814 24.5657 39.9017 24.7893 40.0727C25.0195 40.2437 25.3187 40.3292 25.687 40.3292C26.029 40.3292 26.2986 40.2536 26.4959 40.1023C26.6932 39.9511 26.7918 39.7604 26.7918 39.5302C26.7918 39.2934 26.6866 39.1192 26.4762 39.0074C26.2657 38.889 25.9402 38.7739 25.4996 38.6621C25.0984 38.5569 24.7696 38.4517 24.5131 38.3464C24.2632 38.2346 24.0462 38.0735 23.862 37.8631C23.6845 37.6461 23.5957 37.3633 23.5957 37.0147C23.5957 36.7385 23.6779 36.4853 23.8423 36.2552C24.0067 36.025 24.2402 35.8441 24.5427 35.7126C24.8452 35.5745 25.1905 35.5054 25.5785 35.5054C26.1769 35.5054 26.6603 35.6567 27.0286 35.9592C27.3968 36.2617 27.5941 36.676 27.6204 37.2022H26.7228C26.703 36.9194 26.588 36.6925 26.3775 36.5215C26.1736 36.3505 25.8974 36.265 25.5489 36.265C25.2266 36.265 24.9702 36.3341 24.7795 36.4722C24.5887 36.6103 24.4934 36.7911 24.4934 37.0147C24.4934 37.1923 24.5493 37.3403 24.6611 37.4586C24.7795 37.5704 24.9241 37.6625 25.0951 37.7348C25.2727 37.8006 25.516 37.8762 25.8251 37.9617C26.2131 38.0669 26.5288 38.1722 26.7721 38.2774C27.0154 38.376 27.2226 38.5273 27.3936 38.7312C27.5711 38.935 27.6632 39.2014 27.6698 39.5302C27.6698 39.8261 27.5876 40.0925 27.4231 40.3292C27.2587 40.566 27.0253 40.7534 26.7228 40.8915C26.4268 41.023 26.0849 41.0888 25.6969 41.0888ZM28.8482 38.2774C28.8482 37.725 28.96 37.2416 29.1836 36.8273C29.4072 36.4064 29.713 36.0809 30.101 35.8507C30.4956 35.6205 30.9329 35.5054 31.413 35.5054C31.8865 35.5054 32.2975 35.6074 32.646 35.8113C32.9946 36.0151 33.2544 36.2716 33.4253 36.5807V35.5942H34.3329V41H33.4253V39.9938C33.2478 40.3095 32.9814 40.5725 32.6263 40.783C32.2778 40.9868 31.87 41.0888 31.4031 41.0888C30.923 41.0888 30.489 40.9704 30.101 40.7337C29.713 40.4969 29.4072 40.1648 29.1836 39.7373C28.96 39.3099 28.8482 38.8232 28.8482 38.2774ZM33.4253 38.2873C33.4253 37.8795 33.3431 37.5244 33.1787 37.2219C33.0143 36.9194 32.7907 36.6892 32.5079 36.5314C32.2317 36.367 31.9259 36.2847 31.5905 36.2847C31.2551 36.2847 30.9493 36.3637 30.6731 36.5215C30.3969 36.6793 30.1766 36.9095 30.0122 37.212C29.8478 37.5145 29.7656 37.8697 29.7656 38.2774C29.7656 38.6917 29.8478 39.0534 30.0122 39.3625C30.1766 39.665 30.3969 39.8985 30.6731 40.0629C30.9493 40.2207 31.2551 40.2996 31.5905 40.2996C31.9259 40.2996 32.2317 40.2207 32.5079 40.0629C32.7907 39.8985 33.0143 39.665 33.1787 39.3625C33.3431 39.0534 33.4253 38.695 33.4253 38.2873ZM35.7611 38.2873C35.7611 37.7283 35.8729 37.2416 36.0965 36.8273C36.3201 36.4064 36.6292 36.0809 37.0237 35.8507C37.4249 35.6205 37.882 35.5054 38.3949 35.5054C39.0591 35.5054 39.605 35.6666 40.0324 35.9888C40.4665 36.3111 40.7525 36.7582 40.8906 37.3304H39.9239C39.8318 37.0016 39.651 36.7418 39.3814 36.5511C39.1183 36.3604 38.7895 36.265 38.3949 36.265C37.882 36.265 37.4676 36.4426 37.152 36.7977C36.8363 37.1463 36.6785 37.6428 36.6785 38.2873C36.6785 38.9383 36.8363 39.4414 37.152 39.7965C37.4676 40.1516 37.882 40.3292 38.3949 40.3292C38.7895 40.3292 39.1183 40.2371 39.3814 40.053C39.6444 39.8689 39.8253 39.6058 39.9239 39.2638H40.8906C40.746 39.8163 40.4566 40.2602 40.0226 40.5956C39.5885 40.9244 39.046 41.0888 38.3949 41.0888C37.882 41.0888 37.4249 40.9737 37.0237 40.7435C36.6292 40.5133 36.3201 40.1878 36.0965 39.7669C35.8729 39.346 35.7611 38.8528 35.7611 38.2873ZM43.43 36.3341V39.5203C43.43 39.7834 43.4859 39.9708 43.5977 40.0826C43.7095 40.1878 43.9035 40.2404 44.1797 40.2404H44.8406V41H44.0317C43.5319 41 43.1571 40.8849 42.9072 40.6547C42.6573 40.4246 42.5323 40.0464 42.5323 39.5203V36.3341H41.8319V35.5942H42.5323V34.2329H43.43V35.5942H44.8406V36.3341H43.43ZM46.6385 34.7163C46.4675 34.7163 46.3228 34.6571 46.2045 34.5387C46.0861 34.4204 46.0269 34.2757 46.0269 34.1047C46.0269 33.9337 46.0861 33.789 46.2045 33.6706C46.3228 33.5523 46.4675 33.4931 46.6385 33.4931C46.8029 33.4931 46.941 33.5523 47.0528 33.6706C47.1712 33.789 47.2304 33.9337 47.2304 34.1047C47.2304 34.2757 47.1712 34.4204 47.0528 34.5387C46.941 34.6571 46.8029 34.7163 46.6385 34.7163ZM47.0725 35.5942V41H46.1749V35.5942H47.0725ZM51.2067 41.0888C50.7003 41.0888 50.24 40.9737 49.8257 40.7435C49.4179 40.5133 49.0957 40.1878 48.859 39.7669C48.6288 39.3395 48.5137 38.8462 48.5137 38.2873C48.5137 37.7348 48.6321 37.2482 48.8688 36.8273C49.1121 36.3998 49.441 36.0743 49.8553 35.8507C50.2696 35.6205 50.7332 35.5054 51.2462 35.5054C51.7591 35.5054 52.2228 35.6205 52.6371 35.8507C53.0514 36.0743 53.3769 36.3965 53.6137 36.8174C53.857 37.2383 53.9787 37.7283 53.9787 38.2873C53.9787 38.8462 53.8537 39.3395 53.6038 39.7669C53.3605 40.1878 53.0284 40.5133 52.6075 40.7435C52.1866 40.9737 51.7197 41.0888 51.2067 41.0888ZM51.2067 40.2996C51.529 40.2996 51.8315 40.224 52.1143 40.0727C52.397 39.9215 52.6239 39.6946 52.7949 39.3921C52.9725 39.0896 53.0612 38.7213 53.0612 38.2873C53.0612 37.8532 52.9758 37.4849 52.8048 37.1824C52.6338 36.8799 52.4102 36.6563 52.134 36.5116C51.8578 36.3604 51.5586 36.2847 51.2363 36.2847C50.9075 36.2847 50.605 36.3604 50.3288 36.5116C50.0591 36.6563 49.8421 36.8799 49.6777 37.1824C49.5133 37.4849 49.4311 37.8532 49.4311 38.2873C49.4311 38.7279 49.51 39.0994 49.6678 39.4019C49.8323 39.7045 50.0493 39.9313 50.3189 40.0826C50.5885 40.2273 50.8845 40.2996 51.2067 40.2996ZM58.0394 35.4956C58.697 35.4956 59.2297 35.6962 59.6374 36.0973C60.0452 36.4919 60.249 37.064 60.249 37.8138V41H59.3612V37.942C59.3612 37.4027 59.2264 36.9917 58.9568 36.7089C58.6871 36.4196 58.3189 36.2749 57.8519 36.2749C57.3784 36.2749 57.0003 36.4229 56.7175 36.7188C56.4413 37.0147 56.3032 37.4455 56.3032 38.011V41H55.4055V35.5942H56.3032V36.3637C56.4808 36.0875 56.7208 35.8737 57.0233 35.7225C57.3324 35.5712 57.6711 35.4956 58.0394 35.4956ZM18.0793 56L16.4418 53.1886H15.3567V56H14.459V49.1244H16.6785C17.1981 49.1244 17.6354 49.2132 17.9905 49.3908C18.3522 49.5683 18.6219 49.8084 18.7994 50.1109C18.977 50.4134 19.0658 50.7586 19.0658 51.1466C19.0658 51.6201 18.9277 52.0377 18.6515 52.3994C18.3818 52.7611 17.9741 53.0012 17.4282 53.1196L19.1545 56H18.0793ZM15.3567 52.4685H16.6785C17.1652 52.4685 17.5302 52.3501 17.7735 52.1134C18.0168 51.87 18.1385 51.5478 18.1385 51.1466C18.1385 50.7389 18.0168 50.4232 17.7735 50.1996C17.5368 49.9761 17.1718 49.8643 16.6785 49.8643H15.3567V52.4685ZM25.6395 53.09C25.6395 53.2609 25.6296 53.4418 25.6099 53.6325H21.2892C21.3221 54.1652 21.5029 54.5828 21.8318 54.8853C22.1672 55.1812 22.5716 55.3292 23.0451 55.3292C23.4331 55.3292 23.7554 55.2404 24.0118 55.0629C24.2749 54.8787 24.459 54.6354 24.5642 54.3329H25.531C25.3863 54.8524 25.0969 55.2766 24.6629 55.6054C24.2288 55.9277 23.6896 56.0888 23.0451 56.0888C22.5321 56.0888 22.0718 55.9737 21.6641 55.7435C21.2629 55.5133 20.9472 55.1878 20.7171 54.7669C20.4869 54.3395 20.3718 53.8462 20.3718 53.2873C20.3718 52.7283 20.4836 52.2383 20.7072 51.8174C20.9308 51.3965 21.2432 51.0743 21.6443 50.8507C22.0521 50.6205 22.519 50.5054 23.0451 50.5054C23.5581 50.5054 24.0118 50.6172 24.4064 50.8408C24.801 51.0644 25.1035 51.3735 25.3139 51.7681C25.531 52.1561 25.6395 52.5967 25.6395 53.09ZM24.7122 52.9025C24.7122 52.5606 24.6366 52.2679 24.4853 52.0246C24.3341 51.7747 24.1269 51.5873 23.8639 51.4623C23.6074 51.3308 23.3213 51.265 23.0056 51.265C22.5519 51.265 22.1639 51.4097 21.8416 51.6991C21.526 51.9884 21.3451 52.3896 21.2991 52.9025H24.7122ZM27.9687 51.5905C28.1462 51.2815 28.4093 51.025 28.7578 50.8211C29.113 50.6107 29.524 50.5054 29.9909 50.5054C30.471 50.5054 30.905 50.6205 31.293 50.8507C31.6876 51.0809 31.9967 51.4064 32.2203 51.8273C32.4439 52.2416 32.5557 52.725 32.5557 53.2774C32.5557 53.8232 32.4439 54.3099 32.2203 54.7373C31.9967 55.1648 31.6876 55.4969 31.293 55.7337C30.905 55.9704 30.471 56.0888 29.9909 56.0888C29.5306 56.0888 29.1228 55.9868 28.7677 55.783C28.4191 55.5725 28.1528 55.3128 27.9687 55.0037V58.5648H27.071V50.5942H27.9687V51.5905ZM31.6383 53.2774C31.6383 52.8697 31.5561 52.5145 31.3917 52.212C31.2273 51.9095 31.0037 51.6793 30.7209 51.5215C30.4447 51.3637 30.1389 51.2847 29.8035 51.2847C29.4747 51.2847 29.1689 51.367 28.8861 51.5314C28.6099 51.6892 28.3863 51.9227 28.2153 52.2317C28.0509 52.5343 27.9687 52.8861 27.9687 53.2873C27.9687 53.695 28.0509 54.0534 28.2153 54.3625C28.3863 54.665 28.6099 54.8985 28.8861 55.0629C29.1689 55.2207 29.4747 55.2996 29.8035 55.2996C30.1389 55.2996 30.4447 55.2207 30.7209 55.0629C31.0037 54.8985 31.2273 54.665 31.3917 54.3625C31.5561 54.0534 31.6383 53.6917 31.6383 53.2774ZM36.3415 56.0888C35.8351 56.0888 35.3748 55.9737 34.9605 55.7435C34.5527 55.5133 34.2305 55.1878 33.9937 54.7669C33.7636 54.3395 33.6485 53.8462 33.6485 53.2873C33.6485 52.7348 33.7669 52.2482 34.0036 51.8273C34.2469 51.3998 34.5758 51.0743 34.9901 50.8507C35.4044 50.6205 35.868 50.5054 36.381 50.5054C36.8939 50.5054 37.3576 50.6205 37.7719 50.8507C38.1862 51.0743 38.5117 51.3965 38.7485 51.8174C38.9918 52.2383 39.1134 52.7283 39.1134 53.2873C39.1134 53.8462 38.9885 54.3395 38.7386 54.7669C38.4953 55.1878 38.1632 55.5133 37.7423 55.7435C37.3214 55.9737 36.8545 56.0888 36.3415 56.0888ZM36.3415 55.2996C36.6637 55.2996 36.9663 55.224 37.249 55.0727C37.5318 54.9215 37.7587 54.6946 37.9297 54.3921C38.1073 54.0896 38.196 53.7213 38.196 53.2873C38.196 52.8532 38.1105 52.4849 37.9396 52.1824C37.7686 51.8799 37.545 51.6563 37.2688 51.5116C36.9926 51.3604 36.6933 51.2847 36.3711 51.2847C36.0423 51.2847 35.7398 51.3604 35.4636 51.5116C35.1939 51.6563 34.9769 51.8799 34.8125 52.1824C34.6481 52.4849 34.5659 52.8532 34.5659 53.2873C34.5659 53.7279 34.6448 54.0994 34.8026 54.4019C34.967 54.7045 35.1841 54.9313 35.4537 55.0826C35.7233 55.2273 36.0193 55.2996 36.3415 55.2996ZM41.438 51.4722C41.5958 51.1631 41.8194 50.923 42.1088 50.7521C42.4047 50.5811 42.7631 50.4956 43.184 50.4956V51.4229H42.9473C41.9411 51.4229 41.438 51.9687 41.438 53.0604V56H40.5403V50.5942H41.438V51.4722ZM45.5618 51.3341V54.5203C45.5618 54.7834 45.6177 54.9708 45.7295 55.0826C45.8413 55.1878 46.0353 55.2404 46.3116 55.2404H46.9725V56H46.1636C45.6638 56 45.2889 55.8849 45.039 55.6547C44.7891 55.4246 44.6642 55.0464 44.6642 54.5203V51.3341H43.9638V50.5942H44.6642V49.2329H45.5618V50.5942H46.9725V51.3341H45.5618Z" fill="#464255"/>
<path d="M22.4998 1.56538C21.8107 1.75757 21.2482 2.32476 21.0654 3.01851C20.9717 3.37476 20.9717 20.6248 21.0654 20.981C21.2529 21.6841 21.8154 22.2466 22.5232 22.4341C22.8326 22.5185 37.0217 22.5326 37.4154 22.4482C38.1514 22.2935 38.7889 21.6513 38.9482 20.9154C38.9857 20.7373 38.9998 18.6513 38.9998 13.5935V6.52007L36.8295 6.50601L34.6639 6.49195L34.3967 6.36538C34.0451 6.20132 33.7357 5.87788 33.6139 5.54976C33.5201 5.30601 33.5154 5.19819 33.5154 3.3982V1.49976L28.1154 1.50444C23.9389 1.50913 22.6639 1.5232 22.4998 1.56538ZM27.2389 4.57476C27.4357 4.67319 27.5389 4.92632 27.4686 5.13726C27.4404 5.22163 27.3607 5.33882 27.2951 5.39038C27.1779 5.47944 27.1076 5.48413 25.5045 5.48413C23.6482 5.48413 23.6811 5.48882 23.5451 5.17007C23.4561 4.94976 23.5311 4.71538 23.7373 4.58882C23.8732 4.50444 23.9857 4.49976 25.4904 4.49976C26.8592 4.49976 27.1217 4.50913 27.2389 4.57476ZM35.6154 7.6357C35.9342 7.78101 36.2904 8.16538 36.4076 8.49351C36.4873 8.72788 36.492 9.01382 36.492 13.781V18.8201L36.3701 19.0779C36.1967 19.4529 35.9904 19.6638 35.6342 19.8373L35.3201 19.9919H31.992H28.6639L28.4014 19.8701C28.0779 19.7154 27.7732 19.4248 27.642 19.1294C27.5576 18.9513 27.5342 18.7966 27.5154 18.2107L27.492 17.5076L26.0389 17.4841C24.6186 17.4607 24.5811 17.456 24.3561 17.3482C24.0467 17.1935 23.7842 16.9216 23.6295 16.5982L23.5076 16.3357L23.4936 12.6794C23.4795 8.9482 23.4889 8.6482 23.6576 8.32476C23.7561 8.13257 24.0889 7.7857 24.2529 7.70132C24.6326 7.49976 24.5436 7.50445 30.0701 7.51382L35.367 7.5232L35.6154 7.6357Z" fill="#E0E0E0"/>
<path d="M24.8156 8.55C24.5344 8.67187 24.5156 8.74687 24.5156 9.66562V10.5H28.5H32.4844V9.49219V8.48438H28.725C25.6594 8.48906 24.9328 8.49844 24.8156 8.55Z" fill="#E0E0E0"/>
<path d="M33.5156 9.49219V10.5H34.5H35.4844V9.66562C35.4844 8.48906 35.4797 8.48438 34.2656 8.48438H33.5156V9.49219Z" fill="#E0E0E0"/>
<path d="M24.5156 12.4922V13.5H28.5H32.4844V12.4922V11.4844H28.5H24.5156V12.4922Z" fill="#E0E0E0"/>
<path d="M33.5156 12.4922V13.5H34.5H35.4844V12.4922V11.4844H34.5H33.5156V12.4922Z" fill="#E0E0E0"/>
<path d="M24.5156 15.3047C24.5156 16.1859 24.5391 16.2984 24.75 16.4203C24.8719 16.4953 25.2188 16.5 28.6828 16.5H32.4844V15.4922V14.4844H28.5H24.5156V15.3047Z" fill="#E0E0E0"/>
<path d="M33.5156 15.4922V16.5H34.5H35.4844V15.4922V14.4844H34.5H33.5156V15.4922Z" fill="#E0E0E0"/>
<path d="M28.5 18.0516C28.5 18.6703 28.5516 18.8344 28.7672 18.9328C28.8422 18.9703 29.8688 18.9844 32.0438 18.9844H35.2125L35.3484 18.8484L35.4844 18.7125V18.0984V17.4844H31.9922H28.5V18.0516Z" fill="#E0E0E0"/>
<path d="M34.5 3.39844C34.5 5.26875 34.5047 5.31563 34.7672 5.43281C34.8422 5.46563 35.5078 5.48438 36.7641 5.48438H38.6437L38.4375 5.26875C37.8703 4.6875 34.8516 1.88438 34.6875 1.78594L34.5 1.67813V3.39844Z" fill="#E0E0E0"/>
</svg>
