<svg width="24" height="24" viewBox="0 0 24 24" fill="none" xmlns="http://www.w3.org/2000/svg">
<path d="M4.4998 1.56538C3.81074 1.75757 3.24824 2.32476 3.06543 3.01851C2.97168 3.37476 2.97168 20.6248 3.06543 20.981C3.25293 21.6841 3.81543 22.2466 4.52324 22.4341C4.83262 22.5185 19.0217 22.5326 19.4154 22.4482C20.1514 22.2935 20.7889 21.6513 20.9482 20.9154C20.9857 20.7373 20.9998 18.6513 20.9998 13.5935V6.52007L18.8295 6.50601L16.6639 6.49195L16.3967 6.36538C16.0451 6.20132 15.7357 5.87788 15.6139 5.54976C15.5201 5.30601 15.5154 5.19819 15.5154 3.3982V1.49976L10.1154 1.50444C5.93887 1.50913 4.66387 1.5232 4.4998 1.56538ZM9.23887 4.57476C9.43574 4.67319 9.53887 4.92632 9.46855 5.13726C9.44043 5.22163 9.36074 5.33882 9.29512 5.39038C9.17793 5.47944 9.10762 5.48413 7.50449 5.48413C5.64824 5.48413 5.68105 5.48882 5.54512 5.17007C5.45605 4.94976 5.53105 4.71538 5.7373 4.58882C5.87324 4.50444 5.98574 4.49976 7.49043 4.49976C8.85918 4.49976 9.12168 4.50913 9.23887 4.57476ZM17.6154 7.6357C17.9342 7.78101 18.2904 8.16538 18.4076 8.49351C18.4873 8.72788 18.492 9.01382 18.492 13.781V18.8201L18.3701 19.0779C18.1967 19.4529 17.9904 19.6638 17.6342 19.8373L17.3201 19.9919H13.992H10.6639L10.4014 19.8701C10.0779 19.7154 9.77324 19.4248 9.64199 19.1294C9.55762 18.9513 9.53418 18.7966 9.51543 18.2107L9.49199 17.5076L8.03887 17.4841C6.61855 17.4607 6.58105 17.456 6.35605 17.3482C6.04668 17.1935 5.78418 16.9216 5.62949 16.5982L5.50762 16.3357L5.49355 12.6794C5.47949 8.9482 5.48887 8.6482 5.65762 8.32476C5.75605 8.13257 6.08887 7.7857 6.25293 7.70132C6.63262 7.49976 6.54355 7.50445 12.0701 7.51382L17.367 7.5232L17.6154 7.6357Z" fill="#E0E0E0"/>
<path d="M6.81563 8.55C6.53438 8.67187 6.51562 8.74687 6.51562 9.66562V10.5H10.5H14.4844V9.49219V8.48438H10.725C7.65938 8.48906 6.93281 8.49844 6.81563 8.55Z" fill="#E0E0E0"/>
<path d="M15.5156 9.49219V10.5H16.5H17.4844V9.66562C17.4844 8.48906 17.4797 8.48438 16.2656 8.48438H15.5156V9.49219Z" fill="#E0E0E0"/>
<path d="M6.51562 12.4922V13.5H10.5H14.4844V12.4922V11.4844H10.5H6.51562V12.4922Z" fill="#E0E0E0"/>
<path d="M15.5156 12.4922V13.5H16.5H17.4844V12.4922V11.4844H16.5H15.5156V12.4922Z" fill="#E0E0E0"/>
<path d="M6.51562 15.3047C6.51562 16.1859 6.53906 16.2984 6.75 16.4203C6.87188 16.4953 7.21875 16.5 10.6828 16.5H14.4844V15.4922V14.4844H10.5H6.51562V15.3047Z" fill="#E0E0E0"/>
<path d="M15.5156 15.4922V16.5H16.5H17.4844V15.4922V14.4844H16.5H15.5156V15.4922Z" fill="#E0E0E0"/>
<path d="M10.5 18.0516C10.5 18.6703 10.5516 18.8344 10.7672 18.9328C10.8422 18.9703 11.8688 18.9844 14.0438 18.9844H17.2125L17.3484 18.8484L17.4844 18.7125V18.0984V17.4844H13.9922H10.5V18.0516Z" fill="#E0E0E0"/>
<path d="M16.5 3.39844C16.5 5.26875 16.5047 5.31563 16.7672 5.43281C16.8422 5.46563 17.5078 5.48438 18.7641 5.48438H20.6437L20.4375 5.26875C19.8703 4.6875 16.8516 1.88438 16.6875 1.78594L16.5 1.67813V3.39844Z" fill="#E0E0E0"/>
</svg>
