<svg width="97" height="18" viewBox="0 0 97 18" fill="none" xmlns="http://www.w3.org/2000/svg">
<path d="M11 9C11 10.6569 9.65685 12 8 12C6.34315 12 5 10.6569 5 9C5 7.34315 6.34315 6 8 6C9.65685 6 11 7.34315 11 9Z" fill="#FF9441"/>
<path d="M17.992 4.636V9.928C17.992 10.672 18.172 11.224 18.532 11.584C18.9 11.944 19.408 12.124 20.056 12.124C20.696 12.124 21.196 11.944 21.556 11.584C21.924 11.224 22.108 10.672 22.108 9.928V4.636H23.2V9.916C23.2 10.612 23.06 11.2 22.78 11.68C22.5 12.152 22.12 12.504 21.64 12.736C21.168 12.968 20.636 13.084 20.044 13.084C19.452 13.084 18.916 12.968 18.436 12.736C17.964 12.504 17.588 12.152 17.308 11.68C17.036 11.2 16.9 10.612 16.9 9.916V4.636H17.992ZM28.2257 6.304C29.0257 6.304 29.6737 6.548 30.1697 7.036C30.6657 7.516 30.9137 8.212 30.9137 9.124V13H29.8337V9.28C29.8337 8.624 29.6697 8.124 29.3417 7.78C29.0137 7.428 28.5657 7.252 27.9977 7.252C27.4217 7.252 26.9617 7.432 26.6177 7.792C26.2817 8.152 26.1137 8.676 26.1137 9.364V13H25.0217V6.424H26.1137V7.36C26.3297 7.024 26.6217 6.764 26.9897 6.58C27.3657 6.396 27.7777 6.304 28.2257 6.304ZM32.2894 9.688C32.2894 9.016 32.4254 8.428 32.6974 7.924C32.9694 7.412 33.3414 7.016 33.8134 6.736C34.2934 6.456 34.8294 6.316 35.4214 6.316C35.9334 6.316 36.4094 6.436 36.8494 6.676C37.2894 6.908 37.6254 7.216 37.8574 7.6V4.12H38.9614V13H37.8574V11.764C37.6414 12.156 37.3214 12.48 36.8974 12.736C36.4734 12.984 35.9774 13.108 35.4094 13.108C34.8254 13.108 34.2934 12.964 33.8134 12.676C33.3414 12.388 32.9694 11.984 32.6974 11.464C32.4254 10.944 32.2894 10.352 32.2894 9.688ZM37.8574 9.7C37.8574 9.204 37.7574 8.772 37.5574 8.404C37.3574 8.036 37.0854 7.756 36.7414 7.564C36.4054 7.364 36.0334 7.264 35.6254 7.264C35.2174 7.264 34.8454 7.36 34.5094 7.552C34.1734 7.744 33.9054 8.024 33.7054 8.392C33.5054 8.76 33.4054 9.192 33.4054 9.688C33.4054 10.192 33.5054 10.632 33.7054 11.008C33.9054 11.376 34.1734 11.66 34.5094 11.86C34.8454 12.052 35.2174 12.148 35.6254 12.148C36.0334 12.148 36.4054 12.052 36.7414 11.86C37.0854 11.66 37.3574 11.376 37.5574 11.008C37.7574 10.632 37.8574 10.196 37.8574 9.7ZM46.8068 9.46C46.8068 9.668 46.7948 9.888 46.7708 10.12H41.5148C41.5548 10.768 41.7748 11.276 42.1748 11.644C42.5828 12.004 43.0748 12.184 43.6508 12.184C44.1228 12.184 44.5148 12.076 44.8268 11.86C45.1468 11.636 45.3708 11.34 45.4988 10.972H46.6748C46.4988 11.604 46.1468 12.12 45.6188 12.52C45.0908 12.912 44.4348 13.108 43.6508 13.108C43.0268 13.108 42.4668 12.968 41.9708 12.688C41.4828 12.408 41.0988 12.012 40.8188 11.5C40.5388 10.98 40.3988 10.38 40.3988 9.7C40.3988 9.02 40.5348 8.424 40.8068 7.912C41.0788 7.4 41.4588 7.008 41.9468 6.736C42.4428 6.456 43.0108 6.316 43.6508 6.316C44.2748 6.316 44.8268 6.452 45.3068 6.724C45.7868 6.996 46.1548 7.372 46.4108 7.852C46.6748 8.324 46.8068 8.86 46.8068 9.46ZM45.6788 9.232C45.6788 8.816 45.5868 8.46 45.4028 8.164C45.2188 7.86 44.9668 7.632 44.6468 7.48C44.3348 7.32 43.9868 7.24 43.6028 7.24C43.0508 7.24 42.5788 7.416 42.1868 7.768C41.8028 8.12 41.5828 8.608 41.5268 9.232H45.6788ZM49.3402 7.492C49.5322 7.116 49.8042 6.824 50.1562 6.616C50.5162 6.408 50.9522 6.304 51.4642 6.304V7.432H51.1762C49.9522 7.432 49.3402 8.096 49.3402 9.424V13H48.2482V6.424H49.3402V7.492ZM60.328 13L58.336 9.58H57.016V13H55.924V4.636H58.624C59.256 4.636 59.788 4.744 60.22 4.96C60.66 5.176 60.988 5.468 61.204 5.836C61.42 6.204 61.528 6.624 61.528 7.096C61.528 7.672 61.36 8.18 61.024 8.62C60.696 9.06 60.2 9.352 59.536 9.496L61.636 13H60.328ZM57.016 8.704H58.624C59.216 8.704 59.66 8.56 59.956 8.272C60.252 7.976 60.4 7.584 60.4 7.096C60.4 6.6 60.252 6.216 59.956 5.944C59.668 5.672 59.224 5.536 58.624 5.536H57.016V8.704ZM69.2248 9.46C69.2248 9.668 69.2128 9.888 69.1888 10.12H63.9328C63.9728 10.768 64.1928 11.276 64.5928 11.644C65.0008 12.004 65.4928 12.184 66.0688 12.184C66.5408 12.184 66.9328 12.076 67.2448 11.86C67.5648 11.636 67.7888 11.34 67.9168 10.972H69.0928C68.9168 11.604 68.5648 12.12 68.0368 12.52C67.5088 12.912 66.8528 13.108 66.0688 13.108C65.4448 13.108 64.8848 12.968 64.3888 12.688C63.9008 12.408 63.5168 12.012 63.2368 11.5C62.9568 10.98 62.8168 10.38 62.8168 9.7C62.8168 9.02 62.9528 8.424 63.2248 7.912C63.4968 7.4 63.8768 7.008 64.3648 6.736C64.8608 6.456 65.4288 6.316 66.0688 6.316C66.6928 6.316 67.2448 6.452 67.7248 6.724C68.2048 6.996 68.5728 7.372 68.8288 7.852C69.0928 8.324 69.2248 8.86 69.2248 9.46ZM68.0968 9.232C68.0968 8.816 68.0048 8.46 67.8208 8.164C67.6368 7.86 67.3848 7.632 67.0648 7.48C66.7528 7.32 66.4048 7.24 66.0208 7.24C65.4688 7.24 64.9968 7.416 64.6048 7.768C64.2208 8.12 64.0008 8.608 63.9448 9.232H68.0968ZM73.1142 11.992L75.1542 6.424H76.3182L73.7382 13H72.4662L69.8862 6.424H71.0622L73.1142 11.992ZM77.9568 5.356C77.7488 5.356 77.5728 5.284 77.4288 5.14C77.2848 4.996 77.2128 4.82 77.2128 4.612C77.2128 4.404 77.2848 4.228 77.4288 4.084C77.5728 3.94 77.7488 3.868 77.9568 3.868C78.1568 3.868 78.3248 3.94 78.4608 4.084C78.6048 4.228 78.6768 4.404 78.6768 4.612C78.6768 4.82 78.6048 4.996 78.4608 5.14C78.3248 5.284 78.1568 5.356 77.9568 5.356ZM78.4848 6.424V13H77.3928V6.424H78.4848ZM86.3459 9.46C86.3459 9.668 86.3339 9.888 86.3099 10.12H81.0539C81.0939 10.768 81.3139 11.276 81.7139 11.644C82.1219 12.004 82.6139 12.184 83.1899 12.184C83.6619 12.184 84.0539 12.076 84.3659 11.86C84.6859 11.636 84.9099 11.34 85.0379 10.972H86.2139C86.0379 11.604 85.6859 12.12 85.1579 12.52C84.6299 12.912 83.9739 13.108 83.1899 13.108C82.5659 13.108 82.0059 12.968 81.5099 12.688C81.0219 12.408 80.6379 12.012 80.3579 11.5C80.0779 10.98 79.9379 10.38 79.9379 9.7C79.9379 9.02 80.0739 8.424 80.3459 7.912C80.6179 7.4 80.9979 7.008 81.4859 6.736C81.9819 6.456 82.5499 6.316 83.1899 6.316C83.8139 6.316 84.3659 6.452 84.8459 6.724C85.3259 6.996 85.6939 7.372 85.9499 7.852C86.2139 8.324 86.3459 8.86 86.3459 9.46ZM85.2179 9.232C85.2179 8.816 85.1259 8.46 84.9419 8.164C84.7579 7.86 84.5059 7.632 84.1859 7.48C83.8739 7.32 83.5259 7.24 83.1419 7.24C82.5899 7.24 82.1179 7.416 81.7259 7.768C81.3419 8.12 81.1219 8.608 81.0659 9.232H85.2179ZM96.5473 6.424L94.4953 13H93.3673L91.7833 7.78L90.1993 13H89.0713L87.0073 6.424H88.1233L89.6353 11.944L91.2673 6.424H92.3833L93.9793 11.956L95.4673 6.424H96.5473Z" fill="#FF9441"/>
</svg>
