<svg width="70" height="60" viewBox="0 0 70 60" fill="none" xmlns="http://www.w3.org/2000/svg">
<path d="M25.4638 34.1244V38.4747C25.4638 39.0863 25.6118 39.54 25.9077 39.836C26.2102 40.1319 26.6278 40.2799 27.1605 40.2799C27.6866 40.2799 28.0976 40.1319 28.3936 39.836C28.6961 39.54 28.8473 39.0863 28.8473 38.4747V34.1244H29.745V38.4648C29.745 39.037 29.6299 39.5203 29.3998 39.9149C29.1696 40.3029 28.8572 40.5923 28.4626 40.783C28.0746 40.9737 27.6373 41.0691 27.1506 41.0691C26.664 41.0691 26.2234 40.9737 25.8288 40.783C25.4408 40.5923 25.1317 40.3029 24.9015 39.9149C24.6779 39.5203 24.5661 39.037 24.5661 38.4648V34.1244H25.4638ZM33.4028 41.0888C32.9885 41.0888 32.617 41.0197 32.2881 40.8816C31.9593 40.7369 31.6996 40.5397 31.5088 40.2898C31.3181 40.0333 31.2129 39.7406 31.1932 39.4118H32.1204C32.1467 39.6814 32.2717 39.9017 32.4953 40.0727C32.7255 40.2437 33.0247 40.3292 33.393 40.3292C33.7349 40.3292 34.0046 40.2536 34.2019 40.1023C34.3991 39.9511 34.4978 39.7604 34.4978 39.5302C34.4978 39.2934 34.3926 39.1192 34.1821 39.0074C33.9717 38.889 33.6462 38.7739 33.2055 38.6621C32.8044 38.5569 32.4756 38.4517 32.2191 38.3464C31.9692 38.2346 31.7522 38.0735 31.568 37.8631C31.3905 37.6461 31.3017 37.3633 31.3017 37.0147C31.3017 36.7385 31.3839 36.4853 31.5483 36.2552C31.7127 36.025 31.9462 35.8441 32.2487 35.7126C32.5512 35.5745 32.8964 35.5054 33.2845 35.5054C33.8829 35.5054 34.3663 35.6567 34.7345 35.9592C35.1028 36.2617 35.3001 36.676 35.3264 37.2022H34.4287C34.409 36.9194 34.2939 36.6925 34.0835 36.5215C33.8796 36.3505 33.6034 36.265 33.2549 36.265C32.9326 36.265 32.6761 36.3341 32.4854 36.4722C32.2947 36.6103 32.1994 36.7911 32.1994 37.0147C32.1994 37.1923 32.2553 37.3403 32.3671 37.4586C32.4854 37.5704 32.6301 37.6625 32.8011 37.7348C32.9787 37.8006 33.222 37.8762 33.5311 37.9617C33.9191 38.0669 34.2347 38.1722 34.4781 38.2774C34.7214 38.376 34.9285 38.5273 35.0995 38.7312C35.2771 38.935 35.3692 39.2014 35.3757 39.5302C35.3757 39.8261 35.2935 40.0925 35.1291 40.3292C34.9647 40.566 34.7313 40.7534 34.4287 40.8915C34.1328 41.023 33.7908 41.0888 33.4028 41.0888ZM41.8218 38.09C41.8218 38.2609 41.812 38.4418 41.7922 38.6325H37.4716C37.5044 39.1652 37.6853 39.5828 38.0141 39.8853C38.3495 40.1812 38.754 40.3292 39.2275 40.3292C39.6155 40.3292 39.9377 40.2404 40.1942 40.0629C40.4572 39.8787 40.6414 39.6354 40.7466 39.3329H41.7133C41.5686 39.8524 41.2793 40.2766 40.8452 40.6054C40.4112 40.9277 39.8719 41.0888 39.2275 41.0888C38.7145 41.0888 38.2542 40.9737 37.8464 40.7435C37.4453 40.5133 37.1296 40.1878 36.8994 39.7669C36.6693 39.3395 36.5542 38.8462 36.5542 38.2873C36.5542 37.7283 36.666 37.2383 36.8896 36.8174C37.1132 36.3965 37.4255 36.0743 37.8267 35.8507C38.2344 35.6205 38.7013 35.5054 39.2275 35.5054C39.7404 35.5054 40.1942 35.6172 40.5888 35.8408C40.9833 36.0644 41.2859 36.3735 41.4963 36.7681C41.7133 37.1561 41.8218 37.5967 41.8218 38.09ZM40.8946 37.9025C40.8946 37.5606 40.8189 37.2679 40.6677 37.0246C40.5164 36.7747 40.3093 36.5873 40.0462 36.4623C39.7897 36.3308 39.5037 36.265 39.188 36.265C38.7342 36.265 38.3462 36.4097 38.024 36.6991C37.7083 36.9884 37.5275 37.3896 37.4814 37.9025H40.8946ZM44.151 36.4722C44.3089 36.1631 44.5324 35.923 44.8218 35.7521C45.1177 35.5811 45.4762 35.4956 45.897 35.4956V36.4229H45.6603C44.6541 36.4229 44.151 36.9687 44.151 38.0604V41H43.2533V35.5942H44.151V36.4722ZM8.07111 49.1737V56H7.17344V50.9099L4.90459 56H4.27326L1.99455 50.9V56H1.09688V49.1737H2.06361L4.58893 54.8163L7.11425 49.1737H8.07111ZM9.50471 53.2774C9.50471 52.725 9.61651 52.2416 9.8401 51.8273C10.0637 51.4064 10.3695 51.0809 10.7575 50.8507C11.1521 50.6205 11.5894 50.5054 12.0695 50.5054C12.543 50.5054 12.954 50.6074 13.3026 50.8113C13.6511 51.0151 13.9109 51.2716 14.0819 51.5807V50.5942H14.9894V56H14.0819V54.9938C13.9043 55.3095 13.638 55.5725 13.2828 55.783C12.9343 55.9868 12.5265 56.0888 12.0596 56.0888C11.5795 56.0888 11.1455 55.9704 10.7575 55.7337C10.3695 55.4969 10.0637 55.1648 9.8401 54.7373C9.61651 54.3099 9.50471 53.8232 9.50471 53.2774ZM14.0819 53.2873C14.0819 52.8795 13.9997 52.5244 13.8352 52.2219C13.6708 51.9194 13.4472 51.6892 13.1645 51.5314C12.8882 51.367 12.5824 51.2847 12.2471 51.2847C11.9117 51.2847 11.6059 51.3637 11.3296 51.5215C11.0534 51.6793 10.8331 51.9095 10.6687 52.212C10.5043 52.5145 10.4221 52.8697 10.4221 53.2774C10.4221 53.6917 10.5043 54.0534 10.6687 54.3625C10.8331 54.665 11.0534 54.8985 11.3296 55.0629C11.6059 55.2207 11.9117 55.2996 12.2471 55.2996C12.5824 55.2996 12.8882 55.2207 13.1645 55.0629C13.4472 54.8985 13.6708 54.665 13.8352 54.3625C13.9997 54.0534 14.0819 53.695 14.0819 53.2873ZM19.3868 50.4956C20.0445 50.4956 20.5771 50.6962 20.9849 51.0973C21.3926 51.4919 21.5965 52.064 21.5965 52.8138V56H20.7087V52.942C20.7087 52.4027 20.5739 51.9917 20.3042 51.7089C20.0346 51.4196 19.6663 51.2749 19.1994 51.2749C18.7259 51.2749 18.3478 51.4229 18.065 51.7188C17.7888 52.0147 17.6507 52.4455 17.6507 53.011V56H16.753V50.5942H17.6507V51.3637C17.8282 51.0875 18.0683 50.8737 18.3708 50.7225C18.6799 50.5712 19.0185 50.4956 19.3868 50.4956ZM22.974 53.2774C22.974 52.725 23.0858 52.2416 23.3094 51.8273C23.533 51.4064 23.8388 51.0809 24.2268 50.8507C24.6214 50.6205 25.0588 50.5054 25.5388 50.5054C26.0123 50.5054 26.4233 50.6074 26.7719 50.8113C27.1204 51.0151 27.3802 51.2716 27.5512 51.5807V50.5942H28.4587V56H27.5512V54.9938C27.3736 55.3095 27.1073 55.5725 26.7522 55.783C26.4036 55.9868 25.9959 56.0888 25.529 56.0888C25.0489 56.0888 24.6148 55.9704 24.2268 55.7337C23.8388 55.4969 23.533 55.1648 23.3094 54.7373C23.0858 54.3099 22.974 53.8232 22.974 53.2774ZM27.5512 53.2873C27.5512 52.8795 27.469 52.5244 27.3046 52.2219C27.1402 51.9194 26.9166 51.6892 26.6338 51.5314C26.3576 51.367 26.0518 51.2847 25.7164 51.2847C25.381 51.2847 25.0752 51.3637 24.799 51.5215C24.5228 51.6793 24.3025 51.9095 24.1381 52.212C23.9737 52.5145 23.8914 52.8697 23.8914 53.2774C23.8914 53.6917 23.9737 54.0534 24.1381 54.3625C24.3025 54.665 24.5228 54.8985 24.799 55.0629C25.0752 55.2207 25.381 55.2996 25.7164 55.2996C26.0518 55.2996 26.3576 55.2207 26.6338 55.0629C26.9166 54.8985 27.1402 54.665 27.3046 54.3625C27.469 54.0534 27.5512 53.695 27.5512 53.2873ZM32.4517 50.5054C32.9186 50.5054 33.3264 50.6074 33.6749 50.8113C34.03 51.0151 34.2931 51.2716 34.4641 51.5807V50.5942H35.3716V56.1184C35.3716 56.6116 35.2664 57.0489 35.056 57.4304C34.8455 57.8184 34.543 58.1209 34.1484 58.3379C33.7604 58.5549 33.3066 58.6634 32.7871 58.6634C32.0769 58.6634 31.485 58.4957 31.0115 58.1603C30.538 57.8249 30.2585 57.3679 30.173 56.7892H31.0608C31.1595 57.118 31.3633 57.381 31.6724 57.5783C31.9815 57.7822 32.3531 57.8841 32.7871 57.8841C33.2803 57.8841 33.6815 57.7296 33.9906 57.4205C34.3062 57.1114 34.4641 56.6774 34.4641 56.1184V54.984C34.2865 55.2996 34.0235 55.5627 33.6749 55.7731C33.3264 55.9836 32.9186 56.0888 32.4517 56.0888C31.9716 56.0888 31.5343 55.9704 31.1397 55.7337C30.7517 55.4969 30.4459 55.1648 30.2223 54.7373C29.9987 54.3099 29.8869 53.8232 29.8869 53.2774C29.8869 52.725 29.9987 52.2416 30.2223 51.8273C30.4459 51.4064 30.7517 51.0809 31.1397 50.8507C31.5343 50.6205 31.9716 50.5054 32.4517 50.5054ZM34.4641 53.2873C34.4641 52.8795 34.3819 52.5244 34.2175 52.2219C34.0531 51.9194 33.8295 51.6892 33.5467 51.5314C33.2705 51.367 32.9647 51.2847 32.6293 51.2847C32.2939 51.2847 31.9881 51.3637 31.7119 51.5215C31.4357 51.6793 31.2154 51.9095 31.0509 52.212C30.8865 52.5145 30.8043 52.8697 30.8043 53.2774C30.8043 53.6917 30.8865 54.0534 31.0509 54.3625C31.2154 54.665 31.4357 54.8985 31.7119 55.0629C31.9881 55.2207 32.2939 55.2996 32.6293 55.2996C32.9647 55.2996 33.2705 55.2207 33.5467 55.0629C33.8295 54.8985 34.0531 54.665 34.2175 54.3625C34.3819 54.0534 34.4641 53.695 34.4641 53.2873ZM42.0675 53.09C42.0675 53.2609 42.0576 53.4418 42.0379 53.6325H37.7172C37.7501 54.1652 37.931 54.5828 38.2598 54.8853C38.5952 55.1812 38.9996 55.3292 39.4731 55.3292C39.8611 55.3292 40.1834 55.2404 40.4398 55.0629C40.7029 54.8787 40.887 54.6354 40.9923 54.3329H41.959C41.8143 54.8524 41.5249 55.2766 41.0909 55.6054C40.6569 55.9277 40.1176 56.0888 39.4731 56.0888C38.9602 56.0888 38.4998 55.9737 38.0921 55.7435C37.6909 55.5133 37.3753 55.1878 37.1451 54.7669C36.9149 54.3395 36.7998 53.8462 36.7998 53.2873C36.7998 52.7283 36.9116 52.2383 37.1352 51.8174C37.3588 51.3965 37.6712 51.0743 38.0723 50.8507C38.4801 50.6205 38.947 50.5054 39.4731 50.5054C39.9861 50.5054 40.4398 50.6172 40.8344 50.8408C41.229 51.0644 41.5315 51.3735 41.742 51.7681C41.959 52.1561 42.0675 52.5967 42.0675 53.09ZM41.1402 52.9025C41.1402 52.5606 41.0646 52.2679 40.9133 52.0246C40.7621 51.7747 40.5549 51.5873 40.2919 51.4623C40.0354 51.3308 39.7493 51.265 39.4337 51.265C38.9799 51.265 38.5919 51.4097 38.2696 51.6991C37.954 51.9884 37.7731 52.3896 37.7271 52.9025H41.1402ZM49.9997 50.4956C50.4206 50.4956 50.7955 50.5844 51.1243 50.7619C51.4531 50.9329 51.7129 51.1927 51.9036 51.5412C52.0943 51.8898 52.1897 52.3139 52.1897 52.8138V56H51.3019V52.942C51.3019 52.4027 51.167 51.9917 50.8974 51.7089C50.6344 51.4196 50.2759 51.2749 49.8222 51.2749C49.3552 51.2749 48.9837 51.4261 48.7075 51.7287C48.4313 52.0246 48.2932 52.4553 48.2932 53.0209V56H47.4054V52.942C47.4054 52.4027 47.2705 51.9917 47.0009 51.7089C46.7379 51.4196 46.3794 51.2749 45.9257 51.2749C45.4588 51.2749 45.0872 51.4261 44.811 51.7287C44.5348 52.0246 44.3967 52.4553 44.3967 53.0209V56H43.499V50.5942H44.3967V51.3735C44.5742 51.0907 44.811 50.8737 45.1069 50.7225C45.4094 50.5712 45.7415 50.4956 46.1032 50.4956C46.557 50.4956 46.9582 50.5975 47.3067 50.8014C47.6553 51.0053 47.915 51.3045 48.086 51.6991C48.2373 51.3176 48.4872 51.0217 48.8357 50.8113C49.1843 50.6008 49.5723 50.4956 49.9997 50.4956ZM58.8411 53.09C58.8411 53.2609 58.8312 53.4418 58.8115 53.6325H54.4908C54.5237 54.1652 54.7045 54.5828 55.0333 54.8853C55.3687 55.1812 55.7732 55.3292 56.2467 55.3292C56.6347 55.3292 56.9569 55.2404 57.2134 55.0629C57.4765 54.8787 57.6606 54.6354 57.7658 54.3329H58.7326C58.5879 54.8524 58.2985 55.2766 57.8645 55.6054C57.4304 55.9277 56.8912 56.0888 56.2467 56.0888C55.7337 56.0888 55.2734 55.9737 54.8656 55.7435C54.4645 55.5133 54.1488 55.1878 53.9187 54.7669C53.6885 54.3395 53.5734 53.8462 53.5734 53.2873C53.5734 52.7283 53.6852 52.2383 53.9088 51.8174C54.1324 51.3965 54.4448 51.0743 54.8459 50.8507C55.2537 50.6205 55.7206 50.5054 56.2467 50.5054C56.7596 50.5054 57.2134 50.6172 57.608 50.8408C58.0026 51.0644 58.3051 51.3735 58.5155 51.7681C58.7326 52.1561 58.8411 52.5967 58.8411 53.09ZM57.9138 52.9025C57.9138 52.5606 57.8382 52.2679 57.6869 52.0246C57.5357 51.7747 57.3285 51.5873 57.0654 51.4623C56.809 51.3308 56.5229 51.265 56.2072 51.265C55.7535 51.265 55.3655 51.4097 55.0432 51.6991C54.7275 51.9884 54.5467 52.3896 54.5007 52.9025H57.9138ZM62.9064 50.4956C63.564 50.4956 64.0967 50.6962 64.5045 51.0973C64.9122 51.4919 65.1161 52.064 65.1161 52.8138V56H64.2283V52.942C64.2283 52.4027 64.0934 51.9917 63.8238 51.7089C63.5542 51.4196 63.1859 51.2749 62.719 51.2749C62.2455 51.2749 61.8673 51.4229 61.5846 51.7188C61.3084 52.0147 61.1702 52.4455 61.1702 53.011V56H60.2726V50.5942H61.1702V51.3637C61.3478 51.0875 61.5878 50.8737 61.8904 50.7225C62.1994 50.5712 62.5381 50.4956 62.9064 50.4956ZM67.924 51.3341V54.5203C67.924 54.7834 67.9799 54.9708 68.0917 55.0826C68.2035 55.1878 68.3975 55.2404 68.6737 55.2404H69.3346V56H68.5257C68.0259 56 67.6511 55.8849 67.4012 55.6547C67.1513 55.4246 67.0263 55.0464 67.0263 54.5203V51.3341H66.3259V50.5942H67.0263V49.2329H67.924V50.5942H69.3346V51.3341H67.924Z" fill="#464255"/>
<g clip-path="url(#clip0_2_1874)">
<path d="M39 11C40.66 11 41.99 9.66 41.99 8C41.99 6.34 40.66 5 39 5C37.34 5 36 6.34 36 8C36 9.66 37.34 11 39 11ZM31 11C32.66 11 33.99 9.66 33.99 8C33.99 6.34 32.66 5 31 5C29.34 5 28 6.34 28 8C28 9.66 29.34 11 31 11ZM31 13C28.67 13 24 14.17 24 16.5V18C24 18.55 24.45 19 25 19H37C37.55 19 38 18.55 38 18V16.5C38 14.17 33.33 13 31 13ZM39 13C38.71 13 38.38 13.02 38.03 13.05C38.05 13.06 38.06 13.08 38.07 13.09C39.21 13.92 40 15.03 40 16.5V18C40 18.35 39.93 18.69 39.82 19H45C45.55 19 46 18.55 46 18V16.5C46 14.17 41.33 13 39 13Z" fill="#E0E0E0"/>
</g>
<defs>
<clipPath id="clip0_2_1874">
<rect width="24" height="24" fill="white" transform="translate(23)"/>
</clipPath>
</defs>
</svg>
